<?xml version="1.0" encoding="UTF-8"?>
<svg id="_레이어_2" data-name="레이어 2" xmlns="http://www.w3.org/2000/svg" viewBox="0 0 412 412">
  <defs>
    <style>
      .cls-1 {
        fill: none;
        stroke: #3f3f3f;
        stroke-linecap: round;
        stroke-linejoin: round;
        stroke-width: 12px;
      }
    </style>
  </defs>
  <g id="_레이어_1-2" data-name="레이어 1">
    <g>
      <rect class="cls-1" x="39.51" y="6" width="332.99" height="35.14"/>
      <rect class="cls-1" x="186.9" y="41.14" width="38.2" height="32.04"/>
      <line class="cls-1" x1="206" y1="92.99" x2="206" y2="73.18"/>
      <rect class="cls-1" x="153.94" y="142.43" width="104.12" height="87.51"/>
      <path class="cls-1" d="m353.42,337.43v68.57H58.58v-68.57c.34.01.69.01,1.03.01h292.78c.34,0,.69,0,1.03-.01Z"/>
      <path class="cls-1" d="m352.39,229.95H59.61c-14.8,0-28.21,6.02-37.91,15.74-9.7,9.73-15.7,23.16-15.7,38.01,0,29.34,23.44,53.19,52.58,53.74.34.01.69.01,1.03.01h292.78c.34,0,.69,0,1.03-.01,14.39-.27,27.4-6.23,36.88-15.73,9.7-9.73,15.7-23.16,15.7-38.01,0-29.68-24.01-53.75-53.61-53.75Zm10.91,67.27c-3.45,3.46-8.23,5.6-13.48,5.6H62.19c-10.54,0-19.07-8.57-19.07-19.12,0-5.28,2.13-10.06,5.59-13.52,3.44-3.46,8.22-5.6,13.48-5.6h287.63c10.53,0,19.07,8.56,19.07,19.12,0,5.28-2.13,10.06-5.59,13.52Z"/>
      <path class="cls-1" d="m368.89,283.7c0,5.28-2.13,10.06-5.59,13.52-3.45,3.46-8.23,5.6-13.48,5.6H62.19c-10.54,0-19.07-8.57-19.07-19.12,0-5.28,2.13-10.06,5.59-13.52,3.44-3.46,8.22-5.6,13.48-5.6h287.63c10.53,0,19.07,8.56,19.07,19.12Z"/>
      <g>
        <path class="cls-1" d="m81.26,283.7c0,10.55-8.55,19.12-19.07,19.12s-19.07-8.57-19.07-19.12c0-5.28,2.13-10.06,5.59-13.52,3.44-3.46,8.22-5.6,13.48-5.6,10.53,0,19.07,8.56,19.07,19.12Z"/>
        <path class="cls-1" d="m368.89,283.7c0,5.28-2.13,10.06-5.59,13.52-3.45,3.46-8.23,5.6-13.48,5.6-10.54,0-19.07-8.57-19.07-19.12s8.54-19.12,19.07-19.12,19.07,8.56,19.07,19.12Z"/>
        <g>
          <path class="cls-1" d="m368.89,283.7c0,5.28-2.13,10.06-5.59,13.52-3.45,3.46-8.23,5.6-13.48,5.6H62.19c-10.54,0-19.07-8.57-19.07-19.12,0-5.28,2.13-10.06,5.59-13.52,3.44-3.46,8.22-5.6,13.48-5.6h287.63c10.53,0,19.07,8.56,19.07,19.12Z"/>
          <ellipse class="cls-1" cx="206" cy="283.69" rx="19.07" ry="19.12"/>
        </g>
      </g>
    </g>
  </g>
</svg>