<?xml version="1.0" encoding="UTF-8"?>
<svg id="_레이어_2" data-name="레이어 2" xmlns="http://www.w3.org/2000/svg" viewBox="0 0 412 406.95">
  <defs>
    <style>
      .cls-1 {
        fill: none;
        stroke: #3f3f3f;
        stroke-linecap: round;
        stroke-linejoin: round;
        stroke-width: 12px;
      }
    </style>
  </defs>
  <g id="_레이어_1-2" data-name="레이어 1">
    <g>
      <path class="cls-1" d="m179.75,272.32l-119.29,119.29c-12.46,12.46-32.66,12.46-45.12,0-6.24-6.24-9.34-14.4-9.34-22.56s3.11-16.34,9.34-22.57l120.42-120.42c11.07,18.48,26.13,34.29,43.99,46.25Z"/>
      <path class="cls-1" d="m260.58,6c-80.13,0-145.14,64.82-145.42,144.9v.52c0,27.28,7.52,52.82,20.6,74.65,11.07,18.48,26.13,34.29,43.99,46.25,23.12,15.49,50.92,24.52,80.83,24.52,80.32,0,145.42-65.1,145.42-145.42v-.52c-.28-80.08-65.28-144.9-145.42-144.9Z"/>
      <path class="cls-1" d="m166.96,152.47c-.01-.35-.01-.69-.01-1.05,0-.18,0-.35.01-.52.27-50.83,41.05-92.08,91.71-93.09"/>
    </g>
  </g>
</svg>