<?xml version="1.0" encoding="UTF-8"?>
<svg id="_레이어_2" data-name="레이어 2" xmlns="http://www.w3.org/2000/svg" viewBox="0 0 412 412">
  <defs>
    <style>
      .cls-1 {
        fill: none;
        stroke: #3f3f3f;
        stroke-linecap: round;
        stroke-linejoin: round;
        stroke-width: 12px;
      }
    </style>
  </defs>
  <g id="_레이어_1-2" data-name="레이어 1">
    <g>
      <g>
        <path class="cls-1" d="m387.63,99.47h18.37v-27.45h-18.37c-10.42,0-15.63-12.6-8.27-19.97l12.99-12.99-19.41-19.41-12.99,12.99c-7.37,7.36-19.97,2.15-19.97-8.27V6h-27.45v18.37c0,10.42-12.6,15.63-19.96,8.27l-12.99-12.99-19.42,19.41,12.99,12.99c7.37,7.37,2.15,19.97-8.27,19.97h-18.36v27.45h18.36c8.74,0,13.82,8.86,10.89,16.06-.57,1.39-1.43,2.71-2.62,3.9l-12.99,12.99,19.42,19.42,12.99-12.99c7.36-7.37,19.96-2.15,19.96,8.27v18.36h27.45v-18.36c0-10.42,12.6-15.64,19.97-8.27l12.99,12.99,19.41-19.42-12.99-12.99c-7.36-7.36-2.15-19.96,8.27-19.96Zm-61.37,8.53c-12.29,0-22.26-9.97-22.26-22.26s9.97-22.25,22.26-22.25,22.25,9.96,22.25,22.25-9.96,22.26-22.25,22.26Z"/>
        <path class="cls-1" d="m348.51,85.74c0,12.29-9.96,22.26-22.25,22.26s-22.26-9.97-22.26-22.26,9.97-22.25,22.26-22.25,22.25,9.96,22.25,22.25Z"/>
        <path class="cls-1" d="m348.51,85.74c0,12.29-9.96,22.26-22.25,22.26s-22.26-9.97-22.26-22.26,9.97-22.25,22.26-22.25,22.25,9.96,22.25,22.25Z"/>
      </g>
      <g>
        <rect class="cls-1" x="6" y="70.38" width="102.69" height="335.62"/>
        <path class="cls-1" d="m319.91,165.48v149.24h-173.23V115.53h56.01v54.13l29.05-20.87,26.97,19.37v-52.63h17.06c-.57,1.39-1.43,2.71-2.62,3.9l-12.99,12.99,19.42,19.42,12.99-12.99c7.36-7.37,19.96-2.15,19.96,8.27v18.36h7.38Z"/>
        <path class="cls-1" d="m406,360.36c0,12.6-5.1,24.01-13.37,32.27-8.26,8.27-19.67,13.37-32.27,13.37H108.82v-37.34h255.69c2.29,0,4.37-.93,5.87-2.43,1.49-1.5,2.43-3.58,2.43-5.87,0-4.58-3.71-8.3-8.3-8.3H108.82v-37.34h251.54c25.21,0,45.64,20.43,45.64,45.64Z"/>
        <path class="cls-1" d="m372.81,360.36c0,2.29-.93,4.37-2.43,5.87-1.5,1.49-3.58,2.43-5.87,2.43H108.82v-16.6h255.69c4.58,0,8.3,3.71,8.3,8.3Z"/>
        <polygon class="cls-1" points="258.71 115.53 258.71 168.16 231.74 148.79 202.69 169.66 202.69 115.53 258.71 115.53"/>
        <g>
          <circle class="cls-1" cx="40.23" cy="104.61" r=".52"/>
          <circle class="cls-1" cx="74.46" cy="104.61" r=".52"/>
          <circle class="cls-1" cx="40.23" cy="371.77" r=".52"/>
          <circle class="cls-1" cx="74.46" cy="371.77" r=".52"/>
        </g>
      </g>
    </g>
  </g>
</svg>