<?xml version="1.0" encoding="UTF-8"?>
<svg id="_레이어_2" data-name="레이어 2" xmlns="http://www.w3.org/2000/svg" viewBox="0 0 412 412">
  <defs>
    <style>
      .cls-1 {
        fill: none;
        stroke: #3f3f3f;
        stroke-linecap: round;
        stroke-linejoin: round;
        stroke-width: 12px;
      }
    </style>
  </defs>
  <g id="_레이어_1-2" data-name="레이어 1">
    <g>
      <path class="cls-1" d="m406,80.13v277.28c0,26.84-21.75,48.59-48.59,48.59H54.59c-26.84,0-48.59-21.75-48.59-48.59V80.13c0-26.84,21.75-48.59,48.59-48.59h90.32v63.32h124.41V31.55h88.1c26.84,0,48.59,21.75,48.59,48.59Z"/>
      <polygon class="cls-1" points="358.24 81.53 358.24 342.68 55.99 342.68 55.99 81.53 144.91 81.53 144.91 94.86 269.32 94.86 269.32 81.53 358.24 81.53"/>
      <line class="cls-1" x1="81.39" y1="134.05" x2="331.81" y2="134.05"/>
      <line class="cls-1" x1="81.39" y1="189.59" x2="331.81" y2="189.59"/>
      <line class="cls-1" x1="83.54" y1="244.19" x2="207.31" y2="244.19"/>
      <polyline class="cls-1" points="236.26 287.48 258.56 308.14 302.99 264.69"/>
      <path class="cls-1" d="m269.32,31.55v63.32h-124.41V31.55h33.52c.73-6.44,3.6-12.24,7.86-16.66,5.24-5.49,12.64-8.89,20.82-8.89s15.57,3.4,20.82,8.89c4.27,4.42,7.13,10.22,7.86,16.66h33.52Z"/>
    </g>
  </g>
</svg>