<?xml version="1.0" encoding="UTF-8"?>
<svg id="_레이어_2" data-name="레이어 2" xmlns="http://www.w3.org/2000/svg" viewBox="0 0 27.17 38.51">
  <defs>
    <style>
      .cls-1 {
        fill: #231815;
        stroke-width: 0px;
      }
    </style>
  </defs>
  <g id="_레이어_1-2" data-name="레이어 1">
    <g>
      <path class="cls-1" d="M5.59,26c0-.56.01-.84.01-1.21,0-.55-.01-.9-.02-1.07.14.02.3.03.44.03s.29,0,.44-.03c-.07.68-.07,1.22-.07,1.82,0,1.26.37,1.47,1.07,1.47.86,0,.91-.9.91-1.86,0-.48-.02-.95-.04-1.43.09.02.18.03.27.03s.18,0,.27-.03c-.03.31-.07,1.05-.07,1.95,0,1.2-.54,1.7-1.58,1.7-.92,0-1.62-.39-1.62-1.37"/>
      <path class="cls-1" d="M11.48,25.66c0,.75,0,1.3.04,1.63-.12-.01-.26-.03-.44-.03s-.32.01-.44.03c.03-.46.04-.86.04-1.44v-.71c0-.58,0-.98-.04-1.44.12.01.26.03.44.03s.32-.02.44-.03c-.04.28-.04.99-.04,1.66.48-.55,1.18-1.39,1.36-1.66.1.01.2.03.3.03.1,0,.2-.02.32-.03-.24.23-1.1,1.16-1.38,1.49.46.68,1.17,1.72,1.46,2.09-.21-.01-.36-.03-.52-.03s-.31.01-.46.03c-.35-.55-.72-1.09-1.07-1.63h0Z"/>
      <path class="cls-1" d="M16.57,23.69l-.2.03-.2-.03c-.46,1.18-1.26,3.03-1.52,3.61.1,0,.18-.03.27-.03l.25.03c.1-.36.22-.71.36-1.06.19,0,.37,0,.56,0,.23,0,.45,0,.68,0,.13.35.26.71.37,1.06.15,0,.3-.03.45-.03s.3.02.47.03c-.41-.85-1.03-2.42-1.48-3.61M15.66,25.92c.15-.42.32-.83.5-1.24.17.41.32.82.48,1.24h-.98Z"/>
      <path class="cls-1" d="M21.17,24.41c-.11-.3-.32-.45-.65-.45s-.56.22-.56.47c0,.77,1.62.58,1.62,1.75,0,.7-.57,1.17-1.42,1.17-.38,0-.7-.11-.86-.22.07-.24.12-.43.15-.66h.1c.06.3.31.56.74.56s.63-.24.63-.53c0-.78-1.59-.58-1.59-1.75,0-.72.57-1.11,1.2-1.11.38,0,.67.1.88.26-.06.16-.1.29-.17.51h-.08Z"/>
      <path class="cls-1" d="M10.88,38.51c.73,0,1-.84,1-1.39s-.26-1.38-1-1.38-1,.84-1,1.38.26,1.39,1,1.39M10.88,36.02c.51,0,.65.73.65,1.1s-.14,1.09-.65,1.09-.66-.73-.66-1.09.14-1.1.66-1.1"/>
      <path class="cls-1" d="M13.4,38.51c.73,0,1-.84,1-1.39s-.26-1.38-1-1.38-1,.84-1,1.38.26,1.39,1,1.39M13.4,36.02c.51,0,.65.73.65,1.1s-.14,1.09-.65,1.09-.65-.73-.65-1.09.14-1.1.65-1.1"/>
      <path class="cls-1" d="M15.48,37.81c0,.27.25.38.46.38.49,0,.55-.45.55-.62,0-.37-.21-.58-.53-.58-.16,0-.29.06-.38.14l-.13.23h-.37l.07-1.61h1.57v.32h-1.23l-.05.88c.09-.08.26-.25.59-.25.56,0,.84.43.84.89,0,.53-.39.94-1,.94-.45,0-.81-.24-.83-.7h.42Z"/>
      <polygon class="cls-1" points="9.21 13.15 9.21 18.32 12.93 22.3 20.29 11.49 20.29 7.77 12.93 17.92 9.21 13.15"/>
      <polygon class="cls-1" points="14.07 6.6 14.19 6.6 14.19 4.66 14.07 4.46 14 4.51 14.07 4.66 14.07 6.6"/>
      <path class="cls-1" d="M13.98,3.2v-.02c-.17-.15-.17-.22-.17-.22v-.47s.07-.03.17.02c0,0,.15.06.15.15h.09v-.53h-.09c0,.09-.15.15-.15.15h-.17s-.05.02-.05-.11l.02-.18s.05-.15.15-.15v-.09h-.54v.09c.1,0,.15.15.15.15l.02.18h-.01c0,.13-.05.11-.05.11h-.18s-.14-.06-.14-.15h-.09v.53h.09c0-.09.14-.15.14-.15l.04-.02h.14v.47s-.01.07-.16.22l-.02.03c-.24.12-.4.36-.4.64,0,.3.18.56.44.67.02,0,.05.02.08.03.01,0,.02.01.03.01.02-.09.09-.16.19-.16.09,0,.17.07.18.16t.02-.01s.06-.02.09-.03c.25-.11.43-.37.43-.67,0-.28-.16-.53-.4-.65ZM14.26,3.97h-.01v.02h-.04s-.05,0-.06-.01c-.17-.02-.33-.02-.48-.02-.29,0-.51.02-.51.02h-.13s-.05-.1-.05-.1c0-.09.03-.16.1-.18l.19-.02h.28v-.48l.07-.08h0s.1-.01.1-.01l.07.09v.48h.26l.18.02h.01l.02.04s.03.04.03.08v.03s.01.01.01.01v.02h.02l-.02.03s-.02.05-.04.06Z"/>
      <path class="cls-1" d="M14.15,3.98c-.17-.02-.33-.02-.48-.02-.29,0-.51.02-.51.02,0,0,.01,0,.04-.01.1,0,.37-.03.7,0,.08,0,.16,0,.25.02Z"/>
      <path class="cls-1" d="M14.32,3.88l-.02.03s.01-.02.01-.03h.01Z"/>
      <polygon class="cls-1" points="13.23 6.6 13.1 6.6 13.1 4.66 13.23 4.46 13.3 4.51 13.23 4.66 13.23 6.6"/>
      <path class="cls-1" d="M17.71,5.13l.1.16.13-.08-.04-.06c.08.09.2.11.31.05.11-.07.15-.22.07-.33-.07-.11-.22-.15-.33-.08-.1.06-.13.19-.09.29l-.02-.04-.13.08Z"/>
      <path class="cls-1" d="M18.38,6.2c-.12-.01-.22.07-.25.18v-.05s-.15-.02-.15-.02l-.02.19.15.02v-.07c.01.11.1.21.22.23.13.01.25-.08.26-.21.02-.13-.08-.25-.21-.26"/>
      <path class="cls-1" d="M17.39,7.3l-.7,1.63h.14c.11-.2.3-.35.3-.35.24-.23.38-.04.38-.04l.15-.39c-.12.1-.24-.05-.24-.05-.1-.18,0-.64,0-.64l-.03-.16Z"/>
      <path class="cls-1" d="M9.09,5.19c.1.06.23.04.3-.05l-.03.06.13.08.1-.16-.13-.08-.02.04c.04-.11.01-.23-.09-.29-.11-.07-.26-.03-.33.08-.07.11-.04.26.08.33"/>
      <path class="cls-1" d="M9.17,6.45v.07s.16-.02.16-.02l-.02-.19-.15.02v.05c-.02-.11-.13-.19-.25-.18-.13.01-.23.13-.21.26.01.13.13.23.26.21.12-.01.2-.11.21-.23"/>
      <path class="cls-1" d="M18.11,5.7c.02.12.11.21.23.21.13,0,.24-.11.24-.24s-.11-.24-.24-.24c-.12,0-.21.09-.23.2v-.05h-.15v.15c-.09-.43-.36-.73-.57-.91l.1-.11-.05-.05c.1.06.23.05.31-.04.08-.1.07-.25-.03-.34-.1-.09-.25-.07-.34.03-.07.09-.07.22.01.31l-.04-.03-.1.11.06.05-.16-.1c-.09-.04-.16-.07-.25-.1l.04-.15-.06-.02c.11.02.22-.05.25-.17.04-.12-.04-.26-.17-.29-.12-.03-.26.04-.29.17-.03.11.03.23.14.28l-.05-.02-.04.15c-.19-.04-.36-.06-.51-.05v-.15h-.07c.11-.01.2-.11.2-.23,0-.13-.1-.24-.24-.24-.13,0-.24.11-.24.24,0,.12.09.22.21.23h-.05v.16h.06c-.22.02-.39.07-.52.12l-.03-.12-.07.02c.11-.06.16-.17.13-.29-.04-.12-.17-.19-.3-.15-.12.03-.2.17-.16.29.04.11.13.17.24.17h-.02s.04.16.04.16h.02s-.02.01-.02.01c-.19.09-.38.14-.55.18l-.04-.14-.07.02c.11-.05.17-.16.14-.28-.03-.13-.16-.2-.29-.17-.13.03-.21.16-.17.29.03.12.14.19.25.17l-.04.02.03.13c-.25.05-.43.05-.43.05v.2s.66,0,1.26-.29h0s.01-.01.01-.01c.02-.02.7-.42,1.57,0,.02,0,.8.45.72,1.3h-.01s.01.02.01.02c0,0,.03.39-.18.79l-.09.14s.25.32.21.66c0,0-.02.65-.32.97,0,0-.43.79-1.18.19,0,0-.49-.41-.06-.83,0,0,.26-.16.36.08,0,0,.04.17-.08.22,0,0,.32.1.45-.22,0,0,.15-.39-.33-.49,0,0-.31.04-.25-.19,0,0,.15-.5-.07-.82,0,0-.32.13-.42.69,0,0,0,.28-.26.1-.51-.15-.53.18-.53.18-.11.36.29.53.29.53-.04-.15.01-.28.01-.28.19-.15.34.09.34.09-.04.51-.3.7-.3.7-.26.28-.58.22-.58.22-.36-.02-.39-.09-.39-.09-.61-.42-.47-.85-.47-.85.09,0,.2.04.2.04.38.13.57.47.57.47v.19h.11v-1.65h-.13c-.02.48-.53.56-.53.56h-.24v-.3c.07-.32.45-.49.45-.49h.18v-.17h-1.78v.17h.19s.38.17.45.49v.3h-.24s-.51-.08-.53-.56h-.13v1.65h.11v-.19s.19-.34.56-.47c0,0,.12-.04.21-.04,0,0,.13.43-.47.85,0,0-.03.07-.39.09,0,0-.32.06-.58-.22,0,0-.27-.19-.3-.7,0,0,.15-.24.33-.09,0,0,.06.13.02.28,0,0,.4-.17.28-.53,0,0-.01-.33-.52-.18-.26.18-.26-.1-.26-.1-.1-.56-.42-.69-.42-.69-.22.32-.07.82-.07.82.05.23-.25.19-.25.19-.49.1-.34.49-.34.49.14.32.46.22.46.22-.12-.05-.08-.22-.08-.22.09-.24.36-.08.36-.08.43.42-.06.83-.06.83-.75.6-1.18-.19-1.18-.19-.3-.32-.32-.97-.32-.97-.04-.34.2-.66.2-.66l-.08-.14c-.21-.4-.18-.79-.18-.79v-.02c-.09-.85.69-1.29.72-1.3.86-.41,1.54-.01,1.57,0h.01c.6.3,1.23.3,1.26.3v-.2s-.19,0-.44-.05l.04-.13-.04-.02c.11.02.22-.05.25-.17.03-.13-.04-.26-.17-.29-.13-.03-.26.04-.29.17-.03.12.03.23.13.28l-.06-.02-.04.14c-.17-.04-.36-.09-.55-.18l-.02-.02h.02s.04-.14.04-.14h-.02c.11-.01.2-.07.24-.18.03-.12-.04-.26-.16-.29-.13-.04-.26.03-.3.15-.04.12.02.23.13.29l-.07-.02-.04.12c-.12-.05-.3-.1-.51-.12h.06v-.16h-.05c.11-.01.2-.11.2-.23,0-.13-.11-.24-.24-.24s-.23.11-.23.24c0,.12.08.22.2.23h-.07v.15c-.16-.01-.33.01-.51.05l-.04-.15-.05.02c.11-.05.17-.17.14-.28-.04-.13-.17-.2-.3-.17-.12.03-.2.17-.16.29.03.12.14.19.25.17l-.06.02.04.15c-.08.03-.16.06-.25.1l-.16.1.06-.05-.1-.11-.04.03c.08-.09.08-.22.01-.31-.09-.1-.24-.12-.34-.03-.1.09-.12.24-.03.34.08.09.21.1.31.04l-.06.05.1.11c-.2.18-.47.48-.56.91v-.15h-.15v.05c-.02-.11-.12-.2-.24-.2-.13,0-.23.11-.23.24s.1.24.24.24c.11,0,.21-.09.23-.21v.07h.14c-.02.11-.02.23-.01.37,0,.03-.02.26.07.56l-.07.29c-.05-.08-.14-.13-.23-.11-.13.03-.22.15-.19.28.02.13.15.22.28.19l.07-.04-.09.35.83,2.07s.06-.03.1-.03c.12,0,.21.09.21.21,0,.11-.07.19-.17.2l.12.29s1.24-.52,3.35-.54h.09c2.1.02,3.34.54,3.34.54l.12-.29c-.1-.02-.17-.1-.17-.2,0-.12.1-.21.22-.21.04,0,.07.01.1.03l.82-2.07-.08-.35.07.04c.13.03.26-.06.28-.19.03-.13-.06-.25-.19-.28-.1-.02-.18.03-.24.11l-.06-.29c.09-.3.07-.53.07-.56.01-.14,0-.26-.02-.37h.15v-.07ZM12.06,9.71l-.59.08c-.14.01-.26-.07-.28-.18-.01-.12.09-.23.22-.25l.6-.07c.13-.02.26.06.27.18.02.12-.08.22-.22.24ZM13.67,9.66l-.35-.34.35-.35.34.35-.34.34ZM15.84,9.79l-.59-.08c-.14-.02-.24-.12-.23-.24.02-.12.14-.2.28-.18l.59.07c.14.02.24.13.23.25-.02.11-.14.19-.28.18Z"/>
      <path class="cls-1" d="M9.65,8.15l.15.39s.14-.19.38.04c0,0,.19.15.3.35h.14l-.7-1.63-.03.16s.1.46,0,.64c0,0-.11.15-.24.05"/>
      <path class="cls-1" d="M14.31,3.88s0,.02-.01.03l.02-.03h-.01ZM13.9,3.96c-.33-.02-.6,0-.7,0-.03.01-.04.01-.04.01,0,0,.22-.02.51-.02.15,0,.31,0,.48.02-.09-.01-.17-.02-.25-.02Z"/>
      <path class="cls-1" d="M13.36,4.39v2.21h.59v-2.21h-.59ZM13.66,4.4c.09,0,.17.07.18.16,0,.01,0,.02,0,.03,0,.05-.02.1-.06.13-.03.04-.09.06-.14.06-.03,0-.05,0-.08-.02-.06-.03-.1-.1-.1-.17v-.03c.02-.09.09-.16.19-.16ZM13.66,6.53c-.11,0-.19-.08-.19-.19,0-.1.08-.19.19-.19.1,0,.19.09.19.19,0,.11-.09.19-.19.19ZM13.66,6.09c-.11,0-.19-.08-.19-.19,0-.1.08-.19.19-.19.1,0,.19.09.19.19,0,.11-.09.19-.19.19ZM13.66,5.65c-.11,0-.19-.08-.19-.18,0-.11.08-.19.19-.19.1,0,.19.08.19.19,0,.1-.09.18-.19.18ZM13.66,5.22c-.11,0-.19-.09-.19-.19,0-.11.08-.19.19-.19.1,0,.19.08.19.19,0,.1-.09.19-.19.19Z"/>
      <path class="cls-1" d="M17.2,9.67c-.13,0-.24.11-.24.24s.11.24.24.24.24-.11.24-.24-.11-.24-.24-.24M17.39,9.91c0,.1-.08.19-.19.19s-.19-.08-.19-.19.08-.19.19-.19.19.08.19.19"/>
      <path class="cls-1" d="M13.65,4.33c-.13,0-.24.11-.24.24s.11.24.24.24.24-.11.24-.24-.11-.24-.24-.24M13.84,4.57c0,.1-.08.19-.19.19s-.19-.09-.19-.19.08-.19.19-.19.19.09.19.19"/>
      <path class="cls-1" d="M10.1,9.72c.1,0,.19.08.19.19s-.08.19-.19.19-.19-.08-.19-.19.09-.19.19-.19M9.86,9.91c0,.13.11.24.24.24s.24-.11.24-.24-.11-.24-.24-.24-.24.11-.24.24"/>
      <path class="cls-1" d="M26.99,0H0v34.91h27.17V0h-.18ZM26.99,34.56H.18l.17.18V.18l-.17.18h26.82l-.18-.18v34.56l.18-.18Z"/>
      <path class="cls-1" d="M3.79,29.19c-.03.2-.05.4-.06.59-.01.2-.03.39-.04.59h-.06s-.06-.01-.06-.01h-.06s-.06.01-.06.01c.06-.3.11-.6.15-.9.04-.3.08-.6.12-.9h.05s.05.01.05.01h.1c.05.09.1.2.15.3.05.11.1.22.16.32.05.11.1.21.15.31.05.1.1.2.15.29.1-.19.21-.4.31-.61.1-.21.2-.42.3-.63h.11s.11,0,.11,0c.02.15.04.31.06.48.02.17.04.34.06.5.02.16.04.32.06.46.02.14.04.26.05.35h-.11s-.1-.01-.1-.01h-.11s-.11.01-.11.01c0-.18-.02-.38-.04-.59-.02-.21-.04-.42-.06-.62h0c-.1.2-.2.4-.29.6-.1.2-.19.4-.28.6h-.02s-.02,0-.02,0h-.02s-.02,0-.02,0c-.09-.2-.19-.4-.28-.59-.09-.2-.19-.39-.29-.59h0Z"/>
      <path class="cls-1" d="M6.96,29.69c-.04-.1-.08-.21-.11-.31-.04-.1-.08-.21-.12-.31-.04.1-.09.2-.13.31-.04.1-.08.21-.12.31h.48ZM6.93,28.57c.05.15.11.31.18.47.06.17.13.33.19.49.07.16.13.32.19.46.06.15.12.27.17.38h-.12s-.11-.01-.11-.01h-.11s-.11.01-.11.01l-.09-.27c-.03-.09-.06-.18-.09-.27h-.17s-.17,0-.17,0h-.13s-.13,0-.13,0l-.1.27c-.03.09-.06.18-.08.27h-.06s-.06-.01-.06-.01h-.06s-.07.01-.07.01l.08-.2c.03-.08.07-.17.11-.27.04-.1.09-.21.14-.32.05-.11.1-.23.14-.35.05-.12.09-.23.14-.35.05-.12.09-.22.12-.32h.05s.05.01.05.01h.05s.05-.01.05-.01Z"/>
      <path class="cls-1" d="M8.23,29.1c0-.12,0-.22,0-.3v-.22s.11.01.11.01h.12c.19.2.38.4.56.61.19.21.37.41.57.62v-.73s0-.23,0-.23v-.18s-.01-.1-.01-.1h.12s.12,0,.12,0c0,.13-.01.24-.02.35,0,.11,0,.21-.01.3,0,.1,0,.18,0,.27,0,.09,0,.18,0,.27,0,.09,0,.19,0,.28v.32h-.05s-.05-.01-.05-.01h-.1c-.18-.2-.36-.41-.55-.62-.19-.21-.38-.42-.58-.63,0,.1,0,.2,0,.3v.3c0,.11,0,.19,0,.27v.18s0,.12,0,.12v.08s-.06,0-.06,0h-.06s-.12,0-.12,0v-.08s.02-.16.02-.16v-.22c.02-.08.02-.17.02-.26,0-.09,0-.18,0-.28,0-.09,0-.18,0-.27"/>
      <path class="cls-1" d="M11.24,29.69c-.04-.1-.08-.21-.11-.31-.04-.1-.08-.21-.12-.31-.05.1-.09.2-.13.31-.04.1-.08.21-.12.31h.48ZM11.21,28.57c.06.15.11.31.18.47.06.17.12.33.19.49.06.16.12.32.19.46.06.15.12.27.17.38h-.12s-.11-.01-.11-.01h-.11s-.11.01-.11.01l-.08-.27c-.03-.09-.06-.18-.09-.27h-.17s-.17,0-.17,0h-.14s-.13,0-.13,0l-.1.27c-.03.09-.06.18-.08.27h-.06s-.06-.01-.06-.01h-.06s-.07.01-.07.01l.08-.2c.03-.08.07-.17.11-.27.04-.1.09-.21.14-.32.05-.11.1-.23.14-.35.05-.12.09-.23.14-.35.05-.12.09-.22.13-.32h.05s.05.01.05.01h.05s.05-.01.05-.01Z"/>
      <path class="cls-1" d="M13.84,28.97l-.21-.19c-.08-.05-.18-.07-.3-.07l-.24.05-.21.15c-.06.07-.11.15-.15.25s-.06.22-.06.36c0,.11.01.2.04.29l.12.23.2.15c.08.04.17.06.27.06h.08s.08-.01.08-.01h.07s.05-.04.05-.04v-.08s0-.1,0-.1c0-.14,0-.24,0-.31v-.14s.06,0,.06,0h.12s.14,0,.14,0h.07s-.01.06-.01.06v.11s-.01.13-.01.13v.13s0,.09,0,.09v.08s0,.07,0,.07v.05c-.11.03-.23.06-.34.08-.12.02-.23.03-.35.03-.15,0-.29-.02-.41-.06-.12-.04-.23-.1-.33-.18-.09-.08-.16-.17-.21-.27-.05-.11-.08-.23-.08-.36,0-.16.03-.31.08-.43.05-.12.13-.23.23-.31.1-.08.21-.14.34-.19.13-.04.27-.06.43-.06.13,0,.25.01.34.04.1.03.19.07.29.12l-.04.13-.03.13h-.04Z"/>
      <path class="cls-1" d="M14.64,29.3v-.2s0-.18,0-.18v-.17s-.01-.17-.01-.17h.23s.23.01.23.01h.34s.12,0,.12,0h.08s0,.04,0,.04v.06s0,.07,0,.07v.05s-.16-.01-.16-.01h-.17s-.15-.02-.15-.02h-.1c0,.09-.01.19-.01.28,0,.09,0,.19,0,.28.11,0,.22,0,.31,0,.09,0,.19,0,.28-.01v.07s-.01.05-.01.05v.04s.01.06.01.06c-.2-.02-.39-.02-.59-.02v.17s0,.17,0,.17c0,.11,0,.22,0,.33.1,0,.2,0,.3,0,.1,0,.2-.01.3-.02v.05s-.01.07-.01.07v.07s.01.05.01.05h-.17c-.07-.01-.16-.01-.28-.01-.11,0-.19,0-.26,0h-.15s-.09,0-.09,0h-.05s0-.16,0-.16v-.17s0-.18,0-.18v-.2s0-.35,0-.35Z"/>
      <path class="cls-1" d="M16.46,29.19c-.03.2-.05.4-.06.59-.01.2-.03.39-.04.59h-.06s-.06-.01-.06-.01h-.06s-.06.01-.06.01c.06-.3.1-.6.15-.9s.08-.6.12-.9h.05s.05.01.05.01h.1c.05.09.1.2.15.3.05.11.1.22.15.32.05.11.1.21.15.31.05.1.1.2.15.29.1-.19.21-.4.31-.61.1-.21.2-.42.29-.63h.11s.11,0,.11,0c.02.15.04.31.06.48.02.17.04.34.06.5.02.16.04.32.06.46.02.14.04.26.05.35h-.1s-.11-.01-.11-.01h-.11s-.11.01-.11.01c0-.18-.02-.38-.04-.59-.02-.21-.04-.42-.06-.62h0c-.1.2-.2.4-.29.6-.1.2-.19.4-.28.6h-.02s-.02,0-.02,0h-.02s-.02,0-.02,0c-.09-.2-.19-.4-.28-.59-.09-.2-.19-.39-.29-.59h0Z"/>
      <path class="cls-1" d="M18.82,29.3v-.2s0-.18,0-.18v-.17s-.01-.17-.01-.17h.23s.23.01.23.01h.34s.12,0,.12,0h.08s0,.04,0,.04v.06s0,.07,0,.07v.05s-.16-.01-.16-.01h-.17s-.15-.02-.15-.02h-.1c0,.09-.01.19-.01.28,0,.09,0,.19,0,.28.11,0,.22,0,.31,0,.09,0,.19,0,.29-.01v.07s-.01.05-.01.05v.04s.01.06.01.06c-.2-.02-.39-.02-.59-.02v.17s0,.17,0,.17c0,.11,0,.22,0,.33.1,0,.2,0,.3,0,.1,0,.2-.01.3-.02v.05s-.01.07-.01.07v.07s.01.05.01.05h-.17c-.07-.01-.16-.01-.28-.01-.11,0-.19,0-.26,0h-.15s-.09,0-.09,0h-.05s0-.16,0-.16v-.17s0-.18,0-.18v-.2s0-.35,0-.35Z"/>
      <path class="cls-1" d="M20.46,29.1c0-.12,0-.22,0-.3v-.22s.11.01.11.01h.12c.19.2.38.4.56.61.19.21.37.41.57.62v-.73s0-.23,0-.23v-.18s-.01-.1-.01-.1h.12s.12,0,.12,0c0,.13-.01.24-.02.35,0,.11,0,.21-.01.3,0,.1,0,.18,0,.27,0,.09,0,.18,0,.27,0,.09,0,.19,0,.28v.32h-.05s-.05-.01-.05-.01h-.1c-.18-.2-.36-.41-.55-.62-.19-.21-.38-.42-.58-.63,0,.1,0,.2,0,.3v.3c0,.11,0,.19,0,.27v.18s.01.12.01.12v.08s-.06,0-.06,0h-.06s-.12,0-.12,0v-.08s.02-.16.02-.16v-.22c.02-.08.02-.17.02-.26,0-.09,0-.18,0-.28,0-.09,0-.18,0-.27"/>
      <polygon class="cls-1" points="23.05 29 23.05 28.87 23.04 28.77 22.95 28.78 22.83 28.79 22.69 28.79 22.57 28.81 22.58 28.75 22.58 28.69 22.58 28.64 22.57 28.58 22.73 28.58 22.87 28.59 23.03 28.59 23.25 28.59 23.45 28.59 23.61 28.59 23.75 28.58 23.91 28.58 23.9 28.64 23.89 28.69 23.9 28.75 23.91 28.81 23.79 28.79 23.66 28.79 23.54 28.78 23.44 28.77 23.44 28.87 23.44 29 23.44 29.65 23.44 29.86 23.44 30.04 23.45 30.21 23.46 30.37 23.36 30.36 23.25 30.36 23.13 30.36 23.03 30.37 23.04 30.21 23.05 30.04 23.05 29.86 23.05 29.65 23.05 29"/>
      <path class="cls-1" d="M8.52,31.53c-.06-.15-.16-.22-.32-.22l-.2.07-.07.16.06.16.15.11.19.09.19.11.15.16c.04.06.06.14.06.24l-.05.24-.14.19-.22.12c-.08.03-.18.04-.28.04-.09,0-.18-.01-.25-.03l-.17-.08.04-.17.03-.16h.05l.04.11.07.09.11.06.14.02c.1,0,.18-.03.23-.08l.07-.19-.06-.16-.14-.11-.19-.09-.19-.11-.14-.16c-.04-.06-.06-.15-.06-.24,0-.09.02-.17.05-.24l.13-.17.19-.11.22-.04c.1,0,.18.01.25.03l.18.09-.04.11-.04.14h-.04Z"/>
      <path class="cls-1" d="M10.03,31.96l.1-.17.1-.2.1-.21.09-.2h.06s.06.01.06.01h.06s.06-.01.06-.01l-.11.19c-.04.08-.09.16-.14.26s-.1.19-.15.28c-.05.1-.1.18-.14.27v.13s0,.13,0,.13v.26c0,.09.01.18.03.28h-.11s-.11-.01-.11-.01h-.11s-.11.01-.11.01l.02-.25v-.25s.01-.12.01-.12v-.12s-.1-.19-.1-.19l-.11-.21-.11-.21-.1-.19-.08-.16-.06-.11h.12s.12.01.12.01h.12s.12-.01.12-.01l.1.21.11.23.1.2.08.13h0Z"/>
      <path class="cls-1" d="M11.98,31.53c-.06-.15-.16-.22-.31-.22l-.2.07-.08.16.06.16.15.11.19.09.19.11.15.16c.04.06.06.14.06.24l-.05.24-.14.19-.22.12c-.08.03-.18.04-.28.04-.09,0-.18-.01-.25-.03l-.17-.08.04-.17.03-.16h.05l.04.11.07.09.11.06.14.02c.1,0,.18-.03.23-.08l.08-.19-.06-.16-.14-.11-.19-.09-.19-.11-.14-.16c-.04-.06-.06-.15-.06-.24,0-.09.02-.17.05-.24l.13-.17.18-.11.22-.04c.09,0,.17.01.25.03l.18.09-.04.11-.04.14h-.04Z"/>
      <polygon class="cls-1" points="13.11 31.6 13.11 31.47 13.1 31.37 13.01 31.38 12.88 31.38 12.75 31.39 12.62 31.41 12.63 31.35 12.64 31.29 12.63 31.24 12.62 31.18 12.79 31.19 12.93 31.19 13.09 31.19 13.3 31.19 13.51 31.19 13.67 31.19 13.81 31.19 13.96 31.18 13.95 31.24 13.95 31.29 13.95 31.35 13.96 31.41 13.85 31.39 13.72 31.38 13.6 31.38 13.5 31.37 13.49 31.47 13.49 31.6 13.49 32.25 13.5 32.46 13.5 32.64 13.51 32.81 13.52 32.97 13.42 32.97 13.3 32.96 13.18 32.97 13.09 32.97 13.1 32.81 13.1 32.64 13.11 32.46 13.11 32.25 13.11 31.6"/>
      <path class="cls-1" d="M14.51,31.9v-.38s-.01-.17-.01-.17v-.17s.22,0,.22,0h.23s.18,0,.18,0h.16s.12,0,.12,0h.08s0,.04,0,.04v.06s0,.06,0,.06v.05s-.16,0-.16,0h-.17s-.15-.02-.15-.02h-.1c0,.09,0,.19-.01.28,0,.09,0,.19,0,.28.11,0,.21,0,.31,0,.09,0,.19,0,.29-.01v.07s-.01.05-.01.05v.04s.01.06.01.06c-.2-.02-.39-.02-.59-.02v.17s0,.17,0,.17c0,.11,0,.22,0,.33.1,0,.2,0,.3,0,.1,0,.2-.01.3-.03v.05s-.01.07-.01.07v.07s.01.05.01.05h-.17c-.07-.01-.16-.01-.28-.01-.11,0-.19,0-.26,0h-.16s-.09,0-.09,0h-.05s0-.16,0-.16v-.17s.01-.18.01-.18v-.56Z"/>
      <path class="cls-1" d="M16.33,31.79c-.03.2-.05.39-.06.59-.02.2-.03.39-.04.59h-.06s-.06-.01-.06-.01h-.06s-.06.01-.06.01c.05-.3.1-.6.15-.9.04-.29.08-.6.12-.9h.05s.05.01.05.01h.1c.05.09.1.2.15.3.05.11.1.22.16.32.05.11.1.21.15.31.05.1.1.2.15.29.11-.19.21-.4.31-.61.1-.21.2-.42.29-.63h.11s.11,0,.11,0c.02.15.04.31.05.48.02.17.04.34.06.5.02.16.04.32.06.46.02.14.04.26.05.35h-.1s-.11-.01-.11-.01h-.11s-.11.01-.11.01c0-.18-.02-.38-.04-.59-.02-.21-.04-.42-.06-.62h0c-.1.2-.2.4-.29.6-.1.2-.19.4-.29.6h-.02s-.02,0-.02,0h-.03s-.02,0-.02,0c-.1-.2-.19-.4-.28-.59-.09-.2-.19-.39-.29-.59h0Z"/>
      <path class="cls-1" d="M19.49,31.53c-.06-.15-.16-.22-.31-.22l-.2.07-.08.16.06.16.15.11.19.09.19.11.15.16c.04.06.06.14.06.24l-.05.24-.14.19-.22.12c-.08.03-.18.04-.28.04-.09,0-.18-.01-.25-.03l-.17-.08.05-.17.03-.16h.05l.04.11.07.09.11.06.14.02c.1,0,.18-.03.23-.08l.08-.19-.06-.16-.14-.11-.19-.09-.19-.11-.14-.16c-.04-.06-.06-.15-.06-.24,0-.09.02-.17.05-.24l.13-.17.18-.11.22-.04c.09,0,.17.01.25.03l.18.09-.04.11-.04.14h-.04Z"/>
    </g>
  </g>
</svg>