<?xml version="1.0" encoding="UTF-8"?>
<svg id="_레이어_2" data-name="레이어 2" xmlns="http://www.w3.org/2000/svg" viewBox="0 0 39.41 39.41">
  <defs>
    <style>
      .cls-1 {
        fill: #26b7bc;
      }

      .cls-1, .cls-2, .cls-3 {
        stroke-width: 0px;
      }

      .cls-2 {
        fill: #fff;
      }

      .cls-4 {
        fill: none;
        stroke: #26b7bc;
        stroke-width: .03px;
      }

      .cls-3 {
        fill: #f8b62d;
      }
    </style>
  </defs>
  <g id="_레이어_1-2" data-name="레이어 1">
    <g>
      <path class="cls-2" d="M38.79,19.67c0,10.54-8.54,19.08-19.08,19.08S.64,30.21.64,19.67,9.18.6,19.71.6s19.08,8.54,19.08,19.08"/>
      <path class="cls-1" d="M9.3,10.31v-2.79h.4v2.47c0,.11-.01.19-.04.24l-.15.08h-.21ZM9.29,12.32v-1.22l-.05-.07h-1.81v-.46h1.96l.22.09c.06.06.08.15.08.27v1.07c0,.11-.01.19-.04.24l-.14.07h-.21ZM7.91,8.52c0,.14.02.27.07.39.05.12.11.23.2.34.08.1.18.2.29.29.11.09.23.18.35.26l-.23.34-.23-.17-.24-.22-.22-.24-.18-.24c-.09.16-.21.33-.35.5-.15.17-.32.33-.52.47l-.26-.35c.11-.07.22-.16.33-.26.11-.1.21-.21.29-.33.09-.12.16-.25.21-.38s.08-.28.08-.42v-.93h.26l.12.06.03.17v.7Z"/>
      <path class="cls-4" d="M9.3,10.31v-2.79h.4v2.47c0,.11-.01.19-.04.24l-.15.08h-.21ZM9.29,12.32v-1.22l-.05-.07h-1.81v-.46h1.96l.22.09c.06.06.08.15.08.27v1.07c0,.11-.01.19-.04.24l-.14.07h-.21ZM7.91,8.52c0,.14.02.27.07.39.05.12.11.23.2.34.08.1.18.2.29.29.11.09.23.18.35.26l-.23.34-.23-.17-.24-.22-.22-.24-.18-.24c-.09.16-.21.33-.35.5-.15.17-.32.33-.52.47l-.26-.35c.11-.07.22-.16.33-.26.11-.1.21-.21.29-.33.09-.12.16-.25.21-.38s.08-.28.08-.42v-.93h.26l.12.06.03.17v.7Z"/>
      <path class="cls-1" d="M12.05,8.89l.09-.05.02-.16v-.67h-1.02v.68l.02.15.09.05h.79ZM12.28,11.88l.13-.03.05-.15v-.62h-1.6v.68l.08.12h1.34ZM10.74,8.01h-.41v-.44h2.64v.44h-.41v.78s-.03.11-.03.11h.52v.2c0,.16-.06.24-.17.24h-2.62v-.44h.51l-.02-.11v-.12s0-.66,0-.66ZM9.99,9.7h3.32v.22c0,.16-.06.24-.17.24h-1.29v.47h1v1.04c0,.21-.04.38-.12.49-.08.12-.2.17-.37.17h-1.57c-.09,0-.17-.04-.24-.13-.07-.09-.1-.22-.1-.38v-1.19h1v-.47h-1.47v-.46Z"/>
      <path class="cls-4" d="M12.05,8.89l.09-.05.02-.16v-.67h-1.02v.68l.02.15.09.05h.79ZM12.28,11.88l.13-.03.05-.15v-.62h-1.6v.68l.08.12h1.34ZM10.74,8.01h-.41v-.44h2.64v.44h-.41v.78s-.03.11-.03.11h.52v.2c0,.16-.06.24-.17.24h-2.62v-.44h.51l-.02-.11v-.12s0-.66,0-.66ZM9.99,9.7h3.32v.22c0,.16-.06.24-.17.24h-1.29v.47h1v1.04c0,.21-.04.38-.12.49-.08.12-.2.17-.37.17h-1.57c-.09,0-.17-.04-.24-.13-.07-.09-.1-.22-.1-.38v-1.19h1v-.47h-1.47v-.46Z"/>
      <path class="cls-1" d="M15.68,11v-3.48h.4v1.23h.5v.46h-.5v1.51c0,.11-.01.18-.03.22l-.14.06h-.23ZM14.24,12.32c-.09,0-.17-.04-.22-.11-.06-.07-.09-.17-.09-.29v-1.17h.41v1l.05.1h1.78v.26c0,.14-.06.21-.17.21h-1.76ZM13.72,8.91c0,.13.02.25.05.35.03.1.07.18.12.25l.18.15.2.05.22-.06.17-.16c.05-.07.08-.16.11-.25.03-.1.04-.21.04-.32s-.01-.23-.04-.32c-.03-.1-.07-.18-.12-.25l-.17-.16-.21-.06-.22.06-.17.17c-.05.07-.09.15-.12.25-.03.1-.04.2-.04.31M13.32,8.91c0-.2.02-.38.07-.53.05-.15.12-.29.2-.39.08-.11.18-.19.3-.24.11-.06.24-.08.38-.08s.26.03.37.08c.11.06.21.14.3.24.08.11.15.24.2.39.05.15.07.33.08.53,0,.19-.02.37-.07.52-.05.16-.11.29-.2.4-.08.11-.18.19-.3.25-.12.06-.24.09-.37.09s-.25-.03-.37-.08c-.11-.06-.22-.14-.3-.24-.09-.11-.15-.24-.2-.39-.05-.16-.08-.34-.08-.54"/>
      <path class="cls-4" d="M15.68,11v-3.48h.4v1.23h.5v.46h-.5v1.51c0,.11-.01.18-.03.22l-.14.06h-.23ZM14.24,12.32c-.09,0-.17-.04-.22-.11-.06-.07-.09-.17-.09-.29v-1.17h.41v1l.05.1h1.78v.26c0,.14-.06.21-.17.21h-1.76ZM13.72,8.91c0,.13.02.25.05.35.03.1.07.18.12.25l.18.15.2.05.22-.06.17-.16c.05-.07.08-.16.11-.25.03-.1.04-.21.04-.32s-.01-.23-.04-.32c-.03-.1-.07-.18-.12-.25l-.17-.16-.21-.06-.22.06-.17.17c-.05.07-.09.15-.12.25-.03.1-.04.2-.04.31ZM13.32,8.91c0-.2.02-.38.07-.53.05-.15.12-.29.2-.39.08-.11.18-.19.3-.24.11-.06.24-.08.38-.08s.26.03.37.08c.11.06.21.14.3.24.08.11.15.24.2.39.05.15.07.33.08.53,0,.19-.02.37-.07.52-.05.16-.11.29-.2.4-.08.11-.18.19-.3.25-.12.06-.24.09-.37.09s-.25-.03-.37-.08c-.11-.06-.22-.14-.3-.24-.09-.11-.15-.24-.2-.39-.05-.16-.08-.34-.08-.54Z"/>
      <path class="cls-1" d="M19.18,11v-1.92h-.76v-.47h.76v-1.09h.41v3.18c0,.11-.01.18-.04.23l-.14.07h-.23ZM17.68,12.32c-.09,0-.17-.04-.23-.11-.06-.07-.09-.17-.09-.29v-1.18h.41v1.01l.05.1h1.85v.26l-.04.15-.12.05h-1.84ZM16.74,7.67h1.81v.21l-.06.19-.13.05h-.52v.68c0,.13.03.26.09.38s.13.23.22.32c.09.1.18.19.29.27.1.08.2.14.28.19l-.25.36-.22-.16-.22-.2-.21-.23-.17-.24c-.05.09-.11.18-.18.27-.07.09-.14.18-.22.27l-.24.23-.24.16-.25-.35c.13-.08.25-.17.37-.27.11-.1.21-.21.29-.32.08-.11.14-.23.19-.35.05-.12.07-.24.07-.35v-.68h-.69v-.45Z"/>
      <path class="cls-4" d="M19.18,11v-1.92h-.76v-.47h.76v-1.09h.41v3.18c0,.11-.01.18-.04.23l-.14.07h-.23ZM17.68,12.32c-.09,0-.17-.04-.23-.11-.06-.07-.09-.17-.09-.29v-1.18h.41v1.01l.05.1h1.85v.26l-.04.15-.12.05h-1.84ZM16.74,7.67h1.81v.21l-.06.19-.13.05h-.52v.68c0,.13.03.26.09.38s.13.23.22.32c.09.1.18.19.29.27.1.08.2.14.28.19l-.25.36-.22-.16-.22-.2-.21-.23-.17-.24c-.05.09-.11.18-.18.27-.07.09-.14.18-.22.27l-.24.23-.24.16-.25-.35c.13-.08.25-.17.37-.27.11-.1.21-.21.29-.32.08-.11.14-.23.19-.35.05-.12.07-.24.07-.35v-.68h-.69v-.45Z"/>
      <path class="cls-1" d="M22.23,11.05v-3.53h.4v1.52h.5v.46h-.5v1.25c0,.2-.07.3-.2.3h-.2ZM20.76,12.32c-.09,0-.17-.04-.22-.11-.06-.08-.09-.17-.09-.29v-1.17h.4v1.01s.05.1.05.1h1.83v.26l-.04.15-.12.05h-1.81ZM20.01,8.2v-.46h1.55l.19.1c.04.07.06.15.06.24v.07c0,.1,0,.21-.02.34-.01.13-.03.25-.05.38-.02.13-.05.25-.08.37-.03.12-.07.22-.11.3l-.31-.13c.05-.18.09-.37.12-.56s.04-.38.04-.58v-.06s-.05-.02-.05-.02h-1.35ZM19.79,9.9h.56v-1.06h.39v1.06h.32c.17,0,.33,0,.49-.03.16-.02.33-.06.53-.13v.26l-.04.16-.11.08c-.1.04-.26.07-.46.09-.21.02-.44.02-.7.02h-.98v-.46Z"/>
      <path class="cls-4" d="M22.23,11.05v-3.53h.4v1.52h.5v.46h-.5v1.25c0,.2-.07.3-.2.3h-.2ZM20.76,12.32c-.09,0-.17-.04-.22-.11-.06-.08-.09-.17-.09-.29v-1.17h.4v1.01s.05.1.05.1h1.83v.26l-.04.15-.12.05h-1.81ZM20.01,8.2v-.46h1.55l.19.1c.04.07.06.15.06.24v.07c0,.1,0,.21-.02.34-.01.13-.03.25-.05.38-.02.13-.05.25-.08.37-.03.12-.07.22-.11.3l-.31-.13c.05-.18.09-.37.12-.56s.04-.38.04-.58v-.06s-.05-.02-.05-.02h-1.35ZM19.79,9.9h.56v-1.06h.39v1.06h.32c.17,0,.33,0,.49-.03.16-.02.33-.06.53-.13v.26l-.04.16-.11.08c-.1.04-.26.07-.46.09-.21.02-.44.02-.7.02h-.98v-.46Z"/>
      <path class="cls-1" d="M25.69,12.32v-4.8h.4v4.49c0,.11-.02.19-.05.24l-.14.07h-.21ZM23.75,10.48l.02.07.08.02c.25,0,.51-.01.78-.04.27-.02.52-.06.76-.11v.29l-.04.13-.09.05c-.1.02-.22.04-.34.06-.12.02-.25.03-.39.04-.13.01-.27.02-.41.03-.14,0-.28,0-.41,0s-.22-.03-.28-.08c-.06-.05-.08-.17-.08-.34v-1.5h1.12l.06-.03.02-.09v-.8h-1.2v-.46h1.59v1.45c0,.11-.02.2-.07.26-.05.07-.13.1-.23.1h-.89v.92Z"/>
      <path class="cls-4" d="M25.69,12.32v-4.8h.4v4.49c0,.11-.02.19-.05.24l-.14.07h-.21ZM23.75,10.48l.02.07.08.02c.25,0,.51-.01.78-.04.27-.02.52-.06.76-.11v.29l-.04.13-.09.05c-.1.02-.22.04-.34.06-.12.02-.25.03-.39.04-.13.01-.27.02-.41.03-.14,0-.28,0-.41,0s-.22-.03-.28-.08c-.06-.05-.08-.17-.08-.34v-1.5h1.12l.06-.03.02-.09v-.8h-1.2v-.46h1.59v1.45c0,.11-.02.2-.07.26-.05.07-.13.1-.23.1h-.89v.92Z"/>
      <path class="cls-1" d="M28.97,10.98v-3.46h.4v3.13c0,.11-.01.19-.04.25l-.15.09h-.2ZM27.46,12.32c-.09,0-.17-.04-.22-.11s-.08-.17-.08-.29v-1.14h.4v.98l.04.1h1.85v.25l-.04.15-.12.05h-1.83ZM26.92,8.91c0,.13.02.25.05.35.03.1.07.18.12.25l.18.15.2.05.22-.06.17-.16c.05-.07.08-.16.11-.25.03-.1.04-.21.04-.32s-.01-.23-.04-.32c-.03-.1-.07-.18-.12-.25l-.17-.16-.21-.06-.22.06-.17.17c-.05.07-.09.15-.12.25-.03.1-.04.2-.04.31M26.51,8.91c0-.2.02-.38.07-.53.05-.15.12-.29.2-.39.08-.11.18-.19.3-.24.11-.06.24-.08.38-.08s.26.03.37.08c.11.06.21.14.3.24.08.11.15.24.2.39.05.15.07.33.08.53,0,.19-.02.37-.07.52-.05.16-.11.29-.2.4-.08.11-.18.19-.3.25-.12.06-.24.09-.37.09s-.25-.03-.37-.08c-.11-.06-.22-.14-.3-.24-.09-.11-.15-.24-.2-.39-.05-.16-.08-.34-.08-.54"/>
      <path class="cls-4" d="M28.97,10.98v-3.46h.4v3.13c0,.11-.01.19-.04.25l-.15.09h-.2ZM27.46,12.32c-.09,0-.17-.04-.22-.11s-.08-.17-.08-.29v-1.14h.4v.98l.04.1h1.85v.25l-.04.15-.12.05h-1.83ZM26.92,8.91c0,.13.02.25.05.35.03.1.07.18.12.25l.18.15.2.05.22-.06.17-.16c.05-.07.08-.16.11-.25.03-.1.04-.21.04-.32s-.01-.23-.04-.32c-.03-.1-.07-.18-.12-.25l-.17-.16-.21-.06-.22.06-.17.17c-.05.07-.09.15-.12.25-.03.1-.04.2-.04.31ZM26.51,8.91c0-.2.02-.38.07-.53.05-.15.12-.29.2-.39.08-.11.18-.19.3-.24.11-.06.24-.08.38-.08s.26.03.37.08c.11.06.21.14.3.24.08.11.15.24.2.39.05.15.07.33.08.53,0,.19-.02.37-.07.52-.05.16-.11.29-.2.4-.08.11-.18.19-.3.25-.12.06-.24.09-.37.09s-.25-.03-.37-.08c-.11-.06-.22-.14-.3-.24-.09-.11-.15-.24-.2-.39-.05-.16-.08-.34-.08-.54Z"/>
      <path class="cls-1" d="M30.53,11.5l.07.2.18.14c.07.04.16.07.26.09.1.02.2.03.31.03s.2,0,.3-.03c.1-.02.18-.05.25-.09l.18-.14.07-.2-.07-.21-.17-.15c-.07-.04-.16-.07-.25-.09-.1-.02-.19-.03-.3-.03-.11,0-.22.01-.31.03-.1.02-.18.05-.26.09l-.18.15-.07.21ZM30.11,11.5c0-.16.04-.31.11-.43.07-.12.17-.22.28-.3.12-.08.25-.13.39-.17.15-.04.29-.06.44-.06s.29.02.44.06c.14.04.27.1.39.17.11.08.21.18.28.3.07.12.1.26.1.42,0,.15-.03.29-.1.4-.07.12-.16.21-.27.29-.11.07-.24.13-.39.17-.14.04-.3.06-.45.06s-.3-.02-.44-.05c-.15-.03-.28-.08-.39-.16-.12-.07-.21-.17-.28-.28-.07-.12-.11-.26-.11-.43M31.58,8.01c.06.2.2.39.39.58.2.19.46.35.78.46l-.22.38c-.1-.04-.21-.09-.32-.16-.11-.07-.22-.15-.33-.23-.11-.09-.21-.18-.3-.28-.09-.1-.17-.2-.24-.31-.06.11-.14.22-.24.32-.09.1-.19.2-.3.28-.11.08-.22.16-.33.22-.11.07-.22.12-.32.15l-.22-.38c.32-.12.58-.27.77-.45.19-.18.33-.38.41-.59h-.97v-.44h2.4v.2c0,.16-.06.24-.17.24h-.79ZM32.99,9.71v.21c0,.16-.06.24-.17.24h-3.15v-.45h3.32Z"/>
      <path class="cls-4" d="M30.53,11.5l.07.2.18.14c.07.04.16.07.26.09.1.02.2.03.31.03s.2,0,.3-.03c.1-.02.18-.05.25-.09l.18-.14.07-.2-.07-.21-.17-.15c-.07-.04-.16-.07-.25-.09-.1-.02-.19-.03-.3-.03-.11,0-.22.01-.31.03-.1.02-.18.05-.26.09l-.18.15-.07.21ZM30.11,11.5c0-.16.04-.31.11-.43.07-.12.17-.22.28-.3.12-.08.25-.13.39-.17.15-.04.29-.06.44-.06s.29.02.44.06c.14.04.27.1.39.17.11.08.21.18.28.3.07.12.1.26.1.42,0,.15-.03.29-.1.4-.07.12-.16.21-.27.29-.11.07-.24.13-.39.17-.14.04-.3.06-.45.06s-.3-.02-.44-.05c-.15-.03-.28-.08-.39-.16-.12-.07-.21-.17-.28-.28-.07-.12-.11-.26-.11-.43ZM31.58,8.01c.06.2.2.39.39.58.2.19.46.35.78.46l-.22.38c-.1-.04-.21-.09-.32-.16-.11-.07-.22-.15-.33-.23-.11-.09-.21-.18-.3-.28-.09-.1-.17-.2-.24-.31-.06.11-.14.22-.24.32-.09.1-.19.2-.3.28-.11.08-.22.16-.33.22-.11.07-.22.12-.32.15l-.22-.38c.32-.12.58-.27.77-.45.19-.18.33-.38.41-.59h-.97v-.44h2.4v.2c0,.16-.06.24-.17.24h-.79ZM32.99,9.71v.21c0,.16-.06.24-.17.24h-3.15v-.45h3.32Z"/>
      <polygon class="cls-1" points="8.52 14.33 8.52 16.84 10.95 16.84 10.95 14.33 12.43 14.33 12.43 20.87 10.95 20.87 10.95 18.13 8.52 18.13 8.52 20.87 7.03 20.87 7.03 14.33 8.52 14.33"/>
      <path class="cls-1" d="M16.32,18.08l-.41-1.39c-.12-.39-.23-.87-.33-1.26h-.02c-.1.39-.2.88-.3,1.26l-.39,1.39h1.45ZM14.66,19.19l-.47,1.68h-1.53l2-6.54h1.94l2.03,6.54h-1.59l-.51-1.68h-1.87Z"/>
      <path class="cls-1" d="M23.48,20.68c-.27.14-.88.28-1.68.28-2.26,0-3.43-1.41-3.43-3.27,0-2.23,1.59-3.47,3.57-3.47.77,0,1.35.15,1.61.29l-.3,1.18c-.3-.13-.72-.24-1.24-.24-1.17,0-2.09.71-2.09,2.16,0,1.31.78,2.14,2.1,2.14.45,0,.94-.1,1.23-.21l.22,1.15Z"/>
      <path class="cls-1" d="M28.38,20.68c-.27.14-.88.28-1.68.28-2.26,0-3.43-1.41-3.43-3.27,0-2.23,1.59-3.47,3.57-3.47.77,0,1.35.15,1.61.29l-.3,1.18c-.3-.13-.72-.24-1.24-.24-1.17,0-2.09.71-2.09,2.16,0,1.31.78,2.14,2.1,2.14.45,0,.94-.1,1.23-.21l.22,1.15Z"/>
      <path class="cls-1" d="M30.23,17.38c.13.03.28.04.49.04.79,0,1.27-.4,1.27-1.07,0-.6-.42-.96-1.15-.96-.3,0-.5.03-.61.06v1.93ZM28.77,14.41c.46-.08,1.1-.14,2-.14s1.56.17,2,.52c.42.33.7.87.7,1.51s-.21,1.18-.6,1.55c-.5.48-1.25.69-2.13.69-.19,0-.37,0-.5-.03v2.34h-1.47v-6.45Z"/>
      <path class="cls-3" d="M33.35,19.97c.03.14.05.27.05.41,0,2.65-6.14,4.79-13.7,4.79s-13.7-2.14-13.7-4.79c0-.14.02-.28.05-.41-.97.71-1.51,1.51-1.51,2.36,0,2.99,6.79,5.42,15.16,5.42s15.17-2.43,15.17-5.42c0-.85-.54-1.65-1.51-2.36"/>
      <path class="cls-1" d="M19.7,1.37c10.13,0,18.34,8.21,18.34,18.34,0,3.61-1.04,6.97-2.84,9.81H4.21c-1.8-2.84-2.84-6.2-2.84-9.81C1.36,9.58,9.58,1.37,19.7,1.37M19.7,0C8.82,0,0,8.82,0,19.7s8.82,19.7,19.7,19.7,19.7-8.82,19.7-19.7S30.58,0,19.7,0"/>
      <path class="cls-2" d="M10.7,31.25h.41v1.65h-.41v-1.65ZM10.7,33.34h-1.81v-.28h2.23v1.03h-.41v-.75ZM9.55,32.23c-.11.2-.51.55-.83.64l-.15-.29c.38-.19.8-.49.8-.95v-.31h.41v.31c0,.44.38.76.79.96l-.15.29c-.33-.11-.65-.37-.87-.64"/>
      <path class="cls-2" d="M12.31,32.09h.78v-.5h-.78v.5ZM12.01,33.81h1.4v-.44h-1.4v.44ZM11.59,32.09h.31v-.5h-.31v-.28h2.22v.28h-.31v.5h.31v.28h-2.22v-.28ZM12.91,33.1h.91v1h-2.22v-1h.91v-.23h-1.04v-.28h2.49v.28h-1.04v.23Z"/>
      <path class="cls-2" d="M15.13,32.91c.56,0,.56-1.35,0-1.35s-.56,1.35,0,1.35M15.13,31.27c1.11,0,1.12,1.91,0,1.91s-1.1-1.91,0-1.91M16.34,33.71c-.22.09-.39.1-.62.1h-1.47v-.28h1.57c.18,0,.32-.03.5-.09l.02-2.19h.41v2.84h-.41v-.38Z"/>
      <path class="cls-2" d="M19.46,32.87h-.41v-1.62h.41v.35h.32v.31h-.32v.28h.32v.31h-.32v.38ZM17.82,32.53c.56,0,.56-.94,0-.94s-.58.94,0,.94M19.05,33.31h-1.81v-.28h2.22v1.05h-.41v-.78ZM17.82,31.28c1.13,0,1.13,1.56,0,1.56s-1.14-1.56,0-1.56"/>
      <path class="cls-2" d="M20.76,32.09h.78v-.5h-.78v.5ZM20.45,33.81h1.4v-.44h-1.4v.44ZM20.04,32.09h.31v-.5h-.31v-.28h2.22v.28h-.31v.5h.31v.28h-2.22v-.28ZM21.36,33.1h.91v1h-2.22v-1h.91v-.23h-1.04v-.28h2.49v.28h-1.04v.23Z"/>
      <path class="cls-2" d="M25.09,33.31h-.41v-2.06h.41v.72h.33v.31h-.33v1.03ZM23.49,32.66c.55,0,.54-1.07,0-1.07s-.54,1.07,0,1.07M22.97,33.19h.41v.62h1.74v.28h-2.15v-.9ZM23.48,31.28c1.09,0,1.09,1.69,0,1.69s-1.08-1.69,0-1.69"/>
      <path class="cls-2" d="M27.59,32.19h-.41v-.28h.41v-.65h.41v2.03h-.41v-1.09ZM25.85,33.16h.38v.65h1.81v.28h-2.19v-.93ZM26.46,32.37c-.14.18-.54.52-.85.62l-.15-.29c.38-.21.8-.48.8-.95v-.14h-.64v-.28h1.67v.28h-.62v.14c0,.44.41.78.79.96l-.15.29c-.32-.11-.67-.37-.85-.61"/>
      <path class="cls-2" d="M30.37,32.47h-.48v-.28h.48v-.94h.41v2.84h-.41v-1.62ZM29.24,33.17c-.14.25-.5.54-.76.66l-.16-.28c.47-.31.72-.62.72-1.19v-.64h-.55v-.28h.55v-.25h.41v.25h.55v.28h-.55v.65c0,.53.26.92.72,1.19l-.16.28c-.29-.13-.58-.41-.76-.66"/>
    </g>
  </g>
</svg>