<?xml version="1.0" encoding="UTF-8"?>
<svg id="_레이어_2" data-name="레이어 2" xmlns="http://www.w3.org/2000/svg" viewBox="0 0 28.34 39.35">
  <defs>
    <style>
      .cls-1 {
        fill: #231815;
        stroke-width: 0px;
      }
    </style>
  </defs>
  <g id="_레이어_1-2" data-name="레이어 1">
    <g>
      <path class="cls-1" d="M9.97,26.57l.12.17.23-.05-.12-.17-.23.05ZM12.04,26.26v-.18s-.08-.17-.08-.17l-.22.24.1.24c-.35.04-.66,0-1.12-.14-.41-.13-.82-.28-1.22-.44h0l-.04-.02-.14-.1c-.1-.12-.05-.31.13-.56.16-.22.19-.29.35-.5l-.23.05c-.15.21-.17.27-.33.49-.17.25-.25.45-.22.62l.09.13.11.08c.45.19.91.36,1.38.51.2.05.32.09.51.11.36.03.59-.01.68-.08.14-.09.21-.18.25-.29M10.32,26.68l.13.17.23-.06-.13-.17-.23.06ZM12.96,27.15l.22.15.25-.13-.22-.15-.24.12ZM12.61,25.61l-.25.13.19.18.25-.13-.19-.18ZM13.42,27.18l.22.15.24-.13-.23-.14-.24.13ZM15.91,25.73l.06-.23-.12-.06-.08-.09v-.05s0-.05,0-.05l-.03-.03-.11.14c-.05.09-.08.15-.07.17l.13.11c.08.31.16.61.25.91-.08.04-.23.06-.42.08h0c-.43.04-.86.06-1.29.06-.14,0-.23,0-.27-.02l-.12-.08-.06-.1c-.03-.14-.05-.28-.08-.42l-.05-.04-.1.1-.1.08s-.12.03-.21.03l-.17-.15-.19.22c.11.1.16.21.15.32l-.02.09-.02.05h0c-.06.08-.19.15-.38.22-.2.07-.37.09-.51.07-.11-.01-.24-.04-.39-.09.04.06.12.12.25.18.13.06.25.1.35.11.17.02.35-.03.51-.16.09-.07.16-.15.23-.24.1-.1.15-.22.16-.36v-.03c.15-.02.27-.07.37-.15l.03.24c.02.12.06.21.12.28.07.09.18.14.31.14.54,0,1.09-.02,1.63-.07.18-.02.3-.09.37-.23.05-.11.06-.22.04-.35,0-.02-.07-.22-.18-.61M19.2,25.53s-.1.03-.19.04c-.1,0-.15,0-.16-.01v-.1s.08-.09.08-.09h.18s.13.08.13.08l-.04.08ZM19.17,25.2c-.13-.05-.22-.07-.27-.05-.07.03-.12.12-.16.28-.05.19-.08.3-.11.33-.03.04-.12.09-.26.15h0c-.38.14-.65.26-1.04.37l-.11.02h.03s-.23-.02-.23-.02c-.18-.06-.21-.18-.3-.45-.09-.24-.11-.35-.2-.59l-.1.17c.05.26.06.37.15.6.1.27.15.46.32.55l.17.04h.15c.47-.14.94-.29,1.39-.47.18-.07.26-.19.23-.35.01.02.09.02.23,0,.14-.02.22-.04.26-.06.1-.04.14-.11.15-.19l-.08-.2s-.11-.08-.23-.13M25.81,10.92l-.06-.26.42.03h0s-.36.23-.36.23ZM26.66,10.77l-.06-.13-1.16-.15c-.19-.03-.2-.06-.24-.16l-.08.02.11.48.08-.02v-.06c-.02-.1,0-.1.09-.1h.21s.08.35.08.35l-.19.12-.12-.03-.02-.06-.08.02.16.65.08-.02c-.01-.11-.01-.14.15-.25.19-.13.41-.28.63-.42l.35-.23ZM4.39,6.18h0s.39.16.39.16l-.18.2-.22-.36ZM4.65,7.19l.06.06.32-.37-.06-.05-.04.04-.14-.03-.11-.18.23-.26.21.08.05.11-.04.05.06.06.44-.5-.06-.05c-.08.07-.11.09-.29.02-.21-.08-.46-.18-.71-.27l-.39-.15-.07.13.54,1.04c.09.17.07.2.02.29M12.4,1.77h0s.18.38.18.38l-.27.03.08-.42ZM12.41,2.72v-.08h-.07c-.1,0-.1-.02-.08-.11l.04-.21.34-.04.1.2-.04.11h-.06s0,.1,0,.1l.66-.07v-.08c-.11,0-.15,0-.24-.18-.11-.2-.22-.44-.34-.68l-.19-.38-.14.05-.3,1.13c-.05.19-.08.2-.18.22v.08s.5-.06.5-.06ZM16.58,1.7c.09.28.13.42.15.53v.13s-.04.18-.04.18c-.05.22-.07.23-.23.21l-.02.08.71.16.02-.08c-.17-.05-.18-.07-.13-.29l.05-.21.08-.16c.1-.13.2-.23.3-.35.1-.11.14-.12.26-.11l.02-.08-.5-.11-.02.08.08.03.03.1c-.1.13-.23.31-.29.38-.05-.17-.08-.3-.12-.48l.04-.07h.09s.02-.07.02-.07l-.64-.14-.02.08c.09.04.11.05.16.2M20.56,4.57c.27.18.55.15.7-.07.14-.21.06-.39-.05-.57l-.03-.04c-.08-.13-.11-.22-.05-.31l.26-.05c.14.09.12.26.08.4l.08.04c.06-.13.11-.22.15-.3l-.08-.09-.15-.13c-.27-.18-.53-.12-.66.07-.13.19-.02.39.07.55l.02.03c.07.12.1.23.03.33-.08.11-.19.12-.28.06-.17-.12-.14-.38-.11-.51l-.09-.03c-.06.13-.1.24-.14.33l.08.11.17.16ZM3.1,10.63l.17-.64-.08-.02c-.05.14-.06.15-.29.09l-.69-.16c-.22-.05-.22-.06-.19-.22l-.08-.02-.13.49.72.53-.9.14-.13.48.08.02c.06-.16.08-.16.34-.08l.41.13c.18.06.29.1.35.13.07.03.08.08.06.18l.08.02.14-.5-.08-.02c-.05.13-.08.17-.15.16-.06,0-.16-.03-.34-.09l-.45-.14h0s1.05-.12,1.05-.12l.03-.11-.91-.67h0s.72.18.72.18c.23.06.23.07.2.22l.08.02ZM23.82,7.49c-.08-.12-.08-.15.11-.28l.56-.42c.18-.14.2-.13.3-.02l.07-.05-.41-.54-.07.05c.08.12.08.14-.11.28l-.55.42c-.18.14-.2.13-.3.02l-.07.05.41.54.07-.05ZM7.7,3.3l.34.6c.11.2.11.22-.03.31l.04.07.91-.52-.12-.35-.09.03c.03.11.02.18.01.23l-.15.15-.14.06s-.07-.04-.13-.14l-.36-.63c-.11-.2-.11-.22.02-.31l-.04-.07-.6.34.04.07c.13-.06.15-.05.26.15M2,14.05l-.19-.58-.19.58h-.61l.5.36-.19.58.5-.36.5.36-.19-.58.5-.36h-.61ZM27.33,14.05h-.61l-.19-.58-.19.58h-.61l.5.36-.19.58.5-.36.5.36-.19-.58.49-.36ZM12.57,18.38l.11-.34h0l.11.34h-.23ZM13.18,18.59c-.07-.18-.14-.39-.22-.6l-.12-.33-.12.03-.35.91c-.06.15-.09.16-.18.17v.07h.41v-.07h-.05s-.06-.11-.06-.11l.05-.17h.29l.06.18-.05.09h-.05v.08h.55v-.07c-.09,0-.12-.02-.17-.17M15.69,18.38l.11-.34h0l.11.34h-.23ZM16.3,18.59c-.07-.18-.14-.39-.22-.6l-.12-.33-.12.03-.35.91c-.06.15-.08.16-.17.17v.07h.41v-.07h-.05s-.06-.11-.06-.11l.05-.17h.29l.06.18-.05.09h-.05v.08h.55v-.07c-.09,0-.12-.02-.17-.17M17.78,18.69l-.17.05-.12-.02s-.03-.06-.03-.15v-.6c0-.19.01-.2.14-.21v-.07h-.57v.07c.12.01.13.02.13.21v.58c0,.19-.01.2-.15.21v.07h.87l.06-.31h-.08c-.03.08-.06.13-.09.16M14.66,18.69l-.17.05-.12-.02s-.04-.06-.04-.15v-.6c0-.19.01-.2.14-.21v-.07h-.57v.07c.12.01.13.02.13.21v.58c0,.19-.01.2-.15.21v.07h.87l.06-.31h-.08c-.03.08-.06.13-.09.16M11.08,17.76c.11.01.12.02.12.21v.21h-.36v-.21c0-.19.01-.2.12-.21v-.07h-.56v.07c.13.01.14.02.14.21v.58c0,.19-.02.2-.14.21v.07h.56v-.07c-.11,0-.13-.02-.13-.21v-.27h.36v.27c0,.19-.02.2-.14.21v.07h.57v-.07c-.12,0-.14-.02-.14-.21v-.58c0-.19.01-.2.14-.21v-.07h-.56v.07ZM12.62,12.81c.61.43.94,1.76.94,1.76.33-2.98-2.39-3.83-2.39-3.83,0,0-.06.16,0,.96.05.8.83.69,1.44,1.12M10.95,15.37c.22-.53-.17-3.41-.17-4.15s.28-1.17.28-1.17c-.39-.21-.66-1.17-.66-1.17-.11.26-.5.85-.5.85,0,0,1.11,5.27.39,5.91-.72.64-2.16.75-2.99.22-.83-.53.05-2.24.05-2.24-.5.58-.89,1.28-.83,2.02.06.75.61,1.49,1.94,1.54s2.27-1.28,2.5-1.81M18.06,13.4c-.9.1-1.4,1.62-1.44,1.74.02-.06.14-.3.77-.63.72-.37,2.16.43,2.16.43-.66.59-1.89.64-2.88.53-1-.11-.95-2.24-1-3.88-.06-1.65-.39-1.49-.39-1.49,0,0,.06-.75-.67,2.66-.72,3.41-4.61,4.26-4.61,4.26,2.16.32,3.72-.69,4.27-1.75.56-1.07.94-3.3.94-3.3,0,3.19.28,3.99,1.11,4.36.83.37,2.44-.16,3.61-.59.74-.27,1.61-.16,1.61-.16l.67-1.01s-.95.05-1.61-.21c-.67-.27-1.61-1.06-2.55-.96M21.55,17.23v4.32h-4.32l-3.06,3.06-3.06-3.06h-4.32v-4.32l-3.06-3.06,3.06-3.06v-4.32h4.32l3.06-3.06,3.06,3.06h4.32v4.32l3.06,3.06-3.06,3.06ZM14.17,3.05c-6.14,0-11.12,4.98-11.12,11.12s4.98,11.12,11.12,11.12,11.12-4.98,11.12-11.12S20.31,3.05,14.17,3.05M14.17,27.63C6.75,27.63.71,21.59.71,14.17S6.75.71,14.17.71s13.46,6.04,13.46,13.46-6.04,13.46-13.46,13.46M14.17,0C6.36,0,0,6.36,0,14.17s6.36,14.17,14.17,14.17,14.17-6.36,14.17-14.17S21.99,0,14.17,0"/>
      <polygon class="cls-1" points="3.28 33.79 2.64 33.79 2.64 32.11 2.18 33.19 1.74 33.19 1.28 32.11 1.28 33.79 .68 33.79 .68 31.25 1.41 31.25 1.98 32.5 2.54 31.25 3.28 31.25 3.28 33.79"/>
      <path class="cls-1" d="M4.59,33.84c-.19,0-.37-.02-.51-.06-.15-.04-.28-.08-.41-.14v-.6h.06c.13.11.27.19.42.25.15.06.3.09.45.09h.14s.14-.05.14-.05l.11-.08.05-.13-.08-.16-.18-.09c-.09-.02-.18-.04-.28-.06-.1-.02-.19-.04-.27-.07-.2-.07-.34-.16-.42-.28-.09-.12-.13-.26-.13-.44,0-.24.1-.43.3-.58.2-.15.45-.22.75-.22.15,0,.3.02.45.05.15.03.28.07.4.13v.58h-.06c-.09-.08-.21-.15-.35-.2-.14-.06-.28-.08-.42-.08h-.15s-.14.06-.14.06l-.1.08-.04.12.07.16s.14.07.27.1l.25.05.25.08c.18.06.31.15.39.26.09.11.13.25.13.43,0,.25-.1.46-.3.61-.2.15-.47.23-.81.23"/>
      <polygon class="cls-1" points="8.8 33.79 7.12 33.79 7.12 33.35 7.65 33.35 7.65 32 7.12 32 7.12 31.59 7.35 31.57 7.54 31.52 7.66 31.41 7.72 31.24 8.27 31.24 8.27 33.35 8.8 33.35 8.8 33.79"/>
      <path class="cls-1" d="M11.08,32.93c0,.13-.02.26-.07.37-.04.11-.11.21-.2.29-.09.08-.19.14-.32.19-.12.04-.27.07-.45.07-.19,0-.35-.02-.49-.05-.14-.03-.25-.07-.34-.11v-.56h.06l.11.06.16.07.18.06.21.02.21-.03.18-.09.08-.12.03-.17-.04-.15-.1-.1-.21-.07-.21-.02c-.09,0-.18,0-.27.02l-.23.05h-.05v-1.43h1.68v.48h-1.08v.42h.12s.11,0,.11,0c.12,0,.23.01.34.04.1.03.2.06.27.11.1.06.17.15.23.25.05.11.08.24.08.39"/>
      <path class="cls-1" d="M12.69,32.52c0-.31-.03-.54-.08-.66-.05-.13-.14-.19-.26-.19s-.21.06-.26.19c-.05.13-.08.35-.08.67s.03.53.08.66c.05.13.14.19.26.19s.21-.06.26-.19c.05-.13.08-.35.08-.67M13.33,32.52c0,.22-.02.41-.05.58-.04.17-.09.3-.17.41-.08.11-.18.19-.3.25-.12.05-.28.08-.46.08s-.33-.03-.46-.08c-.12-.06-.23-.14-.3-.26-.08-.11-.13-.25-.17-.41-.04-.16-.05-.35-.05-.57s.02-.42.05-.58c.03-.16.09-.3.17-.41.08-.11.18-.2.31-.25.12-.05.28-.08.45-.08.18,0,.34.03.46.09.12.06.22.14.3.26.08.11.13.25.17.42.03.16.05.35.05.56"/>
      <path class="cls-1" d="M14.92,32.52c0-.31-.03-.54-.08-.66-.05-.13-.14-.19-.26-.19s-.21.06-.26.19c-.05.13-.08.35-.08.67s.03.53.08.66c.05.13.14.19.26.19s.21-.06.26-.19c.05-.13.08-.35.08-.67M15.56,32.52c0,.22-.02.41-.05.58-.04.17-.09.3-.17.41-.08.11-.18.19-.3.25-.12.05-.28.08-.46.08s-.33-.03-.45-.08c-.12-.06-.23-.14-.3-.26-.08-.11-.13-.25-.17-.41-.04-.16-.05-.35-.05-.57s.02-.42.05-.58c.04-.16.09-.3.17-.41.08-.11.18-.2.31-.25.13-.05.28-.08.45-.08.18,0,.34.03.46.09.12.06.22.14.3.26.08.11.13.25.17.42.03.16.05.35.05.56"/>
      <path class="cls-1" d="M17.66,33.79h-.61v-.67h.61v.67ZM17.66,32.55h-.61v-.67h.61v.67Z"/>
      <path class="cls-1" d="M21.14,33.79h-1.87v-.41c.16-.12.3-.24.43-.35.13-.11.24-.22.33-.32.13-.13.22-.24.27-.35.06-.1.08-.2.08-.31,0-.12-.04-.21-.11-.27-.07-.06-.17-.1-.3-.1l-.18.02-.18.06-.15.08-.09.06h-.05v-.56c.07-.03.18-.07.34-.11.15-.03.3-.05.44-.05.3,0,.53.07.69.2.15.13.23.32.23.57,0,.15-.04.3-.11.44-.07.14-.19.3-.35.46-.1.1-.2.19-.3.27-.1.08-.17.13-.21.17h1.08v.48Z"/>
      <path class="cls-1" d="M22.7,32.52c0-.31-.03-.54-.08-.66-.05-.13-.14-.19-.26-.19s-.21.06-.26.19c-.05.13-.08.35-.08.67s.03.53.08.66c.05.13.14.19.26.19s.21-.06.26-.19c.05-.13.08-.35.08-.67M23.34,32.52c0,.22-.02.41-.05.58-.03.17-.09.3-.17.41-.08.11-.18.19-.3.25-.12.05-.28.08-.46.08s-.33-.03-.46-.08c-.12-.06-.23-.14-.3-.26-.08-.11-.14-.25-.17-.41-.04-.16-.05-.35-.05-.57s.02-.42.05-.58c.04-.16.09-.3.17-.41.08-.11.18-.2.31-.25.12-.05.28-.08.45-.08.18,0,.34.03.46.09.12.06.22.14.3.26.08.11.13.25.17.42.03.16.05.35.05.56"/>
      <path class="cls-1" d="M24.93,32.52c0-.31-.03-.54-.08-.66-.05-.13-.14-.19-.26-.19s-.21.06-.26.19c-.05.13-.08.35-.08.67s.03.53.08.66c.05.13.14.19.26.19s.21-.06.26-.19c.05-.13.08-.35.08-.67M25.57,32.52c0,.22-.02.41-.05.58-.03.17-.09.3-.17.41-.08.11-.18.19-.3.25-.12.05-.28.08-.46.08s-.33-.03-.45-.08c-.12-.06-.23-.14-.3-.26-.08-.11-.13-.25-.17-.41-.04-.16-.05-.35-.05-.57s.02-.42.05-.58c.04-.16.09-.3.17-.41.08-.11.18-.2.31-.25.12-.05.27-.08.45-.08.18,0,.34.03.46.09.12.06.22.14.3.26.08.11.13.25.17.42.03.16.05.35.05.56"/>
      <path class="cls-1" d="M27.13,32.28c0-.14-.01-.25-.04-.34l-.1-.21-.1-.08-.12-.03-.11.02-.1.08-.07.14-.03.21.03.2.09.13.12.07.16.02.15-.02.12-.04v-.05s0-.1,0-.1ZM27.76,32.38c0,.22-.03.42-.08.6-.05.18-.13.33-.23.46-.11.13-.24.23-.41.3-.16.07-.36.1-.6.1h-.25s-.17-.04-.17-.04v-.5h.05l.14.05c.06.02.14.03.24.03l.24-.03.2-.11.15-.19c.04-.08.07-.17.08-.28-.09.06-.18.1-.26.13-.08.03-.17.04-.29.04l-.25-.04-.22-.11c-.09-.07-.16-.16-.21-.26s-.08-.25-.08-.42c0-.13.02-.26.07-.37.04-.11.11-.21.19-.29.08-.08.18-.15.3-.2.12-.05.25-.07.4-.07s.28.02.4.06c.11.04.21.1.29.19.1.1.17.22.22.37.05.15.07.34.07.55"/>
      <polygon class="cls-1" points="2.43 38.79 .75 38.79 .75 38.35 1.29 38.35 1.29 37 .75 37 .75 36.59 .98 36.57 1.17 36.52 1.3 36.41 1.35 36.24 1.91 36.24 1.91 38.35 2.43 38.35 2.43 38.79"/>
      <path class="cls-1" d="M4.77,37.52c0-.32-.02-.54-.08-.66-.05-.13-.14-.19-.26-.19s-.21.07-.26.19c-.05.13-.08.35-.08.67s.03.53.08.66c.05.13.14.19.26.19s.21-.07.26-.19c.05-.13.08-.35.08-.67M5.42,37.52c0,.22-.02.41-.05.58-.04.17-.09.31-.17.42-.08.11-.18.19-.3.25-.12.06-.28.08-.46.08s-.33-.03-.46-.08c-.12-.06-.23-.14-.3-.25-.08-.11-.13-.25-.17-.41-.04-.16-.05-.35-.05-.57s.02-.42.05-.58c.04-.16.09-.3.17-.41.08-.11.18-.2.31-.25.12-.05.28-.08.45-.08.18,0,.34.03.46.09.12.06.22.14.3.26.08.11.14.25.17.41.04.16.05.35.05.57"/>
      <path class="cls-1" d="M7,37.52c0-.32-.03-.54-.08-.66s-.14-.19-.26-.19-.21.07-.26.19c-.05.13-.08.35-.08.67s.03.53.08.66c.05.13.14.19.26.19s.21-.07.26-.19c.05-.13.08-.35.08-.67M7.64,37.52c0,.22-.02.41-.05.58-.04.17-.09.31-.17.42-.08.11-.18.19-.3.25-.12.06-.28.08-.46.08s-.33-.03-.45-.08c-.12-.06-.23-.14-.3-.25-.08-.11-.13-.25-.17-.41-.04-.16-.05-.35-.05-.57s.02-.42.05-.58c.04-.16.09-.3.17-.41.08-.11.18-.2.31-.25.13-.05.28-.08.45-.08.18,0,.34.03.46.09.12.06.22.14.3.26.08.11.13.25.17.41.04.16.05.35.05.57"/>
      <path class="cls-1" d="M8.97,37.74v-.86l-.64.86h.64ZM9.93,38.2h-.34v.6h-.62v-.6h-1.12v-.47l1.1-1.47h.64v1.49h.34v.46Z"/>
      <rect class="cls-1" x="10.19" y="37.43" width="1.13" height=".47"/>
      <path class="cls-1" d="M12.97,37.52c0-.32-.03-.54-.08-.66s-.14-.19-.26-.19-.21.07-.26.19c-.05.13-.08.35-.08.67s.03.53.08.66c.05.13.14.19.26.19s.21-.07.26-.19c.05-.13.08-.35.08-.67M13.61,37.52c0,.22-.02.41-.05.58-.04.17-.09.31-.17.42-.08.11-.18.19-.3.25-.12.06-.28.08-.46.08s-.33-.03-.46-.08c-.12-.06-.23-.14-.3-.25-.08-.11-.13-.25-.17-.41-.04-.16-.05-.35-.05-.57s.02-.42.05-.58c.03-.16.09-.3.17-.41.08-.11.18-.2.31-.25.12-.05.27-.08.45-.08.18,0,.34.03.46.09.12.06.22.14.3.26.08.11.13.25.17.41.03.16.05.35.05.57"/>
      <path class="cls-1" d="M15.11,38.31l.07-.13s.03-.12.03-.22l-.03-.2-.09-.13-.13-.07-.15-.02-.14.02-.13.04v.06s0,.1,0,.1c0,.15.01.26.04.35l.1.2.1.08.12.02.11-.03.1-.08ZM15.85,37.93c0,.27-.09.49-.26.66-.17.17-.4.26-.7.26-.15,0-.28-.02-.4-.06-.11-.04-.21-.1-.29-.19-.1-.1-.17-.22-.22-.38-.05-.16-.08-.34-.08-.55s.02-.42.07-.6c.05-.17.13-.33.23-.46.1-.13.24-.23.41-.3.17-.07.36-.11.59-.11l.25.02.17.03v.5h-.05l-.15-.05-.23-.03c-.2,0-.35.05-.46.16-.11.1-.18.26-.2.45l.25-.13c.09-.03.18-.05.29-.05.09,0,.18.01.26.04l.21.11c.09.07.16.16.21.27.05.11.08.25.08.42"/>
      <polygon class="cls-1" points="18.35 36.13 17.34 39.35 16.85 39.35 17.86 36.13 18.35 36.13"/>
      <path class="cls-1" d="M21.12,38.79h-1.87v-.42c.16-.12.3-.24.43-.35.12-.11.24-.22.33-.32.13-.13.21-.25.27-.34.06-.1.08-.2.08-.31,0-.12-.04-.21-.11-.27s-.17-.1-.3-.1l-.18.02-.18.06-.15.08-.09.06h-.05v-.56c.07-.03.18-.07.34-.11.15-.04.3-.05.44-.05.3,0,.53.07.69.2.16.14.23.33.23.57,0,.15-.04.3-.11.44-.07.15-.19.3-.35.47-.1.1-.2.19-.3.27-.1.08-.17.14-.21.17h1.08v.48Z"/>
      <path class="cls-1" d="M22.67,37.52c0-.32-.03-.54-.08-.66-.05-.13-.14-.19-.26-.19s-.21.07-.26.19c-.05.13-.08.35-.08.67s.03.53.08.66c.05.13.14.19.26.19s.21-.07.26-.19c.05-.13.08-.35.08-.67M23.31,37.52c0,.22-.02.41-.05.58-.04.17-.09.31-.17.42-.08.11-.18.19-.3.25-.12.06-.28.08-.46.08s-.33-.03-.45-.08c-.12-.06-.23-.14-.3-.25-.08-.11-.13-.25-.17-.41-.04-.16-.05-.35-.05-.57s.02-.42.05-.58c.04-.16.09-.3.17-.41.08-.11.18-.2.31-.25.12-.05.28-.08.45-.08.18,0,.34.03.46.09.12.06.22.14.3.26.08.11.13.25.17.41.03.16.05.35.05.57"/>
      <polygon class="cls-1" points="25.46 38.79 23.78 38.79 23.78 38.35 24.32 38.35 24.32 37 23.78 37 23.78 36.59 24.02 36.57 24.2 36.52 24.33 36.41 24.38 36.24 24.94 36.24 24.94 38.35 25.46 38.35 25.46 38.79"/>
      <path class="cls-1" d="M27.8,38.79h-1.87v-.42c.16-.12.3-.24.43-.35.13-.11.24-.22.33-.32.12-.13.21-.25.27-.34.06-.1.08-.2.08-.31,0-.12-.04-.21-.11-.27-.07-.06-.17-.1-.3-.1l-.18.02-.18.06-.15.08-.09.06h-.05v-.56c.07-.03.18-.07.34-.11.15-.04.3-.05.44-.05.3,0,.53.07.69.2.16.14.23.33.23.57,0,.15-.04.3-.11.44-.07.15-.19.3-.35.47-.1.1-.2.19-.3.27-.1.08-.17.14-.21.17h1.08v.48Z"/>
    </g>
  </g>
</svg>