<?xml version="1.0" encoding="UTF-8"?>
<svg id="_레이어_2" data-name="레이어 2" xmlns="http://www.w3.org/2000/svg" viewBox="0 0 38.41 38.41">
  <defs>
    <style>
      .cls-1 {
        fill: #a37236;
        stroke-width: 0px;
      }
    </style>
  </defs>
  <g id="_레이어_1-2" data-name="레이어 1">
    <g>
      <path class="cls-1" d="M19.21,0C8.6,0,0,8.6,0,19.21s8.6,19.21,19.21,19.21,19.21-8.6,19.21-19.21S29.81,0,19.21,0ZM19.21,35.45c-8.97,0-16.24-7.27-16.24-16.24S10.24,2.97,19.21,2.97s16.24,7.27,16.24,16.24-7.27,16.24-16.24,16.24Z"/>
      <polygon class="cls-1" points="9.04 10.43 9.04 27.92 15.98 27.92 15.98 19.88 22.73 27.92 32.19 27.92 21.63 15.83 29.93 10.43 24.16 10.43 15.98 15.96 15.98 10.4 9.04 10.43"/>
    </g>
  </g>
</svg>