<?xml version="1.0" encoding="UTF-8"?>
<svg id="_레이어_2" data-name="레이어 2" xmlns="http://www.w3.org/2000/svg" viewBox="0 0 68.11 38.79">
  <defs>
    <style>
      .cls-1 {
        fill: #7d7d7d;
      }

      .cls-1, .cls-2, .cls-3, .cls-4 {
        stroke-width: 0px;
      }

      .cls-2 {
        fill: #231815;
      }

      .cls-3 {
        fill: #fff;
      }

      .cls-4 {
        fill: #ed6c00;
      }
    </style>
  </defs>
  <g id="_레이어_1-2" data-name="레이어 1">
    <g>
      <path class="cls-2" d="M46.53,26.27c0-.56.01-.84.01-1.21,0-.55-.01-.9-.02-1.07.14.02.3.03.44.03s.29,0,.44-.03c-.07.68-.07,1.22-.07,1.82,0,1.26.37,1.47,1.07,1.47.86,0,.91-.9.91-1.86,0-.48-.02-.95-.04-1.43.09.02.18.03.27.03s.18,0,.27-.03c-.03.31-.07,1.05-.07,1.95,0,1.2-.54,1.7-1.58,1.7-.92,0-1.62-.39-1.62-1.37"/>
      <path class="cls-2" d="M52.42,25.94c0,.75,0,1.3.04,1.63-.12-.01-.26-.03-.44-.03s-.32.01-.44.03c.03-.46.04-.86.04-1.44v-.71c0-.58,0-.98-.04-1.44.12.01.26.03.44.03s.32-.02.44-.03c-.04.28-.04.99-.04,1.66.48-.55,1.18-1.39,1.36-1.66.1.01.2.03.3.03.1,0,.2-.02.32-.03-.24.23-1.1,1.16-1.38,1.49.46.68,1.17,1.72,1.46,2.09-.21-.01-.36-.03-.52-.03s-.31.01-.46.03c-.35-.55-.72-1.09-1.07-1.63h0Z"/>
      <path class="cls-2" d="M57.51,23.96l-.2.03-.2-.03c-.46,1.18-1.26,3.03-1.52,3.61.1,0,.18-.03.27-.03l.25.03c.1-.36.22-.71.36-1.06.19,0,.37,0,.56,0,.23,0,.45,0,.68,0,.13.35.26.71.37,1.06.15,0,.3-.03.45-.03s.3.02.47.03c-.41-.85-1.03-2.42-1.48-3.61M56.6,26.2c.15-.42.32-.83.5-1.24.17.41.32.82.48,1.24h-.98Z"/>
      <path class="cls-2" d="M62.11,24.69c-.11-.3-.32-.45-.65-.45s-.56.22-.56.47c0,.77,1.62.58,1.62,1.75,0,.7-.57,1.17-1.42,1.17-.38,0-.7-.11-.86-.22.07-.24.12-.43.15-.66h.1c.06.3.31.56.74.56s.63-.24.63-.53c0-.78-1.59-.58-1.59-1.75,0-.72.57-1.11,1.2-1.11.38,0,.67.1.88.26-.06.16-.1.29-.17.51h-.08Z"/>
      <path class="cls-2" d="M51.82,38.78c.73,0,1-.84,1-1.39s-.26-1.38-1-1.38-1,.84-1,1.38.26,1.39,1,1.39M51.82,36.29c.51,0,.65.73.65,1.1s-.14,1.09-.65,1.09-.66-.73-.66-1.09.14-1.1.66-1.1"/>
      <path class="cls-2" d="M54.34,38.78c.73,0,1-.84,1-1.39s-.26-1.38-1-1.38-1,.84-1,1.38.26,1.39,1,1.39M54.34,36.29c.51,0,.65.73.65,1.1s-.14,1.09-.65,1.09-.65-.73-.65-1.09.14-1.1.65-1.1"/>
      <path class="cls-2" d="M56.43,38.08c0,.27.25.38.46.38.49,0,.55-.45.55-.62,0-.37-.21-.58-.53-.58-.16,0-.29.06-.38.14l-.13.23h-.37l.07-1.61h1.57v.32h-1.23l-.05.88c.09-.08.26-.25.59-.25.56,0,.84.43.84.89,0,.53-.39.94-1,.94-.45,0-.81-.24-.83-.7h.42Z"/>
      <polygon class="cls-2" points="50.15 13.42 50.15 18.6 53.87 22.58 61.24 11.76 61.24 8.05 53.87 18.2 50.15 13.42"/>
      <polygon class="cls-2" points="55.01 6.88 55.14 6.88 55.14 4.94 55.01 4.73 54.94 4.79 55.01 4.94 55.01 6.88"/>
      <path class="cls-2" d="M54.85,2.02h-.52v.09c.1,0,.15.15.15.15l.02.18h-.01c0,.13-.05.11-.05.11h-.13s-.05,0-.05,0c0,0-.15-.06-.15-.15h-.09v.54h.09c0-.1.15-.15.15-.15l.04-.02h.14s0,.47,0,.47c0,0,0,.07-.16.23l-.02.02c-.23.12-.39.37-.39.65,0,.4.33.73.73.73s.73-.33.73-.73c0-.29-.17-.54-.41-.65v-.02c-.17-.15-.17-.23-.17-.23v-.47s.07-.03.18.02c0,0,.15.06.15.15h.09v-.54h-.09c0,.09-.15.15-.15.15h-.18s-.05.02-.05-.11l.02-.18s.06-.15.15-.15v-.09"/>
      <polygon class="cls-2" points="54.17 6.88 54.04 6.88 54.04 4.94 54.17 4.73 54.24 4.79 54.17 4.94 54.17 6.88"/>
      <path class="cls-2" d="M58.65,5.4l.1.16.13-.08-.04-.06c.08.09.2.11.31.05.11-.07.15-.22.07-.33-.07-.11-.22-.15-.33-.08-.1.06-.13.19-.09.29l-.02-.04-.13.08Z"/>
      <path class="cls-2" d="M59.33,6.47c-.12-.01-.22.07-.25.18v-.05s-.15-.02-.15-.02l-.02.19.15.02v-.07c.01.11.1.21.22.23.13.01.25-.08.26-.21.02-.13-.08-.25-.21-.26"/>
      <path class="cls-2" d="M58.33,7.58l-.7,1.63h.14c.11-.2.3-.35.3-.35.24-.23.38-.04.38-.04l.15-.39c-.12.1-.24-.05-.24-.05-.1-.18,0-.64,0-.64l-.03-.16Z"/>
      <path class="cls-2" d="M50.03,5.47c.1.06.23.04.3-.05l-.03.06.13.08.1-.16-.13-.08-.02.04c.04-.11.01-.23-.09-.29-.11-.07-.26-.03-.33.08-.07.11-.04.26.08.33"/>
      <path class="cls-2" d="M50.12,6.72v.07s.16-.02.16-.02l-.02-.19-.15.02v.05c-.02-.11-.13-.19-.25-.18-.13.01-.23.13-.21.26.01.13.13.23.26.21.12-.01.2-.11.21-.23"/>
      <path class="cls-2" d="M59.15,7.15c-.1-.02-.19.03-.24.11l-.07-.28c.09-.3.07-.54.07-.57.01-.13,0-.25-.02-.37h.15s0-.07,0-.07c.02.11.11.2.23.2.13,0,.24-.11.24-.24s-.11-.24-.24-.24c-.12,0-.21.09-.23.2v-.04h-.15s0,.15,0,.15c-.08-.44-.35-.74-.56-.91l.1-.12-.05-.04c.1.06.23.04.3-.05.09-.1.07-.25-.03-.34-.1-.09-.25-.07-.34.03-.08.09-.07.22,0,.31l-.04-.03-.1.12.06.05-.16-.11c-.1-.04-.19-.07-.28-.1h.04s.04-.14.04-.14l-.06-.02c.12.01.23-.06.26-.17.04-.13-.04-.26-.17-.29-.13-.03-.26.04-.29.17-.03.11.03.23.14.28h-.04s-.04.14-.04.14c-.18-.04-.36-.06-.51-.05v-.14h-.07c.11-.02.2-.11.2-.23,0-.13-.11-.24-.24-.24s-.24.11-.24.24c0,.12.09.21.2.23h-.05v.15h.06c-.22.02-.4.07-.52.12l-.04-.12-.06.02c.1-.05.16-.17.13-.28-.04-.13-.17-.2-.3-.16s-.2.17-.16.3c.03.11.15.18.26.16h-.04s.04.16.04.16h.01s-.02,0-.02,0c-.19.09-.38.15-.55.19l-.04-.15-.07.02c.1-.05.17-.16.14-.28-.03-.13-.17-.2-.29-.17-.13.03-.2.16-.17.29.03.12.14.18.26.17h-.05s.04.15.04.15c-.25.04-.43.05-.43.05v.2s.65,0,1.25-.29h0s0,0,0,0c.03-.02.71-.42,1.57-.01.03.02.81.45.72,1.3h0s0,.02,0,.02c0,0,.03.4-.18.8l-.08.14s.24.32.21.66c0,0-.02.66-.32.98,0,0-.43.79-1.18.19,0,0-.49-.41-.06-.83,0,0,.26-.17.36.08,0,0,.04.17-.08.23,0,0,.32.09.45-.23,0,0,.15-.39-.34-.49,0,0-.3.04-.24-.19,0,0,.15-.51-.07-.83,0,0-.32.13-.41.69,0,0,0,.28-.26.1-.51-.15-.53.19-.53.19-.11.36.28.53.28.53-.04-.15.02-.28.02-.28.19-.15.34.09.34.09-.04.51-.3.7-.3.7-.26.28-.58.22-.58.22-.36-.02-.39-.09-.39-.09-.6-.41-.47-.84-.47-.84.09,0,.21.04.21.04.38.13.56.47.56.47v.19h.11v-1.65h-.13c-.02.49-.53.56-.53.56h-.24v-.3c.08-.32.45-.49.45-.49h.19v-.17h-1.78v.17h.19s.38.17.45.49v.3h-.24s-.51-.08-.53-.56h-.13v1.65h.11v-.19s.19-.34.56-.47c0,0,.11-.04.21-.04,0,0,.13.43-.47.84,0,0-.04.07-.4.09,0,0-.32.06-.58-.22,0,0-.26-.19-.3-.7,0,0,.15-.24.34-.09,0,0,.06.13.02.28,0,0,.39-.17.28-.53,0,0-.02-.34-.53-.19-.26.19-.26-.1-.26-.1-.09-.56-.41-.69-.41-.69-.23.32-.08.83-.08.83.06.23-.24.19-.24.19-.49.1-.34.49-.34.49.13.32.45.23.45.23-.11-.06-.08-.23-.08-.23.1-.24.36-.08.36-.08.43.41-.06.83-.06.83-.75.6-1.18-.19-1.18-.19-.3-.32-.32-.98-.32-.98-.04-.34.21-.66.21-.66l-.08-.14c-.21-.4-.18-.79-.18-.8h0s0-.02,0-.02c-.09-.85.69-1.28.72-1.3.86-.41,1.54,0,1.57.01h0s0,0,0,0c.6.29,1.23.29,1.26.29v-.2s-.18,0-.43-.05l.04-.14h-.04c.11,0,.22-.07.25-.18.03-.13-.04-.26-.17-.29-.13-.03-.26.04-.29.17-.03.12.03.23.14.28l-.06-.02-.04.15c-.17-.04-.36-.1-.55-.19h-.02s.01,0,.01,0l.04-.15h-.04c.11,0,.23-.06.26-.18.04-.13-.03-.26-.16-.3-.13-.04-.26.03-.3.16-.03.11.02.23.13.28l-.07-.02-.04.12c-.12-.05-.3-.1-.52-.12h.06v-.15h-.05c.11-.02.2-.11.2-.23,0-.13-.11-.24-.24-.24s-.24.11-.24.24c0,.12.09.21.2.23h-.07v.14c-.15,0-.33.01-.51.05l-.04-.15h-.04c.11-.04.17-.15.13-.26-.03-.13-.17-.2-.29-.17-.13.03-.2.17-.17.29.03.11.14.18.25.17l-.06.02.04.15h.04c-.09.02-.19.05-.28.09l-.16.11.05-.05-.1-.12-.04.03c.07-.09.08-.22,0-.31-.09-.1-.24-.11-.34-.03-.1.09-.11.24-.03.34.08.09.21.1.3.05l-.05.04.1.12c-.21.17-.48.47-.56.91v-.15s-.15,0-.15,0v.04c-.02-.11-.11-.2-.23-.2-.13,0-.24.11-.24.24s.11.24.24.24c.12,0,.21-.09.23-.2v.07s.15,0,.15,0c-.02.11-.03.24-.02.37,0,.03-.02.26.07.57l-.07.28c-.05-.08-.14-.12-.24-.11-.13.03-.21.15-.19.28.03.13.15.21.28.19l.07-.05-.08.35,1.09,2.74s1.24-.53,3.34-.54h.09c2.1.02,3.34.54,3.34.54l1.09-2.74-.09-.35.07.05c.13.02.25-.06.28-.19.02-.13-.06-.26-.19-.28"/>
      <path class="cls-2" d="M50.59,8.43l.15.39s.14-.19.38.04c0,0,.19.15.3.35h.14l-.7-1.63-.03.16s.1.46,0,.64c0,0-.11.15-.24.05"/>
      <path class="cls-2" d="M54.09,4.24l-.12-.02-.04-.07.09-.17h0s.19-.02.19-.02h0,.3v-.49h0s.05-.08.05-.08h.09,0l.06.08v.48h0s0,0,0,0v.02h.28,0l.19.02h0c.05.02.08.07.07.17l-.06.09h-.08s0,0,0,0h0c-.5-.05-.99,0-.99,0h0ZM55.08,4.25h.1s.08-.1.08-.1l-.08-.18h0s0,0,0,0l-.19-.02h-.28v.02h.02v-.49l-.08-.1h-.09l-.07.1h0v.48h0s-.29,0-.29,0h0l-.19.02h0c-.06.02-.1.09-.1.18l.05.08.14.02h0s.49-.05.99,0h0Z"/>
      <path class="cls-2" d="M54.59,5.05c-.11,0-.19-.08-.19-.19s.08-.19.19-.19.19.09.19.19-.08.19-.19.19M54.59,5.49c-.11,0-.19-.08-.19-.19s.08-.19.19-.19.19.09.19.19-.08.19-.19.19M54.59,5.93c-.11,0-.19-.08-.19-.19s.08-.19.19-.19.19.08.19.19-.08.19-.19.19M54.59,6.37c-.11,0-.19-.08-.19-.19s.08-.19.19-.19.19.09.19.19-.08.19-.19.19M54.59,6.8c-.11,0-.19-.09-.19-.19s.08-.19.19-.19.19.09.19.19-.08.19-.19.19M54.3,6.88h.59v-2.22h-.59v2.22Z"/>
      <rect class="cls-3" x="54.36" y="9.35" width=".49" height=".49" transform="translate(9.21 41.42) rotate(-45)"/>
      <path class="cls-3" d="M56.83,9.63l-.59-.08c-.14-.02-.26.06-.28.18-.01.12.08.23.22.25l.59.08c.14.02.26-.06.28-.18.01-.12-.09-.23-.22-.25"/>
      <path class="cls-3" d="M52.35,9.63l.59-.08c.14-.02.26.06.28.18.01.12-.09.23-.22.25l-.59.08c-.14.02-.26-.06-.28-.18-.01-.12.09-.23.22-.25"/>
      <path class="cls-3" d="M58.36,10.18c0,.12-.1.21-.21.21s-.21-.1-.21-.21.09-.21.21-.21.21.1.21.21"/>
      <path class="cls-2" d="M58.14,9.94c-.13,0-.24.11-.24.24s.11.24.24.24.24-.11.24-.24-.11-.24-.24-.24M58.33,10.18c0,.1-.08.19-.19.19s-.19-.08-.19-.19.08-.19.19-.19.19.08.19.19"/>
      <path class="cls-3" d="M54.8,4.84c0,.12-.1.21-.21.21s-.21-.1-.21-.21.1-.21.21-.21.21.1.21.21"/>
      <path class="cls-2" d="M54.59,4.6c-.13,0-.24.11-.24.24s.11.24.24.24.24-.11.24-.24-.11-.24-.24-.24M54.78,4.84c0,.1-.08.19-.19.19s-.19-.09-.19-.19.08-.19.19-.19.19.09.19.19"/>
      <path class="cls-3" d="M50.82,10.18c0,.12.1.21.21.21s.21-.1.21-.21-.09-.21-.21-.21-.21.1-.21.21"/>
      <path class="cls-2" d="M51.04,9.99c.1,0,.19.08.19.19s-.08.19-.19.19-.19-.08-.19-.19.09-.19.19-.19M50.8,10.18c0,.13.11.24.24.24s.24-.11.24-.24-.11-.24-.24-.24-.24.11-.24.24"/>
      <path class="cls-2" d="M67.93.27h-26.99v34.91h27.17V.27h-.18ZM67.93,34.83h-26.82l.17.18V.45l-.17.18h26.82l-.18-.18v34.56l.18-.18Z"/>
      <path class="cls-1" d="M35.12,26.34v-8.78C35.12,7.86,27.26,0,17.56,0S0,7.86,0,17.56h3.51c0-7.76,6.29-14.05,14.05-14.05s14.05,6.29,14.05,14.05v8.78h3.51Z"/>
      <path class="cls-4" d="M17.57,22.02l-2.99-2.99v-4.54l2.99,2.99,6.81-6.81c-1.74-1.74-4.15-2.82-6.81-2.82-5.32,0-9.63,4.31-9.63,9.64s4.31,9.64,9.63,9.64,9.64-4.32,9.64-9.64c0-1.49-.34-2.9-.94-4.16l-8.69,8.69Z"/>
      <path class="cls-1" d="M23.44,35c-.88-.27-1.05-1.02-1-1.86h1.27c0,.58.02,1.06.72,1.06.43,0,.64-.28.64-.69,0-1.09-2.55-1.16-2.55-2.96,0-.95.45-1.7,2-1.7,1.23,0,1.85.55,1.76,1.82h-1.23c0-.45-.08-.91-.59-.91-.41,0-.65.23-.65.64,0,1.15,2.55,1.05,2.55,2.95,0,1.05-.51,1.48-1.14,1.64h-1.77Z"/>
      <path class="cls-1" d="M29.43,30.82c0-.56-.08-1.05-.76-1.05-.79,0-.79,1.06-.79,2.24,0,1.89.19,2.23.91,2.23.21,0,.44-.05.63-.12v-1.34h-.69v-.93h1.96v3.06c-.13.03-.35.06-.59.1h-2.17c-1.17-.29-1.33-1.22-1.33-3.07,0-1.53.08-3.07,2.15-3.07,1.24,0,2.01.7,1.94,1.96h-1.26Z"/>
      <path class="cls-1" d="M33.09,28.86c1.11,0,1.71.43,1.79,1.4v.41h-1.23c0-.44-.11-.91-.62-.91-.41,0-.66.23-.66.64,0,1.06,2.18,1.06,2.51,2.55v.88c-.13.71-.58,1.03-1.1,1.17h-1.77c-.88-.27-1.05-1.03-1-1.86h1.27c0,.58.03,1.06.72,1.06.43,0,.64-.28.64-.69,0-1.09-2.55-1.16-2.55-2.96,0-.95.45-1.7,2-1.7"/>
      <rect class="cls-4" x="18.63" y="35" width="18.74" height=".24"/>
      <rect class="cls-4" x="34.88" y="27.74" width=".24" height="8.74"/>
      <path class="cls-3" d="M6.46,6.99l.04.04c.17.17.34.11.44,0,.13-.13.17-.28.01-.43-.29-.27-.81.34-1.2-.04-.23-.22-.2-.5.01-.71.23-.24.47-.26.72,0l-.17.17c-.14-.14-.27-.18-.42-.03-.1.1-.14.25,0,.38.28.27.8-.35,1.21.05.27.26.18.53-.03.74-.36.38-.65.11-.77-.02l.16-.16Z"/>
      <path class="cls-3" d="M6.29,7.17c.07.07.22.22.42.22.13,0,.26-.07.39-.2.13-.14.2-.29.2-.43,0-.12-.06-.24-.18-.35-.23-.23-.5-.13-.73-.06-.19.07-.36.12-.47,0l-.08-.16.08-.18.17-.09.22.12.02.02.02-.02.17-.17.02-.02-.02-.02c-.13-.13-.25-.2-.38-.2s-.25.06-.38.19c-.23.24-.24.54-.01.75.22.21.48.12.71.04.2-.07.37-.12.49,0,.13.12.12.26-.01.4-.06.06-.21.18-.4,0l-.04-.03-.02-.02-.02.02-.15.16-.02.02.02.02ZM6.44,7.01l.04.04c.23.22.42.06.47,0,.15-.16.16-.32.01-.47-.14-.14-.33-.07-.54,0-.23.08-.46.16-.66-.03-.2-.2-.2-.46.01-.68.11-.12.23-.18.34-.18s.23.06.35.18v-.04l-.17.17h.04c-.09-.09-.17-.13-.25-.13l-.2.11-.1.22.1.2c.14.13.33.07.52,0,.23-.08.47-.16.68.04.1.1.16.21.16.32,0,.13-.06.26-.19.39-.12.12-.24.19-.35.19-.18,0-.32-.14-.38-.21v.04l.16-.16h-.03Z"/>
      <polygon class="cls-3" points="7.11 4.64 7.29 4.49 7.64 5.65 8.09 6.16 7.92 6.31 7.47 5.8 6.38 5.28 6.57 5.11 7.4 5.53 7.11 4.64"/>
      <path class="cls-3" d="M7.42,5.51l-.83-.42h-.02s-.01,0-.01,0l-.19.17-.03.03.03.02,1.09.52h0s.45.51.45.51l.02.02h.02s.17-.16.17-.16l.02-.02-.02-.02-.45-.51h0s-.36-1.15-.36-1.15v-.04s-.04.02-.04.02l-.17.15h-.01s0,.03,0,.03l.29.89.03-.03ZM7.13,4.66l.17-.15h-.04s.36,1.14.36,1.14h0s0,0,0,0l.45.51v-.04s-.17.15-.17.15h.04s-.45-.51-.45-.51h0s0,0,0,0l-1.09-.52v.04s.2-.17.2-.17h-.03s.83.43.83.43l.05.03-.02-.06-.29-.89v.03Z"/>
      <path class="cls-3" d="M8.47,5.17l.03.04c.14.2.31.17.43.09.15-.11.21-.25.09-.42-.23-.32-.86.18-1.17-.25-.18-.26-.1-.52.14-.7.26-.19.51-.17.71.14l-.19.14c-.11-.16-.24-.23-.41-.1-.11.08-.18.21-.07.37.23.32.85-.19,1.18.27.22.31.08.56-.16.73-.43.31-.66-.02-.76-.16l.18-.13Z"/>
      <path class="cls-3" d="M8.27,5.32c.05.08.18.26.37.29.13.02.27-.02.42-.13.3-.22.36-.49.16-.76-.19-.26-.46-.22-.71-.19-.2.03-.37.05-.47-.08l-.05-.17.12-.17.18-.06c.07.01.13.06.19.15v.02s.04-.01.04-.01l.19-.14h.02s-.01-.03-.01-.03c-.1-.15-.21-.24-.34-.26-.12-.02-.26.02-.4.12-.27.19-.33.48-.15.74.18.25.45.21.69.17.2-.03.38-.06.48.08l.06.19-.14.19-.2.06-.19-.14-.03-.04-.02-.02h-.02s-.18.15-.18.15h-.02s.01.03.01.03ZM8.45,5.19l.03.04.22.15c.1.02.19-.03.24-.07.09-.07.15-.14.16-.23l-.07-.23c-.11-.16-.32-.13-.53-.1-.24.03-.48.07-.64-.15-.17-.23-.11-.49.14-.67.13-.09.25-.13.36-.11.11.02.21.1.31.24v-.03s-.19.14-.19.14h.04c-.07-.1-.15-.16-.23-.17l-.22.07-.13.2.06.21c.11.16.31.13.51.1.24-.04.49-.07.66.17.23.32.04.55-.15.69-.14.1-.26.14-.38.12-.18-.03-.29-.2-.34-.27v.04s.18-.13.18-.13h-.03Z"/>
      <polygon class="cls-3" points="9.73 2.87 9.83 3.04 9.43 3.28 10.23 4.65 10.03 4.77 9.23 3.39 8.82 3.63 8.72 3.46 9.73 2.87"/>
      <path class="cls-3" d="M8.7,3.47l.1.17v.02s.04-.01.04-.01l.41-.24h-.04s.8,1.36.8,1.36v.02s.03-.01.03-.01l.2-.12h.02s-.01-.03-.01-.03l-.8-1.37v.03s.4-.24.4-.24h.02s-.01-.03-.01-.03l-.1-.17v-.02s-.03.01-.03.01l-1.01.59h-.02s.01.03.01.03ZM9.71,2.88l.1.17v-.03s-.4.24-.4.24h-.02s.01.03.01.03l.8,1.37v-.03s-.19.12-.19.12h.03s-.8-1.37-.8-1.37v-.02s-.03.01-.03.01l-.41.24h.03s-.1-.16-.1-.16v.03s1-.59,1-.59h-.03Z"/>
      <polygon class="cls-3" points="10.85 4.31 10.09 2.69 10.92 2.3 11 2.48 10.38 2.77 10.62 3.29 11.2 3.02 11.29 3.2 10.71 3.47 10.97 4.03 11.61 3.73 11.7 3.91 10.85 4.31"/>
      <path class="cls-3" d="M11.72,3.9l-.08-.18v-.02s-.03.01-.03.01l-.64.3h.03s-.26-.55-.26-.55v.03s.57-.27.57-.27h.02s-.01-.04-.01-.04l-.08-.18v-.02s-.03.01-.03.01l-.58.28h.03s-.24-.51-.24-.51v.03s.62-.3.62-.3h.02s-.01-.03-.01-.03l-.08-.18v-.02s-.03.01-.03.01l-.83.39h-.02s0,.03,0,.03l.77,1.62v.02s.03-.01.03-.01l.85-.4h.02s-.01-.03-.01-.03ZM10.87,4.3l-.76-1.62v.03s.82-.39.82-.39h-.03s.08.17.08.17v-.03s-.61.3-.61.3h-.02s.01.03.01.03l.25.52v.02s.03,0,.03,0l.58-.28h-.03s.08.17.08.17v-.03s-.57.28-.57.28h-.02s.01.03.01.03l.26.56v.02s.03-.01.03-.01l.64-.3h-.03s.08.17.08.17v-.03s-.83.4-.83.4h.03Z"/>
      <polygon class="cls-3" points="12.17 3.71 11.97 3.78 11.4 2.08 11.75 1.97 12.65 3.25 12.66 3.25 12.62 1.68 12.97 1.56 13.54 3.25 13.32 3.33 12.82 1.82 12.81 1.82 12.84 3.49 12.64 3.56 11.67 2.2 11.67 2.2 12.17 3.71"/>
      <path class="cls-3" d="M11.67,2.23h0s-.03-.01-.03-.01l.97,1.35v.02s.03,0,.03,0l.2-.07h.02v-.02l-.03-1.67-.02.02h0s-.03-.02-.03-.02l.5,1.51v.02s.03,0,.03,0l.22-.07h.02s0-.03,0-.03l-.57-1.7v-.02s-.03,0-.03,0l-.36.12h-.02s0,.02,0,.02l.04,1.57.02-.03h0s.03.01.03.01l-.9-1.28h0s-.02,0-.02,0l-.35.12h-.02s0,.03,0,.03l.57,1.7v.02s.03,0,.03,0l.2-.07h.02s0-.03,0-.03l-.51-1.51v.03ZM12.16,3.69l-.2.07h.03s-.57-1.68-.57-1.68l-.02.03.35-.12h-.03s.9,1.27.9,1.27h0s.02,0,.02,0h0s.02,0,.02,0v-.02l-.04-1.57-.02.02.36-.12-.03-.02.57,1.7.02-.03-.22.07h.03s-.51-1.49-.51-1.49v-.02s-.03,0-.03,0h0s-.02,0-.02,0v.02l.03,1.67.02-.02-.2.07h.03s-.97-1.34-.97-1.34v-.02s-.03,0-.03,0h0s-.02,0-.02,0v.02s.51,1.51.51,1.51l.02-.03Z"/>
      <path class="cls-3" d="M15.05,1.65c-.01-.1-.04-.2-.09-.25l-.21-.04c-.19.03-.24.15-.24.18,0,.02-.04.07,0,.38l.08.47c.07.43.22.46.39.43.07-.01.27-.07.22-.41l.23-.04c.1.56-.29.62-.41.64-.22.04-.56.07-.67-.61l-.08-.5c-.08-.5.12-.68.46-.73.35-.06.51.1.55.45l-.23.04Z"/>
      <path class="cls-3" d="M15.3,1.61c-.02-.19-.08-.33-.18-.4-.1-.07-.23-.1-.4-.07-.2.03-.33.1-.41.21-.09.13-.11.31-.07.55l.08.5c.12.72.49.66.7.63.07-.01.25-.04.36-.19.08-.11.1-.27.07-.47v-.02s-.03,0-.03,0l-.23.04h-.02s0,.03,0,.03c.05.31-.12.38-.2.39l-.2-.03c-.08-.05-.13-.18-.16-.38l-.08-.47c-.04-.26-.02-.33-.01-.35h0s.04-.14.22-.17l.19.04.08.23v.03s.03,0,.03,0l.23-.04h.02s0-.03,0-.03ZM15.07,1.65c-.01-.09-.04-.21-.1-.26l-.23-.05c-.2.03-.26.17-.26.2h0s-.03.11.01.38l.08.47c.03.22.09.35.18.42l.24.04c.07-.01.3-.08.24-.44l-.02.03.23-.04-.03-.02c.03.19.01.33-.06.43-.1.14-.26.16-.33.18-.2.03-.53.09-.64-.59l-.08-.5c-.04-.23-.02-.4.07-.51.07-.1.19-.16.38-.19.16-.02.27,0,.36.06.09.07.14.19.16.37l.02-.03-.23.04.03.02Z"/>
      <polygon class="cls-3" points="15.84 2.86 15.71 1.07 16.63 1.01 16.65 1.2 15.95 1.25 15.99 1.83 16.64 1.78 16.65 1.98 16.01 2.02 16.05 2.64 16.76 2.59 16.77 2.79 15.84 2.86"/>
      <path class="cls-3" d="M16.8,2.79l-.02-.2v-.02s-.03,0-.03,0l-.71.05.03.02-.04-.62-.02.03.64-.05h.02s0-.03,0-.03v-.2s-.02-.02-.02-.02h-.02s-.64.05-.64.05l.03.02-.04-.57-.02.03.69-.05h.02s0-.03,0-.03l-.02-.2v-.03s-.03,0-.03,0l-.92.06h-.03s0,.03,0,.03l.13,1.79v.02h.03l.93-.07h.03s0-.03,0-.03ZM15.86,2.85l-.12-1.78-.02.03.92-.06-.03-.02v.2s.04-.03.04-.03l-.69.05h-.03s0,.03,0,.03l.04.57v.02s.03,0,.03,0l.64-.04-.03-.02v.2s.04-.03.04-.03l-.64.04h-.02s0,.03,0,.03l.04.62v.03s.03,0,.03,0l.71-.05-.03-.02v.2s.04-.03.04-.03l-.93.07.03.02Z"/>
      <path class="cls-3" d="M17.31,1.77h.34c.16,0,.24-.13.25-.29,0-.13-.06-.27-.24-.28h-.35s0,.57,0,.57ZM17.31,1.97v.82s-.24,0-.24,0l.02-1.79h.62c.32.01.43.24.42.46,0,.21-.12.37-.33.41h0c.21.04.28.11.29.47,0,.08.02.36.06.47h-.24c-.06-.13-.04-.36-.06-.6-.01-.22-.19-.23-.27-.23h-.27Z"/>
      <path class="cls-3" d="M17.57,1.99c.1,0,.23.02.24.21v.2c.01.17.02.31.07.4h0s.02.01.02.01h.24s.04,0,.04,0v-.03c-.04-.11-.06-.39-.07-.46,0-.37-.09-.45-.31-.49l.02.02h0s-.02.02-.02.02c.21-.03.35-.2.35-.43,0-.29-.16-.47-.45-.48h-.62s-.02,0-.02,0v.03l-.02,1.79v.02h.25s.02,0,.02,0v-.85s-.01.02-.01.02h.27ZM17.28,1.96v.82s.01-.02.01-.02h-.23s.02.02.02.02l.02-1.79-.02.03h.62c.38.01.4.33.4.43,0,.21-.12.35-.31.38h-.02v.02h0s0,.03,0,.03h.02c.18.04.26.08.27.44,0,.07.02.36.06.48l.02-.03h-.24s.02.01.02.01c-.04-.08-.05-.22-.05-.38v-.21c-.02-.17-.12-.25-.3-.26h-.27s-.02,0-.02,0v.02Z"/>
      <path class="cls-3" d="M17.32,1.22h.34c.16,0,.21.13.21.25,0,.09-.03.17-.08.22l-.14.05h-.34s.02.02.02.02v-.57s-.02.02-.02.02ZM17.31,1.79h.34s.18-.06.18-.06c.06-.06.09-.15.09-.25,0-.14-.07-.3-.26-.3h-.34s-.03,0-.03,0v.59s0,.02,0,.02h.02Z"/>
      <polygon class="cls-3" points="19.6 1.12 19.58 1.32 19.12 1.28 18.98 2.86 18.76 2.84 18.89 1.26 18.42 1.22 18.44 1.02 19.6 1.12"/>
      <path class="cls-3" d="M18.41,1.02l-.02.2v.02s.02,0,.02,0l.47.04-.02-.03-.13,1.58v.02s.02,0,.02,0l.23.02h.02s0-.02,0-.02l.13-1.58-.02.02.47.04h.03s0-.02,0-.02l.02-.2v-.02s-.02,0-.02,0l-1.16-.1h-.03s0,.03,0,.03ZM19.58,1.12l-.02.2.03-.02-.47-.04h-.02s0,.02,0,.02l-.13,1.58.03-.02-.23-.02.02.03.13-1.58v-.02s-.02,0-.02,0l-.47-.04.02.03.02-.2-.03.02,1.16.1-.02-.03Z"/>
      <rect class="cls-3" x="19.06" y="1.96" width="1.79" height=".23" transform="translate(15.1 21.54) rotate(-81.94)"/>
      <path class="cls-3" d="M20.2,1.18l-.23-.03h-.02s0,.02,0,.02l-.25,1.77v.02s.02,0,.02,0l.23.03h.03s0-.02,0-.02l.25-1.77v-.02s-.02,0-.02,0ZM19.95,2.95l-.23-.03.02.03.25-1.77-.03.02.22.03-.02-.03-.25,1.77.03-.02Z"/>
      <polygon class="cls-3" points="20.35 3.04 20.7 1.28 21.57 1.46 21.53 1.65 20.88 1.52 20.77 2.09 21.38 2.21 21.34 2.4 20.73 2.28 20.57 3.08 20.35 3.04"/>
      <path class="cls-3" d="M20.59,3.09l.16-.8-.03.02.61.12h.02s0-.02,0-.02l.04-.19v-.02s-.02,0-.02,0l-.61-.12.02.03.11-.56-.03.02.65.13h.02s0-.02,0-.02l.04-.2v-.02s-.02,0-.02,0l-.87-.17h-.02s0,.02,0,.02l-.35,1.76v.03s.02,0,.02,0l.22.04h.02s0-.02,0-.02ZM20.37,3.04l.35-1.75-.03.02.87.17-.02-.03-.04.19.03-.02-.65-.13h-.02s0,.02,0,.02l-.11.56v.03s.02,0,.02,0l.61.12-.02-.03-.04.2.03-.02-.61-.12h-.02s0,.02,0,.02l-.16.8.03-.02-.23-.04.02.03Z"/>
      <rect class="cls-3" x="20.91" y="2.33" width="1.79" height=".23" transform="translate(13.91 22.92) rotate(-75.3)"/>
      <path class="cls-3" d="M22.15,1.59l-.22-.06h-.02s0,.02,0,.02l-.45,1.73v.02s.02,0,.02,0l.22.06h.02s0-.02,0-.02l.45-1.73v-.02s-.02,0-.02,0ZM21.7,3.32l-.22-.06.02.03.45-1.73-.03.02.22.06-.02-.03-.45,1.73.03-.02Z"/>
      <path class="cls-3" d="M23.27,2.48c.03-.09.06-.19.03-.26l-.17-.14c-.18-.06-.29.02-.3.04-.01.02-.07.04-.17.34l-.15.45c-.14.41-.02.51.15.57.07.02.27.07.39-.26l.22.07c-.17.54-.55.41-.66.37-.21-.07-.53-.2-.31-.85l.16-.48c.16-.48.42-.54.75-.43.34.11.41.33.27.65l-.22-.08Z"/>
      <path class="cls-3" d="M23.52,2.56c.07-.18.08-.32.03-.44-.05-.11-.15-.19-.32-.25-.39-.13-.63,0-.79.45l-.16.48c-.24.69.13.82.32.89.07.02.24.08.41,0,.13-.06.22-.19.28-.39v-.02s-.02,0-.02,0l-.22-.08h-.02s0,.01,0,.01c-.1.3-.28.27-.36.25-.15-.05-.27-.13-.13-.54l.15-.45c.09-.25.14-.3.16-.32h0s.11-.1.27-.05l.15.12-.04.25v.02s.02,0,.02,0l.22.08h.02s0-.01,0-.01ZM23.3,2.48l.03-.28-.18-.15c-.19-.06-.31.03-.33.06h0s-.08.08-.17.34l-.15.45c-.14.41-.04.53.16.6.07.02.3.07.42-.28l-.03.02.22.07-.02-.03c-.06.18-.14.3-.26.36-.15.07-.3.02-.37,0-.19-.06-.51-.17-.29-.82l.16-.48c.14-.42.36-.54.72-.42.15.05.25.12.29.22.05.1.04.23-.03.4h.03s-.22-.09-.22-.09l.02.03Z"/>
      <path class="cls-3" d="M24.56,2.7h0s-.65.75-.65.75l.52.24.14-.99ZM24.53,2.46l.26.12-.22,1.87-.23-.11.06-.44-.63-.29-.3.33-.21-.1,1.27-1.38Z"/>
      <path class="cls-3" d="M23.25,3.86l.21.1h.02s.01,0,.01,0l.3-.33h-.03s.63.29.63.29v-.03s-.08.44-.08.44v.02s.01,0,.01,0l.23.11h.03s0-.02,0-.02l.22-1.87v-.02s-.01,0-.01,0l-.26-.12h-.02s-.01,0-.01,0l-1.26,1.38-.02.03h.03ZM24.52,2.48l.26.12v-.03s-.24,1.87-.24,1.87l.04-.02-.23-.11v.03s.08-.44.08-.44v-.02s-.01,0-.01,0l-.63-.29h-.02s-.01,0-.01,0l-.3.33h.03s-.21-.1-.21-.1v.04s1.27-1.38,1.27-1.38h-.03Z"/>
      <path class="cls-3" d="M24.44,3.67l-.52-.24v.04s.66-.75.66-.75h-.03s0,0,0,0v-.03s-.15.99-.15.99l.04-.02ZM24.58,2.68h0s-.02,0-.02,0h-.01s-.65.76-.65.76l-.02.03h.03s.52.25.52.25l.03.02v-.03s.14-.99.14-.99v-.02s-.01,0-.01,0Z"/>
      <polygon class="cls-3" points="26.37 3.44 26.27 3.61 25.86 3.37 25.07 4.75 24.87 4.63 25.66 3.26 25.26 3.02 25.36 2.85 26.37 3.44"/>
      <path class="cls-3" d="M25.33,2.84l-.1.17v.02s0,.01,0,.01l.41.24v-.03s-.8,1.38-.8,1.38v.02s0,.01,0,.01l.2.11h.02s.01,0,.01,0l.8-1.38h-.04s.41.24.41.24h.02s.01-.01.01-.01l.1-.17v-.02s-.01-.01-.01-.01l-1.01-.59h-.02s-.01,0-.01,0ZM26.35,3.42l-.1.17h.04s-.41-.24-.41-.24h-.02s-.01.01-.01.01l-.8,1.38h.03s-.2-.12-.2-.12v.03s.8-1.38.8-1.38v-.02s0-.01,0-.01l-.41-.24v.03s.11-.17.11-.17h-.03s1.01.59,1.01.59v-.03Z"/>
      <rect class="cls-3" x="25.4" y="4.36" width="1.79" height=".23" transform="translate(7.75 23.64) rotate(-55.61)"/>
      <path class="cls-3" d="M26.91,3.78l-.19-.13h-.02s-.01,0-.01,0l-1.01,1.47v.02s0,.01,0,.01l.19.13h.02s.01,0,.01,0l1.01-1.48v-.02s0-.01,0-.01ZM25.9,5.25l-.19-.13v.03s1.02-1.48,1.02-1.48h-.03s.19.13.19.13v-.03s-1.02,1.48-1.02,1.48h.04Z"/>
      <path class="cls-3" d="M27.33,5.58l.38-.47c.24-.29.05-.46,0-.51-.06-.04-.26-.2-.5.09l-.38.47c-.25.3-.22.45-.05.59.17.14.32.13.57-.17M26.64,5l.37-.45c.23-.28.51-.34.81-.1.29.24.29.53.06.81l-.37.45c-.31.38-.58.42-.87.18-.29-.24-.31-.51,0-.89"/>
      <path class="cls-3" d="M26.63,5.91c.31.26.59.2.91-.18l.37-.45c.12-.15.18-.31.17-.45-.01-.14-.09-.27-.24-.39-.14-.12-.29-.17-.43-.15-.15.01-.29.1-.41.25l-.37.45c-.17.21-.25.39-.23.55.01.13.09.26.23.37M26.66,5.02l.37-.45c.12-.14.24-.22.38-.23.13-.01.26.03.39.14.13.11.2.23.22.36.01.14-.04.28-.15.42l-.37.46c-.3.36-.55.41-.84.17-.13-.11-.2-.22-.21-.34-.02-.15.06-.32.22-.52"/>
      <path class="cls-3" d="M26.78,5.73c-.15-.12-.19-.25.06-.55l.38-.47c.19-.23.36-.17.46-.09l.12.2c0,.08-.03.18-.11.28l-.38.47c-.25.3-.38.29-.53.17M27.35,5.59l.38-.47c.09-.11.13-.21.12-.31,0-.06-.03-.15-.13-.23-.08-.07-.3-.19-.54.09l-.38.47c-.23.29-.25.46-.05.62.2.16.36.11.6-.18"/>
      <polygon class="cls-3" points="29.54 6.15 28.25 7.38 28.03 7.16 28.67 5.57 28.66 5.57 27.54 6.64 27.4 6.5 28.69 5.26 28.92 5.49 28.29 7.05 28.29 7.06 29.4 6 29.54 6.15"/>
      <path class="cls-3" d="M29.38,5.98l-1.11,1.06h.03,0s0,.02,0,.02l.62-1.56v-.02s0-.01,0-.01l-.22-.23-.02-.02-.02.02-1.29,1.24-.02.02.02.02.14.15.02.02.02-.02,1.12-1.07h-.03,0s0-.02,0-.02l-.63,1.58h0s.01.03.01.03l.22.23.02.02.02-.02,1.29-1.24.02-.02-.02-.02-.14-.15-.02-.02-.02.02ZM29.52,6.13l-1.29,1.24h.04s-.22-.22-.22-.22v.03s.64-1.58.64-1.58h0s-.01-.03-.01-.03h0s-.02-.02-.02-.02l-.02.02-1.12,1.07h.03l-.14-.15v.03l1.29-1.24h-.04s.22.23.22.23v-.03s-.63,1.56-.63,1.56v.02s0,.01,0,.01h0s.02.02.02.02l.02-.02,1.11-1.06h-.04s.14.14.14.14v-.04Z"/>
      <path class="cls-2" d="M44.73,29.47c-.03.2-.05.4-.06.59-.01.2-.03.39-.04.59h-.06s-.06-.01-.06-.01h-.06s-.06.01-.06.01c.06-.3.11-.6.15-.9.04-.3.08-.6.12-.9h.05s.05.01.05.01h.1c.05.09.1.2.15.3.05.11.1.22.16.32.05.11.1.21.15.31.05.1.1.2.15.29.1-.19.21-.4.31-.61.1-.21.2-.42.3-.63h.11s.11,0,.11,0c.02.15.04.31.06.48.02.17.04.34.06.5.02.16.04.32.06.46.02.14.04.26.05.35h-.11s-.1-.01-.1-.01h-.11s-.11.01-.11.01c0-.18-.02-.38-.04-.59-.02-.21-.04-.42-.06-.62h0c-.1.2-.2.4-.29.6-.1.2-.19.4-.28.6h-.02s-.02,0-.02,0h-.02s-.02,0-.02,0c-.09-.2-.19-.4-.28-.59-.09-.2-.19-.39-.29-.59h0Z"/>
      <path class="cls-2" d="M47.9,29.96c-.04-.1-.08-.21-.11-.31-.04-.1-.08-.21-.12-.31-.04.1-.09.2-.13.31-.04.1-.08.21-.12.31h.48ZM47.87,28.84c.05.15.11.31.18.47.06.17.13.33.19.49.07.16.13.32.19.46.06.15.12.27.17.38h-.12s-.11-.01-.11-.01h-.11s-.11.01-.11.01l-.09-.27c-.03-.09-.06-.18-.09-.27h-.17s-.17,0-.17,0h-.13s-.13,0-.13,0l-.1.27c-.03.09-.06.18-.08.27h-.06s-.06-.01-.06-.01h-.06s-.07.01-.07.01l.08-.2c.03-.08.07-.17.11-.27.04-.1.09-.21.14-.32.05-.11.1-.23.14-.35.05-.12.09-.23.14-.35.05-.12.09-.22.12-.32h.05s.05.01.05.01h.05s.05-.01.05-.01Z"/>
      <path class="cls-2" d="M49.17,29.37c0-.12,0-.22,0-.3v-.22s.11.01.11.01h.12c.19.2.38.4.56.61.19.21.37.41.57.62v-.73s0-.23,0-.23v-.18s-.01-.1-.01-.1h.12s.12,0,.12,0c0,.13-.01.24-.02.35,0,.11,0,.21-.01.3,0,.1,0,.18,0,.27,0,.09,0,.18,0,.27,0,.09,0,.19,0,.28v.32h-.05s-.05-.01-.05-.01h-.1c-.18-.2-.36-.41-.55-.62-.19-.21-.38-.42-.58-.63,0,.1,0,.2,0,.3v.3c0,.11,0,.19,0,.27v.18s0,.12,0,.12v.08s-.06,0-.06,0h-.06s-.12,0-.12,0v-.08s.02-.16.02-.16v-.22c.02-.08.02-.17.02-.26,0-.09,0-.18,0-.28,0-.09,0-.18,0-.27"/>
      <path class="cls-2" d="M52.18,29.96c-.04-.1-.08-.21-.11-.31-.04-.1-.08-.21-.12-.31-.05.1-.09.2-.13.31-.04.1-.08.21-.12.31h.48ZM52.15,28.84c.06.15.11.31.18.47.06.17.12.33.19.49.06.16.12.32.19.46.06.15.12.27.17.38h-.12s-.11-.01-.11-.01h-.11s-.11.01-.11.01l-.08-.27c-.03-.09-.06-.18-.09-.27h-.17s-.17,0-.17,0h-.14s-.13,0-.13,0l-.1.27c-.03.09-.06.18-.08.27h-.06s-.06-.01-.06-.01h-.06s-.07.01-.07.01l.08-.2c.03-.08.07-.17.11-.27.04-.1.09-.21.14-.32.05-.11.1-.23.14-.35.05-.12.09-.23.14-.35.05-.12.09-.22.13-.32h.05s.05.01.05.01h.05s.05-.01.05-.01Z"/>
      <path class="cls-2" d="M54.78,29.24l-.21-.19c-.08-.05-.18-.07-.3-.07l-.24.05-.21.15c-.06.07-.11.15-.15.25s-.06.22-.06.36c0,.11.01.2.04.29l.12.23.2.15c.08.04.17.06.27.06h.08s.08-.01.08-.01h.07s.05-.04.05-.04v-.08s0-.1,0-.1c0-.14,0-.24,0-.31v-.14s.06,0,.06,0h.12s.14,0,.14,0h.07s-.01.06-.01.06v.11s-.01.13-.01.13v.13s0,.09,0,.09v.08s0,.07,0,.07v.05c-.11.03-.23.06-.34.08-.12.02-.23.03-.35.03-.15,0-.29-.02-.41-.06-.12-.04-.23-.1-.33-.18-.09-.08-.16-.17-.21-.27-.05-.11-.08-.23-.08-.36,0-.16.03-.31.08-.43.05-.12.13-.23.23-.31.1-.08.21-.14.34-.19.13-.04.27-.06.43-.06.13,0,.25.01.34.04.1.03.19.07.29.12l-.04.13-.03.13h-.04Z"/>
      <path class="cls-2" d="M55.58,29.57v-.2s0-.18,0-.18v-.17s-.01-.17-.01-.17h.23s.23.01.23.01h.34s.12,0,.12,0h.08s0,.04,0,.04v.06s0,.07,0,.07v.05s-.16-.01-.16-.01h-.17s-.15-.02-.15-.02h-.1c0,.09-.01.19-.01.28,0,.09,0,.19,0,.28.11,0,.22,0,.31,0,.09,0,.19,0,.28-.01v.07s-.01.05-.01.05v.04s.01.06.01.06c-.2-.02-.39-.02-.59-.02v.17s0,.17,0,.17c0,.11,0,.22,0,.33.1,0,.2,0,.3,0,.1,0,.2-.01.3-.02v.05s-.01.07-.01.07v.07s.01.05.01.05h-.17c-.07-.01-.16-.01-.28-.01-.11,0-.19,0-.26,0h-.15s-.09,0-.09,0h-.05s0-.16,0-.16v-.17s0-.18,0-.18v-.2s0-.35,0-.35Z"/>
      <path class="cls-2" d="M57.4,29.47c-.03.2-.05.4-.06.59-.01.2-.03.39-.04.59h-.06s-.06-.01-.06-.01h-.06s-.06.01-.06.01c.06-.3.1-.6.15-.9s.08-.6.12-.9h.05s.05.01.05.01h.1c.05.09.1.2.15.3.05.11.1.22.15.32.05.11.1.21.15.31.05.1.1.2.15.29.1-.19.21-.4.31-.61.1-.21.2-.42.29-.63h.11s.11,0,.11,0c.02.15.04.31.06.48.02.17.04.34.06.5.02.16.04.32.06.46.02.14.04.26.05.35h-.1s-.11-.01-.11-.01h-.11s-.11.01-.11.01c0-.18-.02-.38-.04-.59-.02-.21-.04-.42-.06-.62h0c-.1.2-.2.4-.29.6-.1.2-.19.4-.28.6h-.02s-.02,0-.02,0h-.02s-.02,0-.02,0c-.09-.2-.19-.4-.28-.59-.09-.2-.19-.39-.29-.59h0Z"/>
      <path class="cls-2" d="M59.76,29.57v-.2s0-.18,0-.18v-.17s-.01-.17-.01-.17h.23s.23.01.23.01h.34s.12,0,.12,0h.08s0,.04,0,.04v.06s0,.07,0,.07v.05s-.16-.01-.16-.01h-.17s-.15-.02-.15-.02h-.1c0,.09-.01.19-.01.28,0,.09,0,.19,0,.28.11,0,.22,0,.31,0,.09,0,.19,0,.29-.01v.07s-.01.05-.01.05v.04s.01.06.01.06c-.2-.02-.39-.02-.59-.02v.17s0,.17,0,.17c0,.11,0,.22,0,.33.1,0,.2,0,.3,0,.1,0,.2-.01.3-.02v.05s-.01.07-.01.07v.07s.01.05.01.05h-.17c-.07-.01-.16-.01-.28-.01-.11,0-.19,0-.26,0h-.15s-.09,0-.09,0h-.05s0-.16,0-.16v-.17s0-.18,0-.18v-.2s0-.35,0-.35Z"/>
      <path class="cls-2" d="M61.4,29.37c0-.12,0-.22,0-.3v-.22s.11.01.11.01h.12c.19.2.38.4.56.61.19.21.37.41.57.62v-.73s0-.23,0-.23v-.18s-.01-.1-.01-.1h.12s.12,0,.12,0c0,.13-.01.24-.02.35,0,.11,0,.21-.01.3,0,.1,0,.18,0,.27,0,.09,0,.18,0,.27,0,.09,0,.19,0,.28v.32h-.05s-.05-.01-.05-.01h-.1c-.18-.2-.36-.41-.55-.62-.19-.21-.38-.42-.58-.63,0,.1,0,.2,0,.3v.3c0,.11,0,.19,0,.27v.18s.01.12.01.12v.08s-.06,0-.06,0h-.06s-.12,0-.12,0v-.08s.02-.16.02-.16v-.22c.02-.08.02-.17.02-.26,0-.09,0-.18,0-.28,0-.09,0-.18,0-.27"/>
      <polygon class="cls-2" points="63.99 29.28 63.99 29.14 63.99 29.05 63.89 29.05 63.77 29.06 63.64 29.07 63.51 29.08 63.52 29.03 63.52 28.97 63.52 28.91 63.51 28.85 63.67 28.86 63.82 28.86 63.98 28.87 64.19 28.87 64.39 28.87 64.56 28.86 64.7 28.86 64.85 28.85 64.84 28.91 64.83 28.97 64.84 29.03 64.85 29.08 64.73 29.07 64.6 29.06 64.48 29.05 64.39 29.05 64.38 29.14 64.38 29.28 64.38 29.93 64.38 30.13 64.39 30.31 64.39 30.48 64.4 30.65 64.3 30.64 64.19 30.64 64.07 30.64 63.97 30.65 63.98 30.48 63.99 30.31 63.99 30.13 63.99 29.93 63.99 29.28"/>
      <path class="cls-2" d="M49.46,31.81c-.06-.15-.16-.22-.32-.22l-.2.07-.07.16.06.16.15.11.19.09.19.11.15.16c.04.06.06.14.06.24l-.05.24-.14.19-.22.12c-.08.03-.18.04-.28.04-.09,0-.18-.01-.25-.03l-.17-.08.04-.17.03-.16h.05l.04.11.07.09.11.06.14.02c.1,0,.18-.03.23-.08l.07-.19-.06-.16-.14-.11-.19-.09-.19-.11-.14-.16c-.04-.06-.06-.15-.06-.24,0-.09.02-.17.05-.24l.13-.17.19-.11.22-.04c.1,0,.18.01.25.03l.18.09-.04.11-.04.14h-.04Z"/>
      <path class="cls-2" d="M50.97,32.24l.1-.17.1-.2.1-.21.09-.2h.06s.06.01.06.01h.06s.06-.01.06-.01l-.11.19c-.04.08-.09.16-.14.26s-.1.19-.15.28c-.05.1-.1.18-.14.27v.13s0,.13,0,.13v.26c0,.09.01.18.03.28h-.11s-.11-.01-.11-.01h-.11s-.11.01-.11.01l.02-.25v-.25s.01-.12.01-.12v-.12s-.1-.19-.1-.19l-.11-.21-.11-.21-.1-.19-.08-.16-.06-.11h.12s.12.01.12.01h.12s.12-.01.12-.01l.1.21.11.23.1.2.08.13h0Z"/>
      <path class="cls-2" d="M52.92,31.81c-.06-.15-.16-.22-.31-.22l-.2.07-.08.16.06.16.15.11.19.09.19.11.15.16c.04.06.06.14.06.24l-.05.24-.14.19-.22.12c-.08.03-.18.04-.28.04-.09,0-.18-.01-.25-.03l-.17-.08.04-.17.03-.16h.05l.04.11.07.09.11.06.14.02c.1,0,.18-.03.23-.08l.08-.19-.06-.16-.14-.11-.19-.09-.19-.11-.14-.16c-.04-.06-.06-.15-.06-.24,0-.09.02-.17.05-.24l.13-.17.18-.11.22-.04c.09,0,.17.01.25.03l.18.09-.04.11-.04.14h-.04Z"/>
      <polygon class="cls-2" points="54.05 31.88 54.05 31.74 54.04 31.65 53.95 31.65 53.83 31.66 53.69 31.67 53.57 31.68 53.58 31.63 53.58 31.57 53.58 31.51 53.57 31.45 53.73 31.46 53.87 31.46 54.03 31.47 54.24 31.47 54.45 31.47 54.61 31.46 54.75 31.46 54.9 31.45 54.9 31.51 54.89 31.57 54.9 31.63 54.9 31.68 54.79 31.67 54.66 31.66 54.54 31.65 54.44 31.65 54.44 31.74 54.44 31.88 54.44 32.53 54.44 32.73 54.44 32.91 54.45 33.08 54.46 33.25 54.36 33.24 54.24 33.24 54.13 33.24 54.03 33.25 54.04 33.08 54.05 32.91 54.05 32.73 54.05 32.53 54.05 31.88"/>
      <path class="cls-2" d="M55.45,32.18v-.38s-.01-.17-.01-.17v-.17s.22,0,.22,0h.23s.18,0,.18,0h.16s.12,0,.12,0h.08s0,.04,0,.04v.06s0,.06,0,.06v.05s-.16,0-.16,0h-.17s-.15-.02-.15-.02h-.1c0,.09,0,.19-.01.28,0,.09,0,.19,0,.28.11,0,.21,0,.31,0,.09,0,.19,0,.29-.01v.07s-.01.05-.01.05v.04s.01.06.01.06c-.2-.02-.39-.02-.59-.02v.17s0,.17,0,.17c0,.11,0,.22,0,.33.1,0,.2,0,.3,0,.1,0,.2-.01.3-.03v.05s-.01.07-.01.07v.07s.01.05.01.05h-.17c-.07-.01-.16-.01-.28-.01-.11,0-.19,0-.26,0h-.16s-.09,0-.09,0h-.05s0-.16,0-.16v-.17s.01-.18.01-.18v-.56Z"/>
      <path class="cls-2" d="M57.27,32.07c-.03.2-.05.39-.06.59-.02.2-.03.39-.04.59h-.06s-.06-.01-.06-.01h-.06s-.06.01-.06.01c.05-.3.1-.6.15-.9.04-.29.08-.6.12-.9h.05s.05.01.05.01h.1c.05.09.1.2.15.3.05.11.1.22.16.32.05.11.1.21.15.31.05.1.1.2.15.29.11-.19.21-.4.31-.61.1-.21.2-.42.29-.63h.11s.11,0,.11,0c.02.15.04.31.05.48.02.17.04.34.06.5.02.16.04.32.06.46.02.14.04.26.05.35h-.1s-.11-.01-.11-.01h-.11s-.11.01-.11.01c0-.18-.02-.38-.04-.59-.02-.21-.04-.42-.06-.62h0c-.1.2-.2.4-.29.6-.1.2-.19.4-.29.6h-.02s-.02,0-.02,0h-.03s-.02,0-.02,0c-.1-.2-.19-.4-.28-.59-.09-.2-.19-.39-.29-.59h0Z"/>
      <path class="cls-2" d="M60.43,31.81c-.06-.15-.16-.22-.31-.22l-.2.07-.08.16.06.16.15.11.19.09.19.11.15.16c.04.06.06.14.06.24l-.05.24-.14.19-.22.12c-.08.03-.18.04-.28.04-.09,0-.18-.01-.25-.03l-.17-.08.05-.17.03-.16h.05l.04.11.07.09.11.06.14.02c.1,0,.18-.03.23-.08l.08-.19-.06-.16-.14-.11-.19-.09-.19-.11-.14-.16c-.04-.06-.06-.15-.06-.24,0-.09.02-.17.05-.24l.13-.17.18-.11.22-.04c.09,0,.17.01.25.03l.18.09-.04.11-.04.14h-.04Z"/>
      <polygon class="cls-4" points=".23 19.65 .19 19.31 2.85 19.01 2.89 19.35 .23 19.65"/>
      <path class="cls-4" d="M3.01,19.33l-.04-.34v-.12s-.14.01-.14.01l-2.67.3H.05s.01.14.01.14l.04.34v.12s.14-.01.14-.01l2.66-.3h.12s-.02-.14-.02-.14ZM.35,19.63l-.04-.34-.11.14,2.66-.3-.14-.11.04.34.11-.14-2.67.3.14.11Z"/>
      <path class="cls-4" d="M1.16,20.53l-.08.02c-.36.08-.42.32-.37.54.06.27.21.45.52.38.58-.12.26-1.29,1.05-1.46.46-.1.78.18.88.62.1.48-.07.8-.61.89l-.07-.35c.29-.06.46-.19.39-.5-.04-.2-.19-.38-.47-.32-.58.12-.24,1.28-1.07,1.46-.55.12-.81-.23-.9-.66-.17-.77.42-.9.67-.94l.07.33Z"/>
      <path class="cls-4" d="M1.07,20.08c-.15.03-.5.09-.68.37-.12.19-.15.43-.09.72.13.59.51.87,1.05.75.53-.11.65-.56.75-.93.08-.3.14-.49.32-.53.22-.05.3.1.32.23.02.1.01.17-.02.22-.04.06-.13.11-.27.13l-.12.03.03.12.07.35.02.12.12-.02c.29-.05.5-.16.62-.34.12-.18.15-.41.09-.69-.12-.54-.52-.82-1.02-.71-.5.11-.62.55-.72.91-.09.31-.15.51-.33.55-.1.02-.18.01-.23-.03l-.14-.26.03-.25c.05-.07.13-.12.25-.14l.07-.02.12-.03-.03-.12-.07-.33-.03-.12-.12.02ZM1.14,20.41l-.08.02c-.18.04-.32.12-.4.25-.08.12-.1.27-.07.44.04.19.13.33.25.41.11.07.26.1.42.06.34-.07.43-.4.52-.72.09-.34.18-.66.53-.73.37-.08.64.12.73.52.05.22.03.39-.05.5-.08.12-.24.2-.46.24l.14.1-.07-.35-.1.15c.21-.04.35-.12.43-.24.07-.11.09-.25.05-.41-.07-.32-.31-.48-.62-.42-.34.07-.42.4-.51.71-.09.35-.18.67-.56.75-.4.09-.66-.1-.76-.56-.05-.23-.03-.4.05-.53.13-.2.4-.25.52-.27l-.14-.1.07.33.09-.15Z"/>
      <path class="cls-4" d="M2.24,23.65l.85-.31c.53-.19.41-.56.37-.66-.04-.1-.19-.46-.71-.26l-.85.31c-.55.2-.63.41-.52.72.11.3.31.41.86.21M1.8,22.39l.83-.3c.5-.18.92-.04,1.11.49.2.53-.03.91-.53,1.09l-.83.3c-.7.26-1.07.1-1.26-.43-.2-.53-.02-.89.68-1.15"/>
      <path class="cls-4" d="M1,23.59c.23.62.68.78,1.42.51l.83-.3c.3-.11.51-.28.61-.51.1-.22.1-.47,0-.75-.1-.28-.26-.47-.48-.57-.22-.1-.49-.1-.79.01l-.83.3c-.74.27-.98.69-.76,1.31M1.84,22.51l.83-.3c.24-.09.44-.09.6-.02.15.07.27.22.35.43.08.22.08.4.01.56-.08.16-.23.29-.47.38l-.83.3c-.71.26-.95.04-1.1-.36-.15-.4-.1-.73.61-.99"/>
      <path class="cls-4" d="M1.5,23.4c-.07-.2-.08-.36.45-.56l.85-.31c.29-.1.47-.04.55.19.09.23-.01.4-.3.5l-.85.31c-.53.2-.63.06-.7-.14M2.29,23.77l.85-.31c.41-.15.58-.46.45-.82-.13-.36-.46-.49-.87-.34l-.85.31c-.56.21-.74.47-.59.88.15.41.46.49,1.02.28"/>
      <path class="cls-4" d="M2.21,25.85l.25-.15c1.29.11,1.57.2,1.96-.03.17-.1.24-.26.13-.45-.13-.22-.34-.15-.51-.04l-.18-.3c.35-.24.7-.2.93.17.24.4.17.7-.23.94-.49.29-.81.15-1.9.02l.52.88-.26.15-.71-1.19Z"/>
      <path class="cls-4" d="M2.98,27.15l.26-.15.11-.06-.06-.11-.52-.88-.12.19c.25.03.45.06.63.08.62.09.93.13,1.35-.12.46-.27.55-.64.27-1.1-.12-.21-.29-.33-.47-.37-.2-.04-.42.01-.63.16l-.09.07.06.1.18.3.06.11.11-.07c.14-.08.21-.09.25-.08l.09.08.03.15-.12.13c-.27.16-.49.14-1.22.07l-.66-.06h-.04s-.03.02-.03.02l-.26.15-.11.06.06.11.71,1.19.06.11.11-.06ZM2.27,25.96l.26-.15-.07.02.66.06c.77.07,1.03.1,1.37-.11.12-.07.21-.17.23-.29.02-.07.02-.19-.06-.33-.06-.11-.15-.17-.25-.2-.12-.03-.27,0-.44.11l.17.04-.18-.3-.04.17c.15-.11.31-.15.44-.12.12.03.23.11.31.26.2.34.15.57-.19.77-.35.21-.59.17-1.19.09-.18-.03-.39-.05-.64-.08l-.25-.03.13.21.52.88.04-.17-.26.15.17.04-.71-1.19-.04.17Z"/>
      <path class="cls-4" d="M3.4,27.73l.23-.18c1.3-.06,1.58,0,1.94-.28.16-.13.21-.29.07-.46-.16-.2-.35-.11-.52.02l-.22-.27c.32-.29.67-.29.94.06.29.36.26.67-.11.96-.45.35-.78.25-1.89.26l.63.8-.23.18-.85-1.09Z"/>
      <path class="cls-4" d="M4.33,28.92l.23-.18.1-.08-.08-.1-.63-.8-.1.2c.25,0,.45,0,.63,0,.63,0,.94.01,1.32-.29.21-.16.32-.34.35-.53.02-.19-.05-.39-.21-.61-.15-.19-.33-.29-.52-.31-.2-.02-.41.07-.6.24l-.09.08.07.09.21.28.08.1.1-.08c.12-.1.2-.12.24-.11l.1.07c.06.07.1.17-.05.29-.25.19-.47.2-1.2.23l-.66.02h-.04s-.03.03-.03.03l-.23.18-.1.07.08.1.86,1.09.08.1.1-.08ZM3.47,27.83l.23-.18-.07.03.66-.02c.77-.02,1.03-.03,1.35-.28.23-.18.26-.42.09-.63-.08-.1-.17-.15-.27-.16-.13-.02-.27.04-.42.16l.18.02-.22-.28v.17c.13-.13.27-.19.4-.18.12,0,.24.08.34.22.13.16.18.3.16.42-.01.12-.1.24-.25.36-.32.25-.57.25-1.17.24-.18,0-.39,0-.64,0h-.25s.15.2.15.2l.63.8.02-.17-.23.18.17.02-.85-1.09-.02.17Z"/>
      <path class="cls-4" d="M5.86,28.78c-.3.31-.71.68-.44.94.27.27.64-.14.94-.45.49-.49.79-.8.54-1.05-.25-.25-.55.06-1.04.55M6.65,29.47c-.47.48-.94.95-1.43.46-.5-.49-.03-.96.45-1.44.49-.49.94-.96,1.44-.46.5.5.04.95-.45,1.44"/>
      <path class="cls-4" d="M7.19,27.94c-.17-.17-.35-.25-.53-.25-.38,0-.71.34-1.06.69l-.02.02c-.35.35-.7.7-.69,1.09,0,.19.09.36.25.53.16.16.34.25.53.25.38,0,.74-.36,1.07-.7l.03-.03c.35-.35.68-.69.68-1.06,0-.19-.08-.37-.25-.53M6.57,29.38h0c-.3.31-.62.63-.9.63-.12,0-.23-.06-.35-.17-.12-.12-.18-.23-.18-.35,0-.28.31-.6.61-.9l.03-.03c.31-.32.61-.62.88-.62.12,0,.24.06.36.18.12.12.18.24.18.36,0,.27-.29.57-.61.89l-.02.02Z"/>
      <path class="cls-4" d="M6.82,28.32l.05.11c0,.17-.29.46-.59.76l-.06.06c-.19.2-.43.44-.6.44l-.11-.05-.05-.11c0-.17.24-.41.43-.6l.06-.06c.32-.32.59-.6.76-.6l.11.05ZM5.77,28.69l-.06.06c-.25.25-.51.51-.51.78,0,.11.04.2.13.28.08.08.18.12.29.12.27,0,.53-.26.77-.51l.05-.06c.39-.39.67-.67.67-.94,0-.1-.04-.2-.13-.28-.08-.08-.18-.12-.28-.12-.27,0-.55.28-.93.67"/>
      <path class="cls-4" d="M7.39,30.17c-.27.35-.62.76-.32.99.3.23.61-.22.88-.56.42-.55.68-.89.4-1.1-.28-.21-.54.12-.96.68M8.26,30.76c-.41.53-.81,1.06-1.36.64-.55-.43-.15-.95.26-1.48.42-.55.81-1.07,1.37-.64.56.43.16.94-.26,1.49"/>
      <path class="cls-4" d="M8.6,29.17c-.19-.14-.37-.2-.56-.18-.37.05-.66.42-.96.82l-.02.02c-.3.39-.6.78-.55,1.16.02.19.13.35.31.49.18.14.37.2.56.18.38-.05.68-.45.97-.83l.03-.03c.3-.4.59-.77.54-1.14-.02-.19-.13-.35-.32-.49M8.16,30.68h0c-.26.35-.53.7-.81.74-.12.02-.24-.02-.37-.13-.13-.1-.2-.21-.22-.33-.04-.28.23-.63.49-.97l.03-.03c.27-.35.53-.69.8-.72.12-.02.24.03.38.13.13.1.21.21.22.33.04.27-.22.6-.49.96l-.02.03Z"/>
      <path class="cls-4" d="M8.28,29.6c.17.13,0,.37-.42.93l-.05.06c-.17.22-.37.49-.54.51l-.12-.04-.07-.1c-.02-.16.19-.44.36-.65l.05-.06c.28-.36.51-.67.68-.69l.11.04ZM7.29,30.1l-.05.06c-.22.28-.44.57-.41.84.02.11.07.2.16.27.09.07.19.1.3.09.27-.04.49-.33.7-.61l.05-.06c.44-.57.76-.99.38-1.28-.09-.07-.19-.1-.29-.09-.27.04-.51.35-.84.79"/>
      <path class="cls-4" d="M9.09,31.36c-.22.38-.52.84-.19,1.03.33.19.58-.3.8-.67.35-.6.56-.97.26-1.15-.3-.18-.52.19-.87.79M10.03,31.83c-.34.58-.67,1.16-1.27.8-.6-.35-.27-.92.07-1.5.35-.6.66-1.16,1.27-.81.61.35.28.91-.07,1.51"/>
      <path class="cls-4" d="M10.16,30.22c-.2-.12-.4-.15-.58-.1-.36.1-.6.5-.85.93l-.02.03c-.25.42-.5.85-.4,1.22.05.18.17.33.37.45.71.41,1.09-.25,1.43-.84l.02-.04c.25-.43.49-.84.39-1.2-.05-.18-.17-.33-.38-.45M9.92,31.77h0c-.37.65-.63,1.03-1.1.76-.14-.08-.23-.18-.26-.29-.07-.27.15-.66.37-1.03l.02-.04c.23-.39.44-.75.7-.82.12-.03.24,0,.39.08.15.09.23.18.26.3.07.26-.14.63-.37,1.01l-.02.03Z"/>
      <path class="cls-4" d="M9.89,30.68l.08.09c.04.16-.15.5-.38.89l-.04.07c-.14.24-.31.54-.47.58l-.12-.02-.08-.09c-.04-.16.13-.46.27-.69l.04-.07c.36-.61.52-.85.7-.75M8.98,31.3l-.04.07c-.18.31-.37.62-.3.88.03.1.09.19.19.24.1.06.2.07.31.05.26-.07.44-.39.62-.69l.04-.07c.28-.47.48-.82.41-1.08-.03-.1-.09-.18-.19-.24-.41-.24-.68.21-1.04.84"/>
      <path class="cls-3" d="M55.09,4.25s.15.02.16-.09l-.08-.18-.19-.02h-.28.01v-.48l-.07-.09h-.09l-.06.09v.48h-.29l-.19.02-.1.18.18.09s.48-.05.99,0"/>
    </g>
  </g>
</svg>