<?xml version="1.0" encoding="UTF-8"?>
<svg id="_레이어_2" data-name="레이어 2" xmlns="http://www.w3.org/2000/svg" xmlns:xlink="http://www.w3.org/1999/xlink" viewBox="0 0 39.99 38.64">
  <defs>
    <style>
      .cls-1, .cls-2 {
        fill: #004ea2;
      }

      .cls-3 {
        clip-path: url(#clippath-2);
      }

      .cls-4 {
        fill: url(#_무제_그라디언트_8-4);
      }

      .cls-4, .cls-5, .cls-6, .cls-7, .cls-8, .cls-9, .cls-10, .cls-11, .cls-2, .cls-12, .cls-13, .cls-14 {
        stroke-width: 0px;
      }

      .cls-5 {
        fill: url(#_무제_그라디언트_8);
      }

      .cls-15 {
        clip-path: url(#clippath-6);
      }

      .cls-6 {
        fill: none;
      }

      .cls-16 {
        clip-path: url(#clippath-7);
      }

      .cls-17 {
        clip-path: url(#clippath-1);
      }

      .cls-18 {
        clip-path: url(#clippath-4);
      }

      .cls-7 {
        fill: url(#_무제_그라디언트_10-3);
      }

      .cls-8 {
        fill: url(#_무제_그라디언트_10);
      }

      .cls-9 {
        fill: url(#_무제_그라디언트_8-5);
      }

      .cls-19 {
        clip-path: url(#clippath);
      }

      .cls-10 {
        fill: #003b83;
      }

      .cls-20 {
        clip-path: url(#clippath-3);
      }

      .cls-21 {
        clip-path: url(#clippath-8);
      }

      .cls-11 {
        fill: url(#_무제_그라디언트_8-3);
      }

      .cls-22 {
        clip-path: url(#clippath-5);
      }

      .cls-12 {
        fill: url(#_무제_그라디언트_8-2);
      }

      .cls-13 {
        fill: url(#_무제_그라디언트_10-4);
      }

      .cls-14 {
        fill: url(#_무제_그라디언트_10-2);
      }
    </style>
    <clipPath id="clippath">
      <path class="cls-6" d="M13.47,14.07c1.51,3.13,4.65,6.32,6.84,6.44-.12-1.04-.48-1.95-2.58-3.88-1.61-1.48-4.26-2.56-4.26-2.56Z"/>
    </clipPath>
    <linearGradient id="_무제_그라디언트_8" data-name="무제 그라디언트 8" x1="-940.53" y1="411.85" x2="-939.53" y2="411.85" gradientTransform="translate(-1239.23 -532.96) rotate(-180) scale(1.34 -1.34)" gradientUnits="userSpaceOnUse">
      <stop offset="0" stop-color="#d80c24"/>
      <stop offset=".34" stop-color="#d80c24"/>
      <stop offset=".4" stop-color="#d80c24"/>
      <stop offset=".64" stop-color="#d50b23"/>
      <stop offset=".74" stop-color="#ce0a20"/>
      <stop offset=".82" stop-color="#c2091c"/>
      <stop offset=".88" stop-color="#b00715"/>
      <stop offset=".94" stop-color="#99040d"/>
      <stop offset=".99" stop-color="#7d0103"/>
      <stop offset="1" stop-color="#750000"/>
    </linearGradient>
    <clipPath id="clippath-1">
      <path class="cls-6" d="M10.54,17.3c1.44,3.13,4.73,5.81,6.82,6.64l2.95-3.44c-2.18-.12-5.33-3.31-6.84-6.44l-2.93,3.23Z"/>
    </clipPath>
    <linearGradient id="_무제_그라디언트_8-2" data-name="무제 그라디언트 8" x1="-853.43" y1="-84.36" x2="-852.43" y2="-84.36" gradientTransform="translate(-472.23 -4913.54) rotate(-90) scale(5.78 -5.78)" xlink:href="#_무제_그라디언트_8"/>
    <clipPath id="clippath-2">
      <polygon class="cls-6" points="4.92 0 3.71 1.39 10.54 1.39 10.54 0 4.92 0"/>
    </clipPath>
    <linearGradient id="_무제_그라디언트_10" data-name="무제 그라디언트 10" x1="-1291.1" y1="-272.36" x2="-1290.1" y2="-272.36" gradientTransform="translate(-298.22 -1447.67) rotate(-90) scale(1.12 -1.12)" gradientUnits="userSpaceOnUse">
      <stop offset="0" stop-color="#f7f8f8"/>
      <stop offset=".77" stop-color="#f7f8f8"/>
      <stop offset=".84" stop-color="#f1f2f2"/>
      <stop offset=".94" stop-color="#e1e2e2"/>
      <stop offset="1" stop-color="#d3d3d4"/>
    </linearGradient>
    <clipPath id="clippath-3">
      <polygon class="cls-6" points="10.54 0 10.54 1.39 17.37 1.39 16.15 0 10.54 0"/>
    </clipPath>
    <linearGradient id="_무제_그라디언트_10-2" data-name="무제 그라디언트 10" x1="-518.8" y1="-578.02" x2="-517.8" y2="-578.02" gradientTransform="translate(596.38 -647.18) scale(1.12 -1.12)" xlink:href="#_무제_그라디언트_10"/>
    <clipPath id="clippath-4">
      <polygon class="cls-6" points="3.71 1.39 2.85 2.38 4.96 4.71 10.54 4.71 10.54 1.39 3.71 1.39"/>
    </clipPath>
    <linearGradient id="_무제_그라디언트_8-3" data-name="무제 그라디언트 8" x1="-814.91" y1="117.67" x2="-813.91" y2="117.67" gradientTransform="translate(-3128.91 -449.94) rotate(-180) scale(3.85 -3.85)" xlink:href="#_무제_그라디언트_8"/>
    <clipPath id="clippath-5">
      <polygon class="cls-6" points="10.54 1.39 10.54 4.71 16.12 4.71 18.23 2.38 17.37 1.39 10.54 1.39"/>
    </clipPath>
    <linearGradient id="_무제_그라디언트_8-4" data-name="무제 그라디언트 8" x1="-590.01" y1="29.21" x2="-589.01" y2="29.21" gradientTransform="translate(-98.05 2272.87) rotate(90) scale(3.85 -3.85)" xlink:href="#_무제_그라디언트_8"/>
    <clipPath id="clippath-6">
      <polygon class="cls-6" points="0 5.71 7.61 14.07 9.45 12.03 1.86 3.54 0 5.71"/>
    </clipPath>
    <linearGradient id="_무제_그라디언트_8-5" data-name="무제 그라디언트 8" x1="-659.35" y1="-2.01" x2="-658.35" y2="-2.01" gradientTransform="translate(18.48 4528.1) rotate(90) scale(6.86 -6.86)" xlink:href="#_무제_그라디언트_8"/>
    <clipPath id="clippath-7">
      <polygon class="cls-6" points="10.54 10.84 11.62 12.04 19.22 3.54 18.23 2.38 10.54 10.84"/>
    </clipPath>
    <linearGradient id="_무제_그라디언트_10-3" data-name="무제 그라디언트 10" x1="-842" y1="184.25" x2="-841" y2="184.25" gradientTransform="translate(-2293.58 -497.38) rotate(-180) scale(2.74 -2.74)" xlink:href="#_무제_그라디언트_10"/>
    <clipPath id="clippath-8">
      <polygon class="cls-6" points="1.86 3.54 9.46 12.04 10.54 10.84 2.85 2.38 1.86 3.54"/>
    </clipPath>
    <linearGradient id="_무제_그라디언트_10-4" data-name="무제 그라디언트 10" x1="-525.86" y1="53.87" x2="-524.86" y2="53.87" gradientTransform="translate(-141.32 1449.89) rotate(90) scale(2.74 -2.74)" xlink:href="#_무제_그라디언트_10"/>
  </defs>
  <g id="_레이어_1-2" data-name="레이어 1">
    <g>
      <path class="cls-10" d="M20.7,31.84c-.12-.13-1.03-1.2-1.56-1.91v-.02s0-.02,0-.02l1.93-2.05h-1.11c.1.08.15.17.15.27,0,.08-.02.2-.19.37l-.11.12-.12.13h0l-1.25,1.34c.12.15.15.19.15.2h0s.09.12.09.12c.05.07.12.16.2.27.08.11.19.26.33.46.41.59.8.96.96,1.12l.02.02c.17.17.4.26.69.26.19,0,.4,0,.6-.03-.22-.16-.37-.26-.45-.33-.09-.07-.21-.17-.34-.31"/>
      <path class="cls-10" d="M18.37,32.35c-.05-.06-.08-.16-.09-.28-.02-.11-.02-.27-.02-.48v-2.87c0-.21,0-.37.02-.49.02-.12.05-.21.09-.28l.12-.12h-1.13c.09.06.15.14.18.24.04.12.06.33.06.64v2.87c0,.2,0,.37-.03.48-.02.12-.05.21-.1.28l-.12.12h1.13l-.12-.12Z"/>
      <path class="cls-10" d="M25.68,30.99c-.09.24-.21.45-.37.61-.16.17-.35.3-.58.39-.23.09-.48.14-.74.14-.52,0-.95-.18-1.27-.54-.11-.13-.22-.27-.31-.45-.09-.17-.16-.35-.2-.54s-.07-.37-.07-.55c0-.36.08-.69.23-.98.15-.29.38-.51.66-.68.28-.16.6-.24.96-.24.25,0,.5.05.72.16.22.1.42.25.59.43.17.18.3.41.39.65.09.25.14.52.14.8s-.04.56-.13.79M25.84,28.4c-.23-.22-.5-.39-.81-.51-.31-.12-.65-.18-1-.18-.48,0-.93.11-1.33.32-.4.22-.73.51-.96.88-.23.37-.35.78-.35,1.22s.12.87.34,1.24c.23.37.54.67.93.88.39.21.83.32,1.3.32.35,0,.69-.07,1.01-.19.31-.12.59-.3.83-.53.24-.22.43-.49.57-.78.13-.29.2-.61.2-.94s-.06-.67-.19-.97c-.12-.3-.3-.56-.53-.78"/>
      <path class="cls-10" d="M30.53,31.95s-1.38-1.6-1.48-1.73l-.03-.04h.05c.22-.07.42-.16.6-.28.17-.12.3-.26.4-.43.09-.16.14-.33.14-.51,0-.23-.06-.43-.18-.6-.12-.18-.29-.31-.52-.41-.23-.09-.49-.14-.78-.14-.13,0-.23,0-.32,0-.1,0-.21,0-.33,0h-.92c.09.06.15.15.18.24.04.12.06.33.06.64v2.87c0,.2,0,.37-.03.48-.02.12-.05.21-.1.28l-.12.12h1.13l-.12-.12c-.05-.07-.08-.16-.1-.28-.02-.11-.02-.27-.02-.48v-3.32h.03c.19-.04.36-.06.5-.06.18,0,.33.03.47.1.14.07.25.16.32.29.08.12.12.27.12.43,0,.55-.4.9-1.18,1.05.07.12.18.28.29.42l.11.16c.28.41.68.87,1.06,1.31.1.11.18.2.23.27.17.19.3.34.41.44.11.09.21.16.32.2.1.04.23.05.37.05.07,0,.26,0,.54-.02l-.24-.15c-.22-.16-.51-.43-.84-.8"/>
      <path class="cls-10" d="M33.45,32.01c-.29,0-.58-.03-.88-.08h-.03v-1.76h.83c.16,0,.29.02.37.05l.17.1v-.63l-.22.04h-1.16v-1.39h.03c.2-.04.6-.06.88-.06.25,0,.44.02.56.06.11.03.21.09.31.18v-.72l-.24.03h-2.44l.12.12c.05.07.08.16.1.28.02.12.02.28.02.49v2.88c0,.21,0,.37-.02.48-.02.12-.05.21-.1.28l-.12.12h2.84l.29-.81c-.11.07-.21.14-.32.18-.13.06-.28.1-.44.13-.16.02-.35.04-.58.04"/>
      <path class="cls-10" d="M38.16,30.31h-1.49l.02-.04.73-1.87.03-.08.03.08.72,1.87.02.04h-.04ZM39.99,32.47l-.18-.15c-.07-.07-.13-.16-.19-.27-.06-.11-.13-.27-.22-.5l-1.51-3.72h-.99l.07.07.06.18c0,.08-.03.19-.09.34l-1.25,3.14c-.13.33-.23.55-.31.65-.06.09-.15.18-.28.26h1.09l-.12-.1-.06-.19c0-.09.03-.21.08-.37l.41-1.08v-.02h1.85v.02s.43,1.08.43,1.08c.12.31.13.38.13.41l-.05.16-.12.09h1.25Z"/>
      <g class="cls-19">
        <rect class="cls-5" x="12.2" y="12.59" width="9.39" height="9.39" transform="translate(-7.28 17.01) rotate(-45)"/>
      </g>
      <polygon class="cls-2" points="7.61 14.07 10.54 10.84 13.47 14.07 10.54 17.3 7.61 14.07"/>
      <g class="cls-17">
        <rect class="cls-12" x="8.48" y="12.06" width="13.89" height="13.89" transform="translate(-8.92 16.47) rotate(-45)"/>
      </g>
      <g class="cls-3">
        <rect class="cls-8" x="4.22" y="-2.21" width="5.81" height="5.81" transform="translate(1.59 5.24) rotate(-45)"/>
      </g>
      <g class="cls-20">
        <rect class="cls-14" x="11.05" y="-2.21" width="5.81" height="5.81" transform="translate(3.59 10.07) rotate(-45)"/>
      </g>
      <g class="cls-18">
        <rect class="cls-11" x="2.8" y="-.84" width="7.79" height="7.79" transform="translate(-.2 5.63) rotate(-45)"/>
      </g>
      <g class="cls-22">
        <rect class="cls-4" x="10.49" y="-.84" width="7.79" height="7.79" transform="translate(2.06 11.07) rotate(-45)"/>
      </g>
      <g class="cls-15">
        <rect class="cls-9" x="-2.34" y="1.74" width="14.13" height="14.13" transform="translate(-4.84 5.92) rotate(-45)"/>
      </g>
      <g class="cls-16">
        <rect class="cls-7" x="8.39" y=".73" width="12.97" height="12.97" transform="translate(-.74 12.63) rotate(-45)"/>
      </g>
      <g class="cls-21">
        <rect class="cls-13" x="-.29" y=".73" width="12.97" height="12.97" transform="translate(-3.28 6.49) rotate(-45)"/>
      </g>
      <path class="cls-1" d="M5.38,38.64h11.33c-9.53-8.68-9.55-17.62-6.17-21.34l-2.93-3.23C2.67,19.51-.1,27.36,5.38,38.64"/>
      <polygon class="cls-1" points="11.63 12.03 13.47 14.07 21.08 5.71 19.22 3.54 11.63 12.03"/>
    </g>
  </g>
</svg>