<?xml version="1.0" encoding="UTF-8"?>
<svg id="_레이어_2" data-name="레이어 2" xmlns="http://www.w3.org/2000/svg" xmlns:xlink="http://www.w3.org/1999/xlink" viewBox="0 0 31.88 39.35">
  <defs>
    <style>
      .cls-1 {
        fill: #898989;
      }

      .cls-1, .cls-2, .cls-3, .cls-4 {
        stroke-width: 0px;
      }

      .cls-2 {
        fill: #ab0017;
      }

      .cls-3 {
        fill: none;
      }

      .cls-5 {
        clip-path: url(#clippath);
      }

      .cls-4 {
        fill: url(#_무제_그라디언트);
      }
    </style>
    <clipPath id="clippath">
      <path class="cls-3" d="M3.04,0C.34,0,.03,2.11,0,2.84v26.27c.03.73.34,2.84,3.04,2.84h25.9,0c2.04,0,2.72-1.2,2.94-2.11v-2.44H5.28c-.69-.09-.83-.61-.85-.89V5.46c.02-.31.18-.91,1.04-.91h13.6C21,4.55,24.03,2.15,25.15,0H3.04Z"/>
    </clipPath>
    <linearGradient id="_무제_그라디언트" data-name="무제 그라디언트" x1="-889.72" y1="-33.6" x2="-888.72" y2="-33.6" gradientTransform="translate(1397.71 36589.21) rotate(90) scale(41.12 -41.12)" gradientUnits="userSpaceOnUse">
      <stop offset="0" stop-color="#b5b5b6"/>
      <stop offset=".1" stop-color="#b5b5b6"/>
      <stop offset=".2" stop-color="#b9b9ba"/>
      <stop offset=".3" stop-color="#c6c6c7"/>
      <stop offset=".4" stop-color="#dcdcdc"/>
      <stop offset=".47" stop-color="#efefef"/>
      <stop offset=".67" stop-color="#f6f6f6"/>
      <stop offset="1" stop-color="#fff"/>
    </linearGradient>
  </defs>
  <g id="_레이어_1-2" data-name="레이어 1">
    <g>
      <path class="cls-1" d="M6.06,39.29h-.5v-4.09h.5v4.09ZM5.22,39.11h-.51v-2.04h-.57v-.51h.57v-1.26h.51v3.81ZM4.48,38.12l-.39.35c-.13-.11-.29-.25-.44-.46-.12-.16-.19-.27-.26-.45-.05.17-.12.28-.28.52-.15.22-.28.36-.46.53l-.44-.31c.23-.2.52-.57.68-.93.19-.43.21-.74.21-1.15v-.69h.55v.69c0,.43.05.94.28,1.29.21.33.34.46.53.61"/>
      <path class="cls-1" d="M10.69,39.29h-.5v-4.09h.5v4.09ZM9.35,37.27v-.6h-.5v-.49h.5v-.88h.5v3.81h-.5v-1.35h-.59v-.49h.59ZM8.86,35.68c0,.4-.09,1.15-.33,1.66-.3.62-.73,1.07-1.04,1.3l-.4-.29c.26-.18.65-.59.87-.99.25-.45.32-.92.35-1.22h-1v-.46h1.56Z"/>
      <path class="cls-1" d="M15.32,37.33h-.53v-2.13h.53v2.13ZM15.41,39.25h-2.98v-1.09h2.3v-.25h-2.3v-.43h2.88v1.08h-2.3v.25h2.4v.44ZM13.46,36.27c0-.26-.26-.47-.54-.47s-.54.21-.54.47.26.49.54.49.54-.22.54-.49M14,36.27c0,.57-.52.96-1.08.96s-1.08-.39-1.08-.96.51-.96,1.08-.96,1.08.38,1.08.96"/>
      <path class="cls-1" d="M19.82,37.34h-2.99v-1.25h2.38v-.31h-2.38v-.47h2.92v1.24h-2.39v.31h2.45v.47ZM20.29,38.11h-.98v1.19h-.52v-1.19h-.94v1.14h-.52v-1.14h-1v-.47h3.97v.47Z"/>
      <path class="cls-1" d="M25.1,36.62h-.54v.97h-.52v-2.39h.52v.93h.54v.49ZM22.19,38.52c0,.24.38.4.96.4s.96-.16.96-.4-.39-.4-.96-.4-.96.15-.96.4M24.69,38.52c0,.48-.54.83-1.54.83s-1.54-.34-1.54-.83.54-.84,1.54-.84,1.54.35,1.54.84M23.67,37l-.3.4c-.17-.06-.43-.21-.62-.39-.16-.14-.28-.26-.4-.45-.1.19-.25.37-.43.54-.22.2-.37.3-.55.4l-.37-.37c.23-.12.53-.33.75-.59.24-.28.33-.58.33-.94v-.29h.55v.29c0,.36.11.66.32.89.24.25.49.41.73.5"/>
      <path class="cls-1" d="M28.22,35.76h-1.08l.04.62h1l.04-.62ZM28.64,38.37h-1.92v.4h1.92v-.4ZM26.06,36.84v-.46h.6l-.04-.62h-.47v-.46h3.07v.46h-.47l-.04.62h.6v.46h-3.25ZM29.66,37.55h-1.7v.35h1.21v1.35h-2.98v-1.35h1.2v-.35h-1.7v-.47h3.96v.47Z"/>
      <path class="cls-1" d="M6.13,9.33h.64l.31,1.56c.03.15.03.26.03.26h0s0-.11.04-.26l.38-1.56h.49l.37,1.56c.04.15.04.26.04.26h0s0-.11.03-.26l.34-1.56h.63l-.63,2.49h-.68l-.31-1.26c-.04-.16-.05-.29-.05-.29h0s0,.13-.05.29l-.32,1.26h-.68l-.6-2.49Z"/>
      <path class="cls-1" d="M11.01,11.31c.37,0,.67-.32.67-.75s-.3-.71-.67-.71-.67.31-.67.71.3.75.67.75M11.01,9.29c.75,0,1.3.56,1.3,1.27s-.55,1.3-1.3,1.3-1.3-.57-1.3-1.3.55-1.27,1.3-1.27"/>
      <path class="cls-1" d="M13.66,10.46c.19,0,.32-.11.32-.31s-.07-.3-.38-.3h-.21v.61h.27ZM12.79,9.33h.87c.25,0,.38.02.48.06.28.11.46.36.46.72,0,.26-.13.55-.37.68h0s.04.05.1.16l.48.87h-.68l-.44-.84h-.29v.84h-.61v-2.49Z"/>
      <polygon class="cls-1" points="15.23 9.33 15.84 9.33 15.84 11.3 16.85 11.3 16.85 11.82 15.23 11.82 15.23 9.33"/>
      <path class="cls-1" d="M18.11,11.3c.42,0,.68-.25.68-.73s-.27-.72-.68-.72h-.25v1.45h.25ZM17.25,9.33h.88c.78,0,1.29.46,1.29,1.24s-.5,1.25-1.29,1.25h-.88v-2.49Z"/>
      <path class="cls-1" d="M7.48,13.58c.62,0,.93.35.93.35l-.28.46s-.28-.25-.62-.25c-.48,0-.7.35-.7.71s.24.75.7.75c.38,0,.66-.31.66-.31l.31.44s-.35.42-1,.42c-.78,0-1.31-.55-1.31-1.29s.56-1.28,1.31-1.28"/>
      <polygon class="cls-1" points="8.92 13.63 9.53 13.63 9.53 15.59 10.54 15.59 10.54 16.11 8.92 16.11 8.92 13.63"/>
      <path class="cls-1" d="M12.1,14.19s-.06.27-.1.43l-.14.48h.49l-.14-.48c-.04-.16-.1-.43-.1-.43h0ZM12.49,15.59h-.78l-.15.52h-.63l.85-2.49h.64l.85,2.49h-.63l-.15-.52Z"/>
      <path class="cls-1" d="M13.8,15.34s.28.26.59.26c.13,0,.26-.05.26-.2,0-.3-1.12-.29-1.12-1.05,0-.46.39-.76.88-.76.54,0,.8.28.8.28l-.26.5s-.25-.22-.55-.22c-.12,0-.26.06-.26.19,0,.32,1.12.26,1.12,1.04,0,.41-.32.77-.88.77s-.91-.36-.91-.36l.32-.46Z"/>
      <path class="cls-1" d="M15.79,15.34s.28.26.6.26c.12,0,.26-.05.26-.2,0-.3-1.12-.29-1.12-1.05,0-.46.38-.76.88-.76.53,0,.8.28.8.28l-.26.5s-.25-.22-.55-.22c-.12,0-.26.06-.26.19,0,.32,1.12.26,1.12,1.04,0,.41-.32.77-.88.77s-.91-.36-.91-.36l.32-.46Z"/>
      <path class="cls-1" d="M7.26,19.12c.21,0,.32-.14.32-.34s-.1-.34-.3-.34h-.31v.68h.3ZM6.35,17.92h1.03c.48,0,.81.36.81.86s-.33.86-.81.86h-.42v.77h-.61v-2.49Z"/>
      <path class="cls-1" d="M9.49,19.05c.19,0,.32-.11.32-.31s-.07-.3-.38-.3h-.2v.61h.26ZM8.62,17.92h.86c.25,0,.38.02.48.06.28.11.46.36.46.73,0,.26-.12.55-.37.68h0s.03.05.09.16l.48.87h-.68l-.44-.84h-.28v.84h-.61v-2.49Z"/>
      <path class="cls-1" d="M12.18,19.89c.37,0,.67-.32.67-.75s-.3-.71-.67-.71-.67.31-.67.71.3.75.67.75M12.18,17.88c.75,0,1.3.56,1.3,1.27s-.55,1.3-1.3,1.3-1.3-.57-1.3-1.3.55-1.27,1.3-1.27"/>
      <path class="cls-1" d="M14.83,19.89c.42,0,.68-.25.68-.73s-.27-.72-.68-.72h-.25v1.45h.25ZM13.97,17.92h.88c.78,0,1.28.46,1.28,1.24s-.5,1.25-1.28,1.25h-.88v-2.49Z"/>
      <path class="cls-1" d="M16.6,17.92h.61v1.57c0,.26.17.4.43.4s.43-.14.43-.4v-1.57h.61v1.57c0,.56-.41.96-1.04.96s-1.04-.4-1.04-.96v-1.57Z"/>
      <path class="cls-1" d="M20.43,17.88c.61,0,.93.35.93.35l-.28.46s-.28-.25-.62-.25c-.48,0-.7.35-.7.71s.24.75.7.75c.38,0,.66-.31.66-.31l.31.45s-.35.42-1,.42c-.78,0-1.31-.55-1.31-1.29s.56-1.28,1.31-1.28"/>
      <polygon class="cls-1" points="22.34 18.44 21.59 18.44 21.59 17.92 23.7 17.92 23.7 18.44 22.95 18.44 22.95 20.41 22.34 20.41 22.34 18.44"/>
      <path class="cls-1" d="M7.48,24.19c.37,0,.67-.32.67-.75s-.3-.71-.67-.71-.67.31-.67.71.3.75.67.75M7.48,22.17c.75,0,1.3.56,1.3,1.27s-.55,1.3-1.3,1.3-1.3-.57-1.3-1.3.55-1.27,1.3-1.27"/>
      <polygon class="cls-1" points="9.26 22.21 10.78 22.21 10.78 22.74 9.87 22.74 9.87 23.26 10.63 23.26 10.63 23.78 9.87 23.78 9.87 24.7 9.26 24.7 9.26 22.21"/>
      <polygon class="cls-1" points="11.96 22.21 12.57 22.21 12.57 23.17 12.82 23.17 13.34 22.21 13.99 22.21 13.32 23.4 13.32 23.41 14.03 24.7 13.35 24.7 12.82 23.69 12.57 23.69 12.57 24.7 11.96 24.7 11.96 22.21"/>
      <path class="cls-1" d="M15.37,24.19c.37,0,.67-.32.67-.75s-.3-.71-.67-.71-.67.31-.67.71.3.75.67.75M15.37,22.17c.75,0,1.3.56,1.3,1.27s-.55,1.3-1.3,1.3-1.3-.57-1.3-1.3.55-1.27,1.3-1.27"/>
      <path class="cls-1" d="M18.03,23.34c.19,0,.32-.11.32-.31,0-.19-.07-.3-.38-.3h-.21v.61h.27ZM17.15,22.21h.87c.25,0,.38.02.48.06.28.11.46.36.46.72,0,.26-.12.55-.37.68h0s.04.05.09.16l.48.87h-.68l-.44-.84h-.29v.84h-.61v-2.49Z"/>
      <polygon class="cls-1" points="19.59 22.21 21.15 22.21 21.15 22.74 20.2 22.74 20.2 23.19 20.96 23.19 20.96 23.71 20.2 23.71 20.2 24.18 21.2 24.18 21.2 24.7 19.59 24.7 19.59 22.21"/>
      <path class="cls-1" d="M22.64,22.78s-.05.27-.1.43l-.14.48h.49l-.14-.48c-.05-.16-.1-.43-.1-.43h0ZM23.04,24.18h-.78l-.15.52h-.63l.85-2.49h.64l.85,2.49h-.63l-.15-.52Z"/>
      <path class="cls-2" d="M28.12,0c-1.12,2.43-3.45,4.42-5.66,5.65v1.98h3.32v17.68h6.09V0h-3.76Z"/>
      <g class="cls-5">
        <rect class="cls-4" x="-6.57" y="-6.53" width="45.02" height="45.01" transform="translate(-6.57 17.64) rotate(-49.3)"/>
      </g>
    </g>
  </g>
</svg>