<?xml version="1.0" encoding="UTF-8"?>
<svg id="Layer_1" data-name="Layer 1" xmlns="http://www.w3.org/2000/svg" viewBox="0 0 170.08 170.08">
  <defs>
    <style>
      .cls-1 {
        fill: #fbb03f;
      }

      .cls-1, .cls-2, .cls-3 {
        stroke-width: 0px;
      }

      .cls-2 {
        fill: #fff;
      }

      .cls-3 {
        fill: #27bdbe;
      }
    </style>
  </defs>
  <path class="cls-2" d="m167.4,84.91c0,45.47-36.86,82.33-82.33,82.33S2.74,130.38,2.74,84.91,39.6,2.58,85.07,2.58s82.33,36.86,82.33,82.33"/>
  <path class="cls-3" d="m34.14,36.77c0,.61.1,1.18.31,1.7.21.52.49,1.01.85,1.46.36.45.78.87,1.25,1.26.47.39.97.77,1.5,1.13l-.99,1.48c-.32-.19-.65-.43-1.01-.72-.35-.29-.7-.6-1.04-.94-.34-.33-.66-.68-.96-1.05-.3-.36-.55-.71-.76-1.05-.38.7-.89,1.42-1.53,2.18-.63.75-1.38,1.43-2.23,2.03l-1.15-1.5c.49-.32.97-.69,1.44-1.12.47-.43.9-.9,1.27-1.42.38-.52.68-1.06.91-1.65.23-.58.34-1.19.34-1.83v-4.01h1.13c.29,0,.47.09.54.27.07.18.11.42.11.73v3.03Zm5.97,16.39v-5.25c0-.2-.07-.31-.21-.31h-7.83v-1.96h8.48c.38,0,.69.13.93.4.24.27.36.66.36,1.17v4.62c0,.5-.06.84-.19,1.04-.13.2-.33.29-.62.29h-.92Zm.05-8.65v-12.05h1.73v10.68c0,.47-.05.81-.16,1.04-.11.23-.32.34-.65.34h-.92Z"/>
  <path class="cls-3" d="m41.03,53.24h-.92v-.07h.07-.07v.07h-.07v-5.32c0-.19-.04-.23-.13-.23h-7.9v-2.11h8.55c.4,0,.73.14.98.43h0c.25.29.38.69.38,1.22h0v4.62c0,.5-.06.85-.2,1.08h0c-.14.22-.37.33-.67.33h-.01Zm0-.14c.27,0,.45-.09.56-.26h0c.11-.17.18-.51.18-1h0v-4.62c0-.5-.12-.87-.34-1.12h0c-.23-.25-.51-.38-.88-.38h-8.41s0,1.82,0,1.82h7.75c.19,0,.28.16.28.38h0v5.18h.85Zm.05-8.51h-.92v-.07h.07-.07v.07h-.07v-12.2h1.88v10.75c0,.47-.05.82-.17,1.07h0c-.12.25-.37.38-.71.38h-.01Zm0-.15c.31,0,.49-.1.59-.3h0c.1-.21.15-.54.15-1h0v-10.61h-1.59v11.91h.85Zm-12.78-1.69l.07-.04c.48-.32.96-.69,1.43-1.12h0c.47-.43.89-.89,1.26-1.41h0c.37-.51.67-1.05.9-1.63h0c.22-.57.34-1.17.34-1.8h0v-4.08h1.2c.3,0,.52.1.61.32h0c.08.19.12.45.12.76h0v3.03c0,.6.1,1.16.31,1.67h0c.2.52.48,1,.84,1.44h0c.36.45.77.86,1.24,1.25h0c.47.39.97.77,1.5,1.13h0l.06.04-1.07,1.6-.06-.03c-.32-.19-.66-.43-1.02-.73h0c-.36-.29-.71-.6-1.05-.94h0c-.34-.34-.66-.69-.97-1.05h0c-.27-.33-.5-.64-.7-.95h0c-.38.67-.87,1.36-1.48,2.08h0c-.64.76-1.39,1.44-2.24,2.04h0l-.06.04-1.23-1.62h0Zm1.27,1.42c.82-.58,1.54-1.24,2.16-1.97h0c.63-.75,1.14-1.48,1.52-2.17h0l.06-.11.07.11c.2.33.45.68.75,1.04h0c.3.36.62.71.96,1.04h0c.34.33.68.64,1.04.93h0c.33.27.64.5.94.68h0l.91-1.37c-.51-.35-.99-.72-1.45-1.1h0c-.48-.4-.9-.82-1.26-1.27h0c-.36-.46-.65-.95-.86-1.48h0c-.21-.53-.31-1.11-.31-1.73h0v-3.03c0-.3-.04-.53-.11-.7h0c-.06-.15-.2-.22-.47-.23h-1.06v3.94c0,.65-.11,1.27-.35,1.86h0c-.23.59-.54,1.14-.92,1.66h0c-.38.52-.81,1-1.28,1.43h0c-.45.41-.91.77-1.38,1.09h0l1.06,1.39h0Z"/>
  <path class="cls-3" d="m43.11,41.85h14.35v.94c0,.7-.24,1.05-.73,1.05h-5.57v2.03h4.31v4.49c0,.92-.17,1.62-.49,2.12-.33.5-.86.75-1.59.75h-6.76c-.4,0-.75-.19-1.04-.57-.29-.38-.44-.93-.44-1.66v-5.14h4.3v-2.03h-6.33v-1.98Zm3.26-7.3h-1.78v-1.9h11.41v1.9h-1.78v2.88c0,.16-.01.32-.03.47-.02.15-.05.31-.08.47h2.24v.85c0,.7-.25,1.05-.75,1.05h-11.29v-1.9h2.18c-.03-.14-.06-.3-.08-.46-.02-.16-.03-.33-.03-.5v-2.86Zm6.63,16.72c.24,0,.43-.05.57-.14.13-.09.2-.31.2-.64v-2.68h-6.92v2.94c0,.35.12.52.37.52h5.79Zm-1.02-12.9c.2,0,.34-.08.41-.24.07-.16.1-.39.1-.68v-2.9h-4.41v2.92c0,.28.04.49.11.65.07.16.2.24.38.24h3.4Z"/>
  <path class="cls-3" d="m45.53,52.71c-.31-.4-.45-.96-.45-1.7h0v-5.22h4.3v-1.88h-6.33v-2.13h14.49v1.01c0,.71-.27,1.12-.81,1.12h-5.49s0,1.88,0,1.88h4.31v4.56c0,.92-.17,1.65-.51,2.17h0c-.34.52-.9.79-1.65.78h-6.77c-.42,0-.8-.21-1.09-.6h0Zm-.31-1.7c0,.72.14,1.25.42,1.61h0c.28.37.61.54.98.54h6.76c.72,0,1.21-.24,1.53-.72h0c.32-.48.48-1.18.48-2.08h0v-4.42h-4.31v-2.17h5.64c.44,0,.65-.29.66-.97h0v-.86h-14.2v1.84h6.33v2.17h-4.3v5.07h0Zm1.99.33c-.29,0-.44-.24-.44-.6h0v-3.01h7.06v2.75c0,.34-.06.58-.23.7h0c-.15.11-.35.16-.61.16h0v-.15c.23,0,.41-.05.52-.13h0c.1-.07.17-.26.17-.58h0v-2.61h-6.77v2.87c0,.34.1.45.29.45h5.79v.15h-5.79Zm-2.98-11.01v-2.04h2.16c-.02-.12-.05-.25-.06-.38h0c-.02-.16-.03-.33-.03-.51h0v-2.78h-1.78v-2.04h11.55v2.04h-1.78v2.81c0,.16-.01.32-.03.48h0c-.02.13-.04.26-.06.39h2.23v.92c0,.71-.28,1.12-.82,1.12h-11.37Zm.15-.15h11.22c.45,0,.67-.29.67-.97h0v-.78h-2.26l.02-.09c.03-.16.06-.31.08-.46h0c.02-.15.03-.3.03-.46h0v-2.95h1.78v-1.75h-11.26v1.75h1.71v.07-.07h.07v2.93c0,.17.01.33.03.49h0c.02.16.05.31.08.45h0l.02.09h-2.2v1.75h0Zm7.61-1.75v-.14c.18,0,.28-.06.34-.2h0c.06-.15.1-.36.1-.65h0v-2.83h-4.26v2.85c0,.27.04.48.1.62h0c.07.14.16.19.32.2h3.4v.14h-3.4c-.2,0-.37-.1-.45-.28h0c-.08-.18-.12-.4-.12-.69h0v-2.99h4.55v2.97c0,.3-.03.53-.11.7h0c-.07.18-.25.28-.46.28h-.01Z"/>
  <path class="cls-3" d="m57.49,38.47c0-.87.11-1.64.32-2.31.21-.67.5-1.23.87-1.69.37-.46.8-.81,1.3-1.05.5-.24,1.04-.36,1.62-.36s1.11.12,1.6.36c.49.24.92.59,1.28,1.05.36.46.64,1.02.85,1.69.21.67.32,1.44.33,2.31,0,.83-.1,1.58-.3,2.26-.2.68-.49,1.25-.85,1.72-.37.47-.8.84-1.3,1.09-.5.25-1.03.38-1.61.38s-1.09-.12-1.59-.36c-.5-.24-.93-.59-1.3-1.05-.37-.46-.67-1.02-.88-1.7-.22-.68-.33-1.46-.33-2.34m1.73-.02c0,.58.07,1.09.21,1.51.14.43.32.78.54,1.07.22.28.48.5.76.64.29.14.57.22.86.22.35,0,.67-.08.95-.25.29-.17.53-.4.73-.71.2-.31.36-.67.47-1.09.11-.42.17-.89.17-1.39s-.06-.97-.18-1.38c-.12-.41-.29-.77-.49-1.07-.21-.3-.45-.53-.73-.69-.28-.16-.59-.24-.91-.24s-.65.09-.94.26c-.29.17-.54.41-.75.72-.21.31-.38.66-.5,1.08-.12.41-.18.85-.18,1.32m2.24,14.71c-.39,0-.71-.16-.96-.48-.25-.32-.37-.73-.37-1.24v-5.03h1.77v4.34c0,.28.07.41.21.41h7.68v1.11c0,.6-.24.89-.71.89h-7.6Zm6.2-5.69v-15.02h1.72v5.3h2.16v1.98h-2.16v6.52c0,.46-.05.78-.14.96-.1.17-.3.26-.6.26h-.97Z"/>
  <path class="cls-3" d="m61.47,53.24v-.15h7.6c.44,0,.63-.24.64-.82h0v-1.04h-7.61c-.21,0-.28-.21-.28-.49h0v-4.26h-1.62v4.96c0,.5.12.89.36,1.2h0c.24.3.53.45.91.45h0v.15c-.41,0-.76-.17-1.02-.51h0c-.26-.33-.39-.77-.39-1.29h0v-5.11h1.91v4.41c0,.27.06.34.13.34h7.75v1.18c0,.61-.27.96-.79.97h-7.6Zm7.17-5.69h-.97v-.07h.07-.07v.07h-.07v-15.16h1.86v5.29s2.16,0,2.16,0v2.13h-2.16v6.44c0,.47-.05.8-.15.99h0c-.11.21-.35.3-.66.3h0Zm0-.14c.3,0,.46-.08.54-.22h0c.08-.15.14-.46.13-.92h0v-6.59h2.16v-1.84h-2.16v-5.29h-1.57v14.87h.9Zm-8.67-3.77c-.51-.25-.95-.6-1.33-1.07h0c-.38-.47-.68-1.04-.9-1.72h0c-.22-.68-.33-1.47-.33-2.37h0c0-.88.11-1.65.32-2.33h0c.21-.68.51-1.25.88-1.71h0c.37-.47.81-.82,1.32-1.06h0c.51-.25,1.06-.37,1.65-.37h0c.58,0,1.13.12,1.63.37h0c.5.24.94.6,1.31,1.06h0c.37.47.66,1.04.86,1.71h0c.21.68.32,1.45.33,2.33h0c0,.83-.1,1.59-.3,2.28h0c-.2.68-.49,1.26-.86,1.74h0c-.37.48-.81.85-1.32,1.11h0c-.51.26-1.06.39-1.64.39h0c-.57,0-1.11-.12-1.62-.37h0Zm-2.41-5.16c0,.88.11,1.65.32,2.32h0c.21.67.5,1.23.87,1.68h0c.36.45.79.79,1.28,1.03h0c.49.24,1.01.35,1.56.35h0c.56,0,1.09-.12,1.57-.37h0c.49-.25.91-.6,1.27-1.07h0c.36-.46.64-1.03.84-1.7h0c.2-.67.3-1.41.3-2.23h0c-.01-.87-.12-1.63-.32-2.29h0c-.2-.66-.48-1.22-.84-1.66h0c-.35-.45-.77-.79-1.25-1.03h0c-.48-.24-1-.35-1.57-.35h0c-.57,0-1.1.12-1.59.35h0c-.49.23-.91.58-1.27,1.03h0c-.36.45-.64,1-.85,1.67h0c-.21.66-.32,1.42-.32,2.29h0Zm3.14,3.27c-.3-.15-.56-.37-.79-.66h0c-.23-.29-.41-.65-.55-1.09h0c-.14-.44-.21-.95-.21-1.54h0c0-.47.06-.92.18-1.34h0c.12-.42.29-.79.51-1.1h0c.22-.31.47-.56.77-.74h0c.3-.18.62-.27.98-.27h0c.34,0,.66.08.95.25h0c.29.17.54.4.76.71h0c.21.3.38.67.5,1.09h0c.12.42.19.89.19,1.41h0c0,.51-.06.98-.17,1.41h0c-.11.43-.27.8-.48,1.11h0c-.21.31-.46.56-.76.73h0c-.3.17-.63.26-.99.26h0c-.3,0-.6-.08-.89-.23h0Zm-1.2-1.8c.14.42.31.77.53,1.04h0c.22.28.46.48.74.62h0c.28.14.55.21.83.21h0c.34,0,.64-.08.92-.24h0c.28-.16.51-.39.71-.69h0c.2-.3.35-.65.46-1.07h0c.11-.41.17-.87.17-1.37h0c0-.5-.06-.96-.18-1.36h0c-.12-.41-.28-.76-.48-1.05h0c-.2-.29-.44-.51-.71-.67h0c-.27-.15-.56-.23-.88-.23h0c-.33,0-.62.08-.9.25h0c-.28.17-.52.4-.73.7h0c-.21.3-.37.65-.49,1.06h0c-.12.41-.18.84-.18,1.3h0c0,.57.07,1.07.2,1.49h0Z"/>
  <path class="cls-3" d="m72.24,33.11h7.81v.89c0,.38-.08.65-.24.81-.16.16-.34.24-.56.24h-2.26v2.94c0,.58.13,1.13.38,1.63.25.51.57.98.95,1.41.38.43.79.81,1.23,1.14.44.33.85.61,1.22.83l-1.1,1.57c-.31-.19-.63-.41-.95-.67-.33-.26-.65-.54-.96-.85-.31-.31-.61-.63-.89-.97-.28-.34-.52-.69-.72-1.04-.21.38-.47.77-.76,1.18-.3.41-.62.79-.96,1.15-.35.36-.7.69-1.05.99-.35.3-.7.53-1.02.71l-1.1-1.52c.57-.33,1.1-.72,1.59-1.17.49-.44.91-.91,1.26-1.4.35-.49.62-.99.83-1.5.2-.52.3-1.01.3-1.49v-2.94h-2.99v-1.94Zm4.07,20.07c-.4,0-.73-.16-.98-.48-.25-.32-.37-.73-.37-1.24v-5.08h1.77v4.38c0,.28.07.41.21.41h8v1.11c0,.29-.05.51-.16.66-.11.15-.29.23-.54.23h-7.92Zm6.47-5.71v-8.28h-3.28v-2.03h3.28v-4.71h1.75v13.71c0,.46-.05.8-.15,1-.1.2-.31.3-.61.3h-.99Z"/>
  <path class="cls-3" d="m84.23,53.26h-7.92v-.14h7.92c.24,0,.39-.07.48-.2h0c.09-.13.15-.34.15-.62h0v-1.04h-7.93c-.21,0-.28-.21-.28-.49h0v-4.31h-1.62v5c0,.5.12.89.36,1.2h0c.24.3.54.45.92.45h0v.14c-.42,0-.78-.17-1.04-.51h0c-.26-.34-.39-.77-.39-1.29h0v-5.15h1.91v4.45c0,.28.06.34.13.34h8.07v1.18c0,.3-.05.53-.17.71h0c-.12.18-.33.26-.59.26h0Zm-.46-5.71h-.99v-.07h.07-.07v.07h-.07v-8.28h-3.28v-2.17h3.28v-4.71h1.9v13.78c0,.47-.05.81-.16,1.03h0c-.11.23-.35.35-.67.35h0Zm0-.15c.29,0,.46-.09.55-.26h0c.09-.19.14-.51.14-.97h0v-13.64h-1.6v4.71h-3.28v1.88h3.28v8.28h.91Zm-12.62-3.87l.07-.04c.57-.33,1.09-.72,1.58-1.16h0c.48-.44.9-.9,1.25-1.38h0c.35-.48.62-.98.82-1.49h0c.2-.51.3-1,.3-1.47h0v-2.87h-2.99v-2.09h7.95v.97c0,.38-.08.68-.26.86h0c-.17.17-.38.26-.61.26h-2.19v2.87c0,.57.13,1.1.38,1.6h0c.25.5.57.97.94,1.39h0c.38.43.79.8,1.22,1.14h0c.44.33.84.61,1.21.82h0l.07.04-1.18,1.69-.06-.04c-.31-.19-.63-.42-.96-.68h0c-.33-.26-.65-.55-.97-.85h0c-.31-.31-.61-.63-.9-.98h0c-.25-.31-.48-.62-.67-.94h0c-.2.35-.44.71-.71,1.08h0c-.3.41-.62.8-.97,1.16h0c-.35.37-.7.7-1.06,1h0c-.36.3-.7.54-1.04.72h0l-.06.03-1.18-1.64h0Zm1.23,1.45c.31-.17.62-.39.96-.67h0c.35-.3.7-.62,1.04-.99h0c.34-.36.66-.74.96-1.15h0c.3-.4.55-.79.76-1.17h0l.06-.11.06.11c.2.35.44.69.72,1.03h0c.28.34.57.66.89.96h0c.31.3.63.58.96.84h0c.31.24.6.46.89.63h0l1.01-1.45c-.36-.21-.74-.48-1.16-.79h0c-.44-.34-.86-.72-1.24-1.15h0c-.39-.43-.71-.91-.96-1.42h0c-.26-.52-.39-1.07-.39-1.66h0v-3.01h2.33c.19,0,.36-.07.51-.22h0c.14-.14.22-.39.22-.75h0v-.82h-7.66v1.8h2.99v3.01c0,.49-.1,1-.31,1.52h0c-.2.52-.48,1.03-.84,1.52h0c-.35.49-.78.96-1.27,1.41h0c-.47.43-.98.81-1.53,1.13h0l1.01,1.41h0Z"/>
  <path class="cls-3" d="m85.4,42.72h2.42v-4.58h1.7v4.58h1.38c.71,0,1.41-.04,2.09-.13.68-.09,1.44-.27,2.28-.54v1.13c0,.33-.06.57-.17.71-.11.14-.27.25-.48.34-.45.19-1.11.32-2,.39-.89.07-1.89.11-3.01.11h-4.22v-2Zm.97-7.32v-1.98h6.68c.37,0,.64.15.82.44.17.29.26.64.26,1.05v.31c0,.42-.02.9-.07,1.45-.05.54-.12,1.09-.21,1.65-.09.55-.21,1.08-.34,1.59-.13.51-.28.94-.45,1.29l-1.32-.57c.21-.78.38-1.59.5-2.42.12-.83.18-1.66.18-2.48,0-.12-.01-.2-.04-.24-.03-.04-.08-.07-.17-.07h-5.84Zm3.24,17.76c-.39,0-.71-.16-.96-.48-.25-.32-.37-.73-.37-1.24v-5.06h1.72l.02,4.36c0,.28.07.41.21.41h7.9v1.11c0,.29-.05.51-.16.66-.11.15-.29.23-.54.23h-7.81Zm6.35-5.47v-15.23h1.73v6.58h2.16v1.98h-2.16v5.38c0,.86-.29,1.29-.86,1.29h-.87Z"/>
  <path class="cls-3" d="m88.6,52.73c-.26-.33-.39-.77-.39-1.29h0v-5.13h1.86l.02,4.43c0,.28.06.34.13.34h7.98v1.18c0,.3-.05.54-.17.71h0c-.12.18-.33.26-.6.26h-7.81v-.15h7.81c.24,0,.39-.07.48-.2h0c.09-.13.15-.34.15-.62h0v-1.04h-7.83c-.21,0-.28-.21-.28-.49h0l-.02-4.28h-1.57v4.98c0,.5.12.89.36,1.2h0c.24.3.53.45.9.45h0v.15h0c-.41,0-.76-.17-1.01-.51h0Zm7.37-4.96v-.07h.07-.07v.07h-.07v-15.38h1.88v6.58s2.16,0,2.16,0v2.13h-2.16v5.31c0,.86-.31,1.36-.93,1.36h-.88Zm.88-.15c.52,0,.78-.36.79-1.21h0v-5.46h2.16v-1.84h-2.16v-6.58h-1.59v15.09h.8Zm-11.51-2.82v-2.15h2.42v-4.58h1.85v4.58h1.31c.71,0,1.4-.04,2.08-.13h0c.68-.09,1.43-.27,2.27-.54h0l.09-.03v1.23c0,.34-.05.59-.18.75h0c-.12.15-.29.27-.51.36h0c-.46.19-1.13.32-2.03.4h0c-.89.07-1.9.11-3.01.11h-4.29Zm.14-.15h4.14c1.11,0,2.11-.04,3-.11h0c.89-.07,1.55-.2,1.98-.39h0c.2-.08.35-.19.46-.32h0c.09-.11.15-.34.15-.66h0v-1.03c-.81.26-1.54.43-2.2.52h0c-.69.09-1.39.13-2.1.13h-1.46v-4.58h-1.56v4.58h-2.42v1.86h0Zm6.17-4l.02-.06c.21-.78.38-1.59.5-2.41h0c.12-.82.18-1.65.18-2.47h0c0-.11-.02-.18-.03-.2h0s-.03-.03-.1-.03h-5.84v-.07h.07-.07v.07h-.07v-2.13h6.75c.39,0,.69.16.88.47h0c.18.3.27.67.27,1.08h0v.3c0,.42-.02.91-.07,1.45h0c-.05.55-.12,1.1-.22,1.65h0c-.09.55-.21,1.09-.34,1.6h0c-.13.51-.29.95-.46,1.3h0l-.03.06-1.44-.62h0Zm1.37.43c.16-.33.29-.74.42-1.21h0c.13-.51.25-1.03.34-1.59h0c.09-.55.17-1.1.21-1.64h0c.05-.54.07-1.02.07-1.44h0v-.3c0-.4-.08-.73-.25-1.01h0c-.17-.27-.41-.4-.76-.4h-6.61v1.84h5.76c.09,0,.18.02.23.1h0c.04.07.05.15.05.28h0c0,.83-.06,1.66-.18,2.49h0c-.12.81-.28,1.6-.49,2.37h0l1.2.51h0Z"/>
  <path class="cls-3" d="m102.5,45.23c0,.14.03.25.08.31.05.06.17.09.37.09,1.09,0,2.22-.05,3.38-.16,1.16-.11,2.26-.27,3.29-.49v1.24c0,.25-.06.44-.18.57-.12.13-.25.21-.39.24-.45.09-.94.17-1.47.24-.54.07-1.09.13-1.67.18-.58.05-1.17.09-1.77.11-.6.02-1.19.03-1.77.03s-.96-.12-1.21-.36c-.24-.24-.37-.73-.37-1.47v-6.47h4.83c.13,0,.21-.04.26-.11.05-.07.07-.2.07-.37v-3.44h-5.17v-1.96h6.87v6.28c0,.47-.11.84-.33,1.13-.22.29-.54.44-.98.44h-3.85v3.99Zm8.37,7.93v-20.7h1.73v19.37c0,.48-.07.82-.21,1.02-.14.2-.34.3-.62.3h-.91Z"/>
  <path class="cls-3" d="m111.78,53.24h-.91v-.07h.07-.07v.07h-.07v-20.85h1.88v19.45c0,.49-.07.84-.22,1.07h0c-.15.22-.38.34-.67.34h0Zm0-.14c.26,0,.43-.09.56-.27h0c.12-.18.2-.51.19-.98h0v-19.3h-1.59v20.56h.83Zm-10.68-5.81c-.27-.27-.39-.78-.39-1.52h0v-6.55h4.91c.11,0,.17-.03.2-.08h0s.06-.16.06-.33h0v-3.37h-5.17v-2.11h7.02v6.35c0,.48-.11.87-.34,1.18h0c-.23.31-.59.47-1.04.47h-3.78v3.92c0,.14.03.22.06.26h0s.13.06.31.06h0c1.09,0,2.21-.05,3.37-.16h0c1.16-.11,2.25-.27,3.28-.49h0l.09-.02v1.33c0,.26-.07.47-.2.62h0c-.13.14-.27.23-.43.26h0c-.45.09-.94.17-1.47.24h0c-.54.07-1.1.13-1.67.18h0c-.58.05-1.17.09-1.78.11h0c-.61.02-1.19.03-1.77.03h0c-.57,0-1-.12-1.26-.38h0Zm-.24-1.52c0,.73.12,1.21.34,1.42h0c.22.22.6.34,1.16.34h0c.57,0,1.16-.01,1.76-.03h0c.6-.02,1.19-.06,1.77-.11h0c.58-.05,1.13-.11,1.67-.18h0c.53-.07,1.02-.15,1.47-.24h0c.12-.02.24-.1.35-.22h0c.1-.11.16-.28.16-.52h0v-1.15c-1.01.21-2.07.37-3.2.47h0c-1.16.11-2.29.16-3.39.16h0c-.2,0-.33-.02-.42-.11h0c-.07-.08-.1-.2-.1-.35h0v-4.06h3.92c.42,0,.72-.14.92-.41h0c.21-.28.31-.64.31-1.09h0v-6.2h-6.73v1.82h5.17v3.52c0,.18-.02.31-.08.41h0c-.06.1-.18.14-.32.14h-4.76v6.4h0Z"/>
  <path class="cls-3" d="m114.43,38.48c0-.87.11-1.64.32-2.31.21-.67.5-1.23.87-1.69.37-.46.8-.81,1.3-1.05.5-.24,1.04-.36,1.62-.36s1.11.12,1.6.36c.49.24.92.59,1.28,1.05.36.46.64,1.02.85,1.69.21.67.31,1.44.33,2.31,0,.83-.1,1.58-.3,2.25-.2.68-.49,1.25-.85,1.72-.37.47-.8.84-1.3,1.09-.5.25-1.03.38-1.61.38s-1.09-.12-1.59-.36c-.5-.24-.93-.59-1.3-1.05-.37-.46-.67-1.02-.88-1.7-.22-.68-.33-1.46-.33-2.34m1.73-.02c0,.58.07,1.09.21,1.51.14.43.32.78.54,1.07.22.28.48.5.76.64.29.15.57.22.86.22.35,0,.67-.08.95-.25.29-.17.53-.4.73-.71.2-.31.36-.67.47-1.09.11-.42.17-.89.17-1.39s-.06-.97-.18-1.38c-.12-.41-.29-.77-.49-1.07-.21-.3-.45-.53-.73-.69-.28-.16-.59-.24-.91-.24s-.65.09-.94.26c-.29.17-.54.41-.75.72-.21.31-.38.66-.5,1.08-.12.41-.18.85-.18,1.32m2.35,14.71c-.4,0-.72-.16-.95-.48-.23-.32-.35-.73-.35-1.24v-4.9h1.73v4.23c0,.28.06.41.19.41h7.99v1.09c0,.29-.05.51-.16.67-.11.15-.28.23-.53.23h-7.92Zm6.51-5.75v-14.95h1.72v13.49c0,.46-.06.82-.19,1.08-.13.25-.35.38-.67.38h-.86Z"/>
  <path class="cls-3" d="m126.44,53.23h-7.92v-.14h7.92c.23,0,.37-.07.47-.2h0c.09-.13.14-.34.14-.62h0v-1.02h-7.91c-.2,0-.26-.21-.26-.49h0v-4.16h-1.59v4.83c0,.5.11.89.34,1.2h0c.22.3.51.45.89.45h0v.14c-.42,0-.77-.17-1.01-.51h0c-.24-.34-.36-.77-.36-1.28h0v-4.98h1.88v4.3c0,.28.07.34.12.34h8.06v1.16c0,.3-.06.53-.17.71h0c-.12.18-.32.26-.58.26h0Zm-.56-5.75h-.86v-.07h.07-.07v.07h-.07v-15.1h1.86v13.56c0,.47-.06.84-.2,1.11h0c-.13.28-.39.42-.72.42h0Zm0-.15c.3,0,.49-.11.6-.34h0c.12-.24.18-.59.18-1.05h0v-13.42h-1.57v14.8h.79Zm-8.97-3.71c-.51-.24-.95-.6-1.33-1.06h0c-.38-.47-.68-1.04-.9-1.72h0c-.22-.68-.33-1.47-.33-2.36h0c0-.88.11-1.66.32-2.33h0c.21-.67.51-1.25.88-1.71h0c.37-.47.81-.82,1.32-1.07h0c.51-.25,1.06-.37,1.65-.37h0c.58,0,1.13.12,1.63.37h0c.5.24.94.6,1.31,1.07h0c.37.47.65,1.04.86,1.71h0c.21.68.32,1.45.33,2.33h0c0,.83-.1,1.59-.31,2.27h0c-.2.68-.49,1.27-.86,1.75h0c-.37.48-.81.85-1.32,1.11h0c-.51.26-1.06.39-1.64.39h0c-.57,0-1.11-.12-1.62-.37h0Zm-2.41-5.15c0,.88.11,1.65.32,2.32h0c.21.67.5,1.23.87,1.68h0c.37.45.79.79,1.28,1.03h0c.49.24,1.01.35,1.56.35h0c.56,0,1.08-.12,1.57-.37h0c.49-.25.91-.61,1.27-1.07h0c.36-.46.64-1.03.84-1.7h0c.2-.67.3-1.41.3-2.23h0c-.01-.87-.12-1.63-.32-2.29h0c-.21-.66-.49-1.22-.84-1.67h0c-.35-.45-.77-.79-1.25-1.03h0c-.48-.23-1-.35-1.57-.35h0c-.57,0-1.1.12-1.59.35h0c-.49.23-.91.58-1.27,1.03h0c-.36.45-.64,1-.85,1.67h0c-.21.66-.31,1.42-.31,2.29h0Zm3.14,3.27c-.3-.15-.56-.37-.79-.66h0c-.23-.29-.41-.66-.55-1.09h0c-.14-.44-.21-.95-.21-1.54h0c0-.47.06-.92.19-1.34h0c.12-.42.29-.79.51-1.1h0c.21-.31.47-.56.77-.74h0c.3-.18.62-.27.98-.27h0c.34,0,.66.08.95.25h0c.29.17.54.4.76.71h0c.21.3.38.67.5,1.09h0c.12.42.19.89.19,1.41h0c0,.51-.06.98-.17,1.41h0c-.11.43-.27.8-.48,1.11h0c-.21.31-.46.56-.75.73h0c-.3.17-.63.26-.99.26h0c-.3,0-.6-.08-.89-.22h0Zm-1.2-1.8c.14.42.31.77.53,1.05h0c.22.28.46.48.74.62h0c.28.14.55.21.83.21h0c.34,0,.64-.08.92-.24h0c.28-.16.51-.39.71-.69h0c.2-.3.35-.65.46-1.07h0c.11-.41.16-.87.16-1.37h0c0-.5-.06-.96-.18-1.36h0c-.12-.41-.28-.76-.48-1.05h0c-.2-.29-.44-.51-.71-.67h0c-.27-.15-.56-.23-.88-.23h0c-.33,0-.63.08-.9.25h0c-.28.17-.52.4-.73.7h0c-.21.3-.37.65-.49,1.06h0c-.12.41-.18.84-.18,1.3h0c0,.57.07,1.07.2,1.49h0Z"/>
  <path class="cls-3" d="m142.4,41.9v.92c0,.7-.24,1.05-.73,1.05h-13.62v-1.96h14.35Zm-6.08-7.34c.28.84.84,1.68,1.7,2.51.86.83,1.98,1.49,3.36,1.98l-.95,1.63c-.45-.16-.91-.38-1.4-.68-.49-.29-.96-.62-1.42-1-.46-.38-.89-.79-1.3-1.22-.4-.44-.75-.88-1.04-1.33-.27.48-.62.94-1.02,1.38-.41.44-.84.85-1.3,1.21-.46.36-.94.69-1.42.97-.49.28-.94.51-1.37.66l-.97-1.63c1.39-.51,2.5-1.15,3.33-1.94.83-.78,1.42-1.63,1.76-2.55h-4.17v-1.9h10.34v.85c0,.7-.24,1.05-.73,1.05h-3.39Zm-6.35,15.08c0-.71.15-1.33.46-1.84.31-.52.71-.94,1.22-1.27.5-.33,1.07-.59,1.7-.75.63-.17,1.27-.25,1.92-.25s1.27.08,1.89.25c.62.17,1.18.42,1.67.75.49.33.89.76,1.19,1.29.3.52.45,1.13.45,1.83,0,.65-.14,1.23-.43,1.72-.29.49-.67.9-1.15,1.23-.48.33-1.04.57-1.66.74-.63.17-1.28.25-1.96.25s-1.29-.07-1.92-.21c-.63-.14-1.2-.37-1.7-.69-.5-.32-.91-.73-1.22-1.22-.31-.49-.46-1.1-.46-1.83m1.78,0c0,.33.1.62.29.87.19.25.45.45.77.61.32.16.7.28,1.12.37.42.09.87.13,1.33.13s.88-.04,1.29-.12c.41-.08.78-.2,1.1-.37.32-.17.57-.37.76-.62.19-.25.29-.54.29-.87s-.1-.66-.29-.93c-.19-.27-.44-.49-.75-.66-.31-.17-.68-.31-1.09-.4-.41-.09-.84-.14-1.29-.14-.48,0-.93.05-1.35.14-.42.09-.8.23-1.12.4-.32.17-.58.4-.77.66-.19.27-.29.58-.29.93"/>
  <path class="cls-3" d="m133.34,53.44c-.64-.14-1.21-.37-1.72-.69h0c-.51-.33-.93-.74-1.24-1.24h0c-.32-.51-.47-1.13-.47-1.87h0c0-.72.16-1.35.47-1.88h0c.31-.52.73-.96,1.24-1.3h0c.51-.34,1.09-.59,1.72-.76h0c.64-.17,1.28-.25,1.93-.25h0c.64,0,1.28.08,1.91.25h0c.62.17,1.19.42,1.69.76h0c.5.34.91.78,1.22,1.31h0c.31.54.46,1.16.46,1.87h0c0,.67-.15,1.25-.44,1.76h0c-.29.5-.68.92-1.18,1.25h0c-.49.33-1.05.58-1.68.75h0c-.63.17-1.29.25-1.98.25h0c-.65,0-1.3-.07-1.93-.21h0Zm-3.29-3.81c0,.72.15,1.31.45,1.79h0c.3.48.7.88,1.19,1.2h0c.5.31,1.06.54,1.68.68h0c.63.14,1.26.21,1.9.21h0c.67,0,1.32-.08,1.94-.25h0c.62-.17,1.16-.41,1.64-.73h0c.47-.32.85-.72,1.13-1.21h0c.28-.48.42-1.04.42-1.69h0c0-.69-.15-1.28-.44-1.79h0c-.3-.51-.69-.93-1.17-1.26h0c-.49-.33-1.04-.58-1.65-.74h0c-.62-.16-1.24-.25-1.87-.25h0c-.64,0-1.27.08-1.9.25h0c-.62.17-1.18.41-1.68.74h0c-.5.33-.89.75-1.2,1.25h0c-.3.5-.45,1.1-.45,1.8h0Zm3.87,1.92c-.43-.09-.81-.21-1.14-.38h0c-.33-.16-.6-.38-.8-.63h0c-.2-.26-.3-.57-.3-.92h0c0-.36.1-.69.3-.97h0c.2-.28.46-.51.8-.69h0c.33-.18.71-.31,1.14-.41h0c.43-.1.89-.14,1.37-.14h0c.45,0,.88.05,1.3.14h0c.42.1.79.23,1.11.41h0c.32.18.58.41.78.69h0c.2.28.3.61.3.97h0c0,.35-.1.66-.3.92h0c-.2.26-.46.47-.79.64h0c-.33.17-.7.3-1.12.38h0c-.42.08-.85.12-1.3.12h0c-.47,0-.92-.04-1.35-.13h0Zm-1.82-1.1c.18.24.43.43.75.59h0c.32.16.68.28,1.1.36h0c.42.09.86.13,1.32.13h0c.44,0,.87-.04,1.28-.12h0c.41-.08.77-.2,1.08-.36h0c.31-.16.56-.36.74-.6h0c.18-.24.27-.51.27-.83h0c0-.33-.09-.63-.27-.88h0c-.18-.26-.43-.47-.73-.64h0c-.31-.17-.66-.3-1.07-.4h0c-.41-.09-.83-.14-1.27-.14h0c-.47,0-.92.05-1.34.14h0c-.42.09-.79.23-1.1.4h0c-.31.17-.56.38-.75.64h0c-.18.26-.27.55-.27.88h0c0,.32.09.59.27.83h0Zm-4.12-6.53v-2.11h14.42v.07-.07h.07v.99c0,.71-.27,1.12-.8,1.12h-13.69Zm.14-.15h13.54c.44,0,.65-.29.66-.97h0v-.84h-14.2v1.81h0Zm12.28-3.04c-.45-.16-.92-.39-1.41-.68h0c-.49-.29-.97-.63-1.43-1.01h0c-.46-.38-.9-.79-1.3-1.23h0c-.38-.41-.7-.82-.98-1.24h0c-.27.45-.59.88-.97,1.3h0c-.41.45-.85.85-1.31,1.22h0c-.46.37-.94.69-1.43.98h0c-.49.29-.95.51-1.38.67h0l-.06.02-1.05-1.76.08-.03c1.38-.51,2.48-1.15,3.31-1.92h0c.79-.75,1.36-1.56,1.7-2.42h-4.13v-2.04h10.48v.92c0,.71-.27,1.12-.8,1.12h-3.29c.28.8.83,1.59,1.65,2.38h0c.85.82,1.96,1.48,3.33,1.97h0l.08.03-1.03,1.76-.06-.02h0Zm-5.07-4.33c.29.45.63.89,1.03,1.32h0c.4.43.83.84,1.29,1.21h0c.46.37.93.71,1.41,1h0c.46.28.91.49,1.33.65h0l.88-1.51c-1.35-.49-2.45-1.15-3.3-1.97h0c-.86-.83-1.44-1.68-1.72-2.54h0l-.03-.09h3.49c.44,0,.65-.29.66-.97h0v-.78h-10.19v1.75h4.2l-.04.1c-.34.93-.94,1.79-1.77,2.58h0c-.83.78-1.92,1.42-3.28,1.92h0l.89,1.51c.4-.15.84-.37,1.3-.64h0c.48-.28.95-.6,1.41-.96h0c.46-.36.89-.76,1.29-1.2h0c.4-.44.74-.9,1.02-1.37h0l.06-.1.06.1h0Zm.99-1.78v-.07.07h0Z"/>
  <polygon class="cls-3" points="36.75 61.83 36.75 72.68 47.27 72.68 47.27 61.83 53.64 61.83 53.64 90.06 47.27 90.06 47.27 78.25 36.75 78.25 36.75 90.06 30.34 90.06 30.34 61.83 36.75 61.83"/>
  <path class="cls-3" d="m63.27,82.82l-2.01,7.25h-6.62l8.63-28.23h8.38l8.76,28.23h-6.87l-2.18-7.25h-8.08Zm7.16-4.78l-1.76-5.99c-.5-1.68-1-3.77-1.42-5.45h-.08c-.42,1.68-.84,3.81-1.3,5.45l-1.68,5.99h6.24Z"/>
  <path class="cls-3" d="m101.34,89.27c-1.17.59-3.81,1.21-7.25,1.21-9.76,0-14.79-6.07-14.79-14.12,0-9.63,6.87-15,15.42-15,3.31,0,5.82.67,6.95,1.26l-1.3,5.07c-1.3-.54-3.1-1.05-5.36-1.05-5.07,0-9.01,3.06-9.01,9.34,0,5.65,3.35,9.22,9.05,9.22,1.93,0,4.06-.42,5.32-.92l.96,4.98Z"/>
  <path class="cls-3" d="m122.49,89.27c-1.17.59-3.81,1.21-7.25,1.21-9.76,0-14.79-6.07-14.79-14.12,0-9.63,6.87-15,15.42-15,3.31,0,5.82.67,6.95,1.26l-1.3,5.07c-1.3-.54-3.1-1.05-5.36-1.05-5.07,0-9.01,3.06-9.01,9.34,0,5.65,3.35,9.22,9.05,9.22,1.93,0,4.06-.42,5.32-.92l.96,4.98Z"/>
  <path class="cls-3" d="m124.17,62.21c1.97-.33,4.73-.58,8.63-.58s6.74.75,8.63,2.26c1.8,1.42,3.02,3.77,3.02,6.53s-.92,5.11-2.6,6.7c-2.18,2.05-5.4,2.97-9.17,2.97-.84,0-1.59-.04-2.18-.13v10.1h-6.33v-27.86Zm6.33,12.82c.54.13,1.21.17,2.14.17,3.39,0,5.49-1.72,5.49-4.61,0-2.6-1.8-4.15-4.99-4.15-1.3,0-2.18.13-2.64.25v8.34Z"/>
  <path class="cls-1" d="m143.96,86.2c.14.59.23,1.18.23,1.78,0,11.42-26.48,20.68-59.15,20.68s-59.15-9.26-59.15-20.68c0-.6.09-1.19.23-1.78-4.18,3.08-6.53,6.54-6.53,10.2,0,12.92,29.3,23.39,65.45,23.39s65.45-10.47,65.45-23.39c0-3.66-2.35-7.12-6.53-10.2"/>
  <path class="cls-3" d="m85.04,0C38.07,0,0,38.07,0,85.04s38.07,85.04,85.04,85.04,85.04-38.07,85.04-85.04S132.01,0,85.04,0m0,5.89c43.71,0,79.15,35.44,79.15,79.15,0,15.57-4.5,30.09-12.26,42.33H18.16c-7.76-12.24-12.26-26.76-12.26-42.33C5.89,41.33,41.33,5.89,85.04,5.89"/>
  <path class="cls-2" d="m41.23,139.11c-.48.87-2.21,2.36-3.59,2.75l-.66-1.26c1.65-.81,3.44-2.13,3.44-4.1v-1.35h1.78v1.33c0,1.9,1.63,3.3,3.43,4.14l-.65,1.24c-1.42-.49-2.82-1.62-3.75-2.75m4.95,4.79h-7.83v-1.21h9.6v4.44h-1.78v-3.23Zm0-9.02h1.78v7.14h-1.78v-7.14Z"/>
  <path class="cls-2" d="m55.73,142.85h3.92v4.3h-9.6v-4.3h3.92v-1h-4.5v-1.21h10.76v1.21h-4.5v1Zm-5.69-4.33h1.33v-2.16h-1.33v-1.21h9.6v1.21h-1.35v2.16h1.35v1.21h-9.6v-1.21Zm1.78,7.42h6.05v-1.88h-6.05v1.88Zm1.33-7.42h3.38v-2.16h-3.38v2.16Z"/>
  <path class="cls-2" d="m70.54,145.5c-.94.41-1.66.42-2.68.42h-6.32v-1.19h6.78c.8,0,1.39-.13,2.14-.38.07-.07.07-9.47.07-9.47h1.77v12.25h-1.77v-1.63Zm-5.24-10.52c4.77,0,4.83,8.23,0,8.23s-4.76-8.23,0-8.23m0,7.04c2.42,0,2.42-5.8,0-5.8s-2.4,5.8,0,5.8"/>
  <path class="cls-2" d="m76.92,135.01c4.87,0,4.86,6.74,0,6.74s-4.9-6.74,0-6.74m5.31,8.77h-7.83v-1.19h9.59v4.55h-1.76v-3.36Zm-5.31-3.36c2.42,0,2.4-4.07,0-4.07s-2.52,4.07,0,4.07m7.07,1.46h-1.76v-7h1.76v1.49h1.4v1.33h-1.4v1.22h1.4v1.33h-1.4v1.62Z"/>
  <path class="cls-2" d="m92.18,142.85h3.92v4.3h-9.61v-4.3h3.92v-1h-4.5v-1.21h10.76v1.21h-4.5v1Zm-5.68-4.33h1.33v-2.16h-1.33v-1.21h9.61v1.21h-1.35v2.16h1.35v1.21h-9.61v-1.21Zm1.78,7.42h6.05v-1.88h-6.05v1.88Zm1.33-7.42h3.38v-2.16h-3.38v2.16Z"/>
  <path class="cls-2" d="m101.35,135.01c4.71,0,4.7,7.28.01,7.28s-4.66-7.28-.01-7.28m-2.2,8.25h1.76v2.67h7.52v1.21h-9.29v-3.88Zm2.21-2.3c2.37,0,2.31-4.61-.01-4.61s-2.33,4.61.01,4.61m6.93,2.81h-1.76v-8.88h1.76v3.09h1.4v1.35h-1.4v4.44Z"/>
  <path class="cls-2" d="m114.2,139.7c-.61.76-2.34,2.25-3.66,2.65l-.66-1.26c1.65-.89,3.44-2.07,3.44-4.12v-.62h-2.76v-1.21h7.23v1.21h-2.69v.6c0,1.9,1.78,3.37,3.41,4.14l-.64,1.24c-1.36-.46-2.88-1.57-3.67-2.64m-2.65,3.4h1.62v2.82h7.83v1.21h-9.45v-4.03Zm7.52-4.19h-1.76v-1.21h1.76v-2.83h1.77v8.75h-1.77v-4.72Z"/>
  <path class="cls-2" d="m126.2,143.17c-.61,1.08-2.16,2.35-3.28,2.87l-.69-1.21c2.02-1.33,3.09-2.68,3.09-5.16v-2.78h-2.36v-1.21h2.36v-1.08h1.76v1.08h2.37v1.21h-2.37v2.8c0,2.28,1.1,3.98,3.1,5.14l-.69,1.21c-1.26-.55-2.5-1.77-3.28-2.87m4.87-3.05h-2.07v-1.21h2.07v-4.05h1.76v12.26h-1.76v-7.01Z"/>
</svg>