<?xml version="1.0" encoding="UTF-8"?>
<svg id="_레이어_2" data-name="레이어 2" xmlns="http://www.w3.org/2000/svg" viewBox="0 0 695.45 80.06">
  <defs>
    <style>
      .cls-1 {
        stroke-width: 0px;
      }
    </style>
  </defs>
  <g id="_레이어_1-2" data-name="레이어 1">
    <g>
      <g>
        <polygon class="cls-1" points="201.05 44.47 176.38 44.47 176.38 20.66 175.24 20.66 168.59 20.66 163.01 20.66 163.01 28.6 168.59 28.6 168.59 78.47 176.38 78.47 176.38 53.43 201.05 53.43 201.05 78.47 208.93 78.47 208.93 20.66 201.05 20.66 201.05 44.47"/>
        <path class="cls-1" d="M242.83,20.62h-16.58s0,7.88,0,7.88h4.62s-12.91,50.01-12.91,50.01h7.88s4.21-17.26,4.21-17.26h15.49s4.35,17.26,4.35,17.26h7.88s-14.95-57.89-14.95-57.89ZM231.82,53.51l6.11-25.27,5.84,25.27h-11.96Z"/>
        <polygon class="cls-1" points="299.18 65.17 278.04 20.66 263.39 20.66 263.39 28.6 268.52 28.6 268.52 78.47 276.16 78.47 276.16 34.16 297.13 78.47 306.81 78.47 306.81 20.66 299.18 20.66 299.18 65.17"/>
        <path class="cls-1" d="M331.4,44.88c-7.02-1.86-9.67-4.23-9.67-9.17,0-5.36,3.68-7.84,9.33-7.84,3.09,0,6.17.73,7.54,1.75v2.62s7.11,0,7.11,0v-7.66c-2.83-2.57-7.71-5.05-15.25-5.05-10.44,0-16.44,6.81-16.44,16.28,0,9.6,4.96,14.64,14.73,17.21,8.48,2.27,10.44,4.43,10.44,9.49,0,5.35-3.33,8.76-9.42,8.76-4.87,0-9.5-2.79-13.35-6.91l-4.11,7.33c3.08,3.81,8.73,8.03,17.73,8.03,12.75,0,16.87-8.65,16.87-17.82,0-11.44-6.68-14.53-15.5-17Z"/>
        <path class="cls-1" d="M385.16,58.59c0,7.31-3,12.35-10.36,12.35-7.36,0-10.36-5.04-10.36-12.35V20.66s-.43,0-.43,0h-7.36s-6,0-6,0v7.93s6,0,6,0v32.46c0,10.1,5.91,18.64,18.15,18.64,12.59,0,18.15-8.96,18.15-18.64V20.66s-7.79,0-7.79,0v37.92Z"/>
        <polygon class="cls-1" points="435.25 65.17 414.11 20.66 399.46 20.66 399.46 28.6 404.59 28.6 404.59 78.47 412.22 78.47 412.22 34.16 433.2 78.47 442.88 78.47 442.88 20.66 435.25 20.66 435.25 65.17"/>
        <path class="cls-1" d="M476.52,55.91h11.4s0,11.64,0,11.64c-2.32,1.96-6.25,3.4-11.73,3.4-9.59,0-16.71-7.83-16.71-21.43,0-13.91,7.36-21.43,16.79-21.43,4.71,0,8.39,1.04,10.88,2.47v7.74s7.1,0,7.1,0v-12.69c-4.02-3.7-10.52-6.08-17.98-6.08-12.92,0-24.75,10.31-24.75,29.99,0,18.55,10.44,30.19,24.4,30.19,8.9,0,15.5-2.88,19.27-7.62v-24.43s-18.67,0-18.67,0v8.25Z"/>
        <polygon class="cls-1" points="501.28 28.6 506.41 28.6 506.41 78.47 514.2 78.47 514.2 54.16 526.66 54.16 526.66 58.2 533.49 58.2 533.49 43.02 526.66 43.02 526.66 46.42 514.2 46.42 514.2 28.6 529.97 28.6 529.97 34.34 536.9 34.34 536.9 20.66 501.28 20.66 501.28 28.6"/>
        <path class="cls-1" d="M566.5,19.54c-13.86,0-24.46,11.82-24.46,30.03,0,18.07,10.6,30.17,24.46,30.17,14.68,0,24.6-13.18,24.6-30.17,0-18.21-10.33-30.03-24.6-30.03ZM566.5,71.04c-9.51,0-16.44-8.42-16.44-21.47,0-13.18,6.93-21.47,16.44-21.47,9.51,0,16.71,8.29,16.71,21.47,0,13.04-7.2,21.47-16.71,21.47Z"/>
        <path class="cls-1" d="M622.48,19.54c-13.86,0-24.46,11.82-24.46,30.03,0,18.07,10.6,30.17,24.46,30.17,14.68,0,24.59-13.18,24.59-30.17,0-18.21-10.46-30.03-24.59-30.03ZM622.48,71.04c-9.51,0-16.58-8.42-16.58-21.47,0-13.18,7.06-21.47,16.58-21.47,9.38,0,16.58,8.29,16.58,21.47,0,13.04-7.2,21.47-16.58,21.47Z"/>
        <path class="cls-1" d="M670.18,20.62h-18.07s0,8.02,0,8.02h5.16s0,49.87,0,49.87h12.77c14.95,0,25.41-8.43,25.41-30.44,0-17.8-8.15-27.45-25.27-27.45ZM669.9,70.49h-4.76s0-41.85,0-41.85h5.16c12.09,0,17.12,6.79,17.12,19.43,0,16.58-7.47,22.42-17.53,22.42Z"/>
      </g>
      <g>
        <path class="cls-1" d="M144.45,64.51c-.14-.54-.27-1.09-.41-1.63,0-.41-.14-.95-.27-1.36.14.27.14.54.27.81.14.14,0,.14,0,.14.14.41.14.82.27,1.09.14.27.14.68.14.95Z"/>
        <path class="cls-1" d="M100.66,29.62c-.38.5-.77,1.02-1.2,1.57-1.3,1.66-2.54,3.62-3.69,5.65,1.59-2.43,3.28-4.94,4.89-7.22Z"/>
        <polygon class="cls-1" points="140.83 55.98 141.77 56.03 140.83 55.98 140.83 55.98"/>
        <path class="cls-1" d="M7.34,75.62c.33.98-1.09,3.48,2.17,3.48,1.96,0,1.63-2.5.65-4.02-.98-1.52-2.83-2.39-2.94-3.37-.11-.98-1.96-1.3-1.85,0,.11,1.31,1.63,2.94,1.96,3.92Z"/>
        <path class="cls-1" d="M10.81,67.77c.79-.71.79-1.63.27-2.04-.52-.41-1.35-.67-1.66-.6-.76.18-1.03.27-.95,1.01.08.73,1.55,2.34,2.34,1.63Z"/>
        <path class="cls-1" d="M7.44,68.53c.05.87.73,1.2,1.02.76.28-.44.27-.92.12-1.01-.58-.34-1.2-.63-1.14.24Z"/>
        <path class="cls-1" d="M8.91,56.85c1.51-.82,1.79-3.06.53-3.47-1.26-.41-1.83.16-2.36.86-.63.83.33,3.43,1.83,2.61Z"/>
        <path class="cls-1" d="M9.73,59.22c.82.57,2.82-.65,1.72-1.75-.79-.78-2.53,1.18-1.72,1.75Z"/>
        <path class="cls-1" d="M3.8,61.22c-.5,2.52.64,5.44,1.57,4.67.93-.76-.43-2.61-.43-4.35,0-1.74-.81-1.96-1.14-.33Z"/>
        <path class="cls-1" d="M7.17,60.73c.6,0,1.41-.98.89-1.58-.51-.6-.89-1.09-1.44-.6-.49.44-.05,2.17.55,2.17Z"/>
        <path class="cls-1" d="M12.12,40.67c-1.08.03-.99,1.58-1.88,1.96-.89.38-1.21,2.45-.72,2.61.48.16,3.15.71,3.91-.54.76-1.25.65-4.08-1.31-4.02Z"/>
        <path class="cls-1" d="M8.07,46.54c-.8.12-1.08,1.52-.74,2.01.34.49,1.28,1.58,2.19.6.92-.98-.39-2.77-1.45-2.61Z"/>
        <path class="cls-1" d="M138.6,41.82c-8.97-14.27-21.61-22.15-29.62-24.59-2.99-.95-9.24-4.08-15.9-7.34-8.02-3.94-16.3-8.15-20.65-9.24-3.26-.82-6.66-.82-10.33-.27-.27,0-.68.13-.95.13-3.4.54-7.2,1.63-11.42,2.72-2.04.54-4.08,1.09-6.25,1.63-11.42,2.85-19.16,10.19-25.27,16.03-.95.95-1.9,1.77-2.72,2.58-4.08,3.67-5.16,6.79-6.79,11.55-1.09,3.13-2.45,6.79-4.89,11.96-6.52,12.91-2.72,31.53-2.58,32.34,0,.41.41.68.95.68h.14c.54-.14.81-.54.68-1.09,0-.14-.41-2.45-.82-6.11.68-.27,1.63-.68,1.9-1.36.55-1.22,1.5-1.09,1.36-1.9-.27-.82-2.18-.95-3.53-.14-.27-6.39.27-14.95,3.53-21.61,2.58-5.16,3.94-8.97,5.03-12.09,1.09-2.99,1.9-5.16,3.26-7.34-.95,2.17-2.04,4.89-1.9,6.11,0,2.31.95,6.25,2.72-1.22,1.09-4.35,4.76-9.78,7.88-13.72,2.17-2.04,4.62-4.08,7.34-5.98-3.4,2.99-5.03,6.52-6.39,9.78-.55,1.5-1.22,2.72-1.9,3.94-2.99,5.57-4.35,24.46-3.94,29.89.27,4.62,3.94,10.73,6.25,14.81.68,1.09,1.22,2.04,1.49,2.72,1.36,2.58,1.09,4.08,1.09,4.08-.14.54.14,1.09.54,1.22h.27c.41,0,.82-.27.95-.68.14-.14.68-2.17-1.09-5.57-.41-.68-.95-1.63-1.63-2.72-2.31-3.94-5.71-9.78-5.98-14-.54-5.44.95-23.78,3.67-28.81.81-1.36,1.36-2.72,2.04-4.08,1.77-4.08,3.53-8.29,8.83-11.28,7.07-4.21,19.98-9.1,27.31-10.46,3.94-.68,7.34-.82,10.73.14,4.08,1.09,12.64,5.3,20.25,9.1,6.66,3.26,13.05,6.39,16.17,7.34,5.84,1.77,17.67,8.02,26.63,21.2-2.04-2.44-4.35-4.21-6.52-4.76-.68-.14-1.36-.14-2.18,0,.68-.41,1.09-.68,1.22-1.09.14-.27.14-.68,0-.95-.81-1.63-5.3-5.98-9.65-8.7-4.35-2.72-6.79-4.35-10.33-3.13-.95.27-2.99,2.58-5.3,5.71,2.85-4.21,3.53-6.52,2.58-8.56-.82-1.49-1.5-1.63-2.85-1.9-.68-.27-1.77-.41-3.4-1.09-1.77-.68-3.81-1.9-5.84-3.13-3.81-2.17-6.25-3.53-7.75-3.26-1.22.27-2.85.54-1.9,30.85-.27-2.72-.54-5.71-.82-8.7-.14-3.13-.14-6.52-.14-9.92-.14-8.7-.27-13.59-1.9-14.81-1.09-.81-2.58-.54-3.94-.14-.41,0-.95.14-1.22.14-.14,0-.41-.14-.82-.27-.95-.54-2.72-1.36-6.79-1.49-5.98-.14-7.88,1.49-10.19,3.4l-.14.27c-2.45,1.9-.95,4.62.95,8.29.41,1.09,1.09,2.18,1.63,3.4-3.53-5.98-6.66-10.06-9.24-10.33-2.31-.27-11.14,1.77-18.34,10.74-5.44,6.93-6.93,12.91-6.39,16.03.13,1.09.54,1.9,1.09,2.31.82.54,2.45.68,5.71,1.09,3.94.41,9.24,1.09,12.77,2.58,3.12,1.5,9.1,3.4,14.27,5.03,4.62,1.36,8.97,2.72,10.46,3.53,1.22.54,2.31,1.49,3.4,2.31.55.41,1.22.81,1.77,1.22-.41-.14-.95-.27-1.36-.27-.81-.27-1.63-.41-2.58-.68-1.63-.41-2.99-1.22-4.76-2.17-2.58-1.36-5.71-3.13-11.01-4.62-7.61-2.17-27.18-5.98-29.35-4.89-2.31,1.09-2.44,4.08-1.63,14.4.54,6.25,2.85,11.69,6.25,14.4,1.22.95,2.58,1.5,3.67,1.5h.55c.95-.14,3.53-1.22,8.42-3.13,8.02-3.13,20.25-8.02,24.73-7.75,4.76.27,8.02-.41,9.24-2.04.68-.68.81-1.63.54-2.58-.14-.54-.41-.95-.81-1.22h.41c.41,0,.95-.14,1.36-.68.68-.68.41-2.17-.41-3.8l.54.54c1.49,1.22,2.45,1.77,3.26,1.77h.41c.95-.41.95-1.22.95-1.9.14-.14.14-.41.14-.54.27-.41.41-1.09.27-2.72.27.95.68,1.63,1.22,2.04.68.54,1.36.68,1.9.68h.54c.27,0,.41,0,.68-.27,0,.14.14.27.14.27.68,1.22,2.31,1.63,3.53,1.77-.14.14,0,.27,0,.41,0,.41.27,1.77,4.76,2.85-1.36.27-2.31.68-2.99,1.36-.68.68-.95,1.63-.68,2.58.41,1.63,2.99,2.72,8.83,5.16,1.77.68,3.67,1.49,5.57,2.45,4.76,2.04,11.01,6.66,14.68,9.51-2.04-.81-4.89-2.17-7.75-3.8-2.58-1.5-5.16-3.26-7.34-4.76-2.18-1.49-3.81-2.58-4.89-2.99-2.99-1.22-8.15-2.99-9.78-1.36-.41.41-.54.82-.54,1.36,0,.27,0,.68.14.95-1.22-.95-2.31-1.49-2.99-1.49-1.09,0-1.5.41-1.77.82-.14.27-.27.54-.27.95-.95-1.63-2.04-2.58-2.72-3.13-.27-.14-1.36-.95-2.45-.68-.54.14-.95.41-1.36.95.14-.95-.14-1.5-.54-1.77-2.31-1.9-8.83-.14-15.35,1.77l-.41.14c-1.63.41-5.98,1.9-10.6,3.4-6.66,2.17-15.63,5.03-16.58,5.16-1.22,0-3.26,0-4.35,1.63-1.09,1.63,1.09,4.48,1.77,5.3.27.41.82.41,1.22.14.41-.41.54-.95.14-1.36-.95-1.22-1.63-2.72-1.5-2.99.54-.82,1.77-.82,2.72-.82.82,0,5.16-1.36,17.12-5.3,4.62-1.5,8.97-2.85,10.6-3.4l.41-.14c3.13-.95,11.69-3.4,13.45-2.17.54,1.36-2.85,8.02-7.47,14.95-.27.41-.14.95.27,1.22.27.14.41.14.54.14.27,0,.68-.14.82-.41.14.14.14.27.27.27.27.14.41.14.54.14.27,0,.68-.14.82-.41.14-.27,4.08-6.25,5.84-10.6.41-1.09,1.5-3.8,2.17-3.94,0-.14.27-.14.82.27,1.09.95,3.8,3.53,4.07,8.97v4.76c-.14.54.41.95.82.95.41,0,.68-.14.82-.41h.27c.54,0,.95-.41.95-.81.14-.82.41-7.34-.68-9.65-.55-1.36-.55-1.9-.55-2.04h.14c.68,0,4.21,2.58,7.34,6.39,2.85,3.53,4.76,6.11,4.76,6.11.14.27.54.41.81.41.14,0,.27,0,.41-.14.27.14.54.27.95.14.41-.27.55-.82.41-1.36-.14-.14-2.72-5.16-6.12-8.29-3.53-3.26-3.81-4.35-3.81-4.62.54-.41,3.53,0,7.75,1.77.82.27,2.58,1.49,4.49,2.85,2.17,1.36,4.75,3.13,7.47,4.76,4.89,2.85,10.06,4.75,10.19,4.89h.41c.27,0,.68-.14.82-.54.27.27.41.41.41.41.14.14.41.14.68.14s.41-.14.68-.27c.27-.41.27-1.09-.14-1.36-.41-.41-10.87-9.1-18.21-12.37-2.04-.82-3.94-1.63-5.57-2.31-3.4-1.49-7.61-3.12-7.75-4.08-.14-.27,0-.41.14-.68.54-.54,2.85-2.04,12.64-.41,8.83,1.63,17.66,1.36,23.51,1.22,2.18,0,3.94-.14,4.89,0,1.22.14,2.17.14,2.99.14.82.14,1.9.14,2.17.27.41,1.22,2.72,12.5,2.58,18.89,0,.54.41.95.95.95.27,0,.68-.14.82-.41.14.27.41.41.82.41.54,0,.95-.41.95-.82,0-.95.55-22.15-8.97-37.37ZM75.96,58.4c-.27.41-1.77,1.77-7.61,1.36-4.89-.27-16.85,4.48-25.55,7.88-3.67,1.5-7.2,2.85-8.02,2.99-.82.14-1.77-.27-2.72-1.09-1.22-.95-4.89-4.48-5.57-13.04-.68-9.24-.55-12.09.54-12.5.14-.14.41-.14.68-.14,3.81,0,18.89,2.72,27.31,5.03,5.16,1.49,8.15,3.26,10.74,4.62,1.77.95,3.26,1.77,5.03,2.17,1.09.27,2.04.54,2.72.68,2.04.54,2.58.68,2.72,1.22,0,.27,0,.55-.27.82ZM74.74,52.15c-1.09-.95-2.45-1.9-3.67-2.58-1.77-.82-5.98-2.17-10.87-3.67-5.16-1.63-11-3.4-14.13-4.75-3.67-1.77-9.24-2.31-13.18-2.85-2.04-.14-4.48-.41-4.89-.82-.14,0-.27-.27-.41-1.09-.27-2.72,1.09-8.15,6.11-14.4,6.39-8.02,14.27-10.19,16.44-10.19h.14c3.53.41,10.87,14.67,14.81,22.28,2.58,5.03,4.08,8.02,5.03,8.97,3.13,3.4,7.48,9.38,7.34,10.87-.41,0-1.9-1.22-2.72-1.77ZM64.68,29.46c3.4,5.44,7.47,11.41,9.51,13.59,1.36,1.5,1.63,2.45,1.77,3.67.14.27.14.54.27.95-2.17-3.12-4.75-5.84-4.75-5.98-.82-.82-2.72-4.48-4.76-8.42-.68-1.36-1.36-2.58-2.04-3.8ZM82.21,50.25c-.27.41-.27.95-.27,1.36-.41-.14-.81-.54-1.63-1.22-1.9-1.63-2.17-2.85-2.45-4.08-.27-1.22-.54-2.72-2.17-4.49-3.26-3.4-11.28-16.03-14-21.74-.68-1.5-1.36-2.85-1.9-3.94-1.9-3.8-2.45-5.16-1.36-6.12l.14-.14c2.04-1.77,3.53-2.99,8.15-2.99h.68c3.8.14,5.16.82,6.11,1.36.55.14.95.41,1.63.41.41,0,1.09-.14,1.63-.27.68-.14,2.04-.41,2.31-.14,1.09.82,1.09,8.29,1.22,13.32,0,3.4,0,6.93.14,10.05.27,4.21.81,8.43,1.22,11.82.41,2.99.68,6.12.54,6.79ZM87.37,49.3c-.27,0-.54,0-.81-.14-.41-.41-1.22-1.9-1.36-6.93-.95-24.73-.14-30.03.41-30.98,1.09,0,4.08,1.77,6.25,2.99,2.04,1.22,4.21,2.45,6.12,3.26,1.77.68,2.85.95,3.67,1.09q1.09.27,1.5,1.09c.68,1.36.14,3.53-5.16,10.33-3.53,4.48-6.52,11.01-8.56,15.35-.82,1.63-1.63,3.4-2.04,3.94ZM92.13,51.06c-.68,0-1.63-.41-1.9-.82-.14-.14-.27-.41,0-1.09,1.5-2.99,15.63-24.87,18.07-25.82.54-.14,1.09-.27,1.63-.27,1.63,0,3.53.95,6.93,3.26,3.94,2.45,7.61,5.84,8.7,7.34-.95.54-3.53,1.5-5.3,2.04-1.77.68-3.53,1.22-4.62,1.77-1.09.41-4.62,2.58-8.7,5.03-5.44,3.26-13.45,8.29-14.81,8.56ZM97.57,54.32c-2.04-.41-2.99-.82-3.4-1.22,5.57-3.67,28.4-16.85,33.97-15.76,5.84,1.09,12.64,15.49,12.64,18.48-.68.27-3.12-.41-4.48-.82-1.22-.27-2.31-.54-3.26-.68h-2.99c-2.31,0-6.11,0-10.87.14-8.42.14-19.98.27-21.61-.14ZM143.5,60.44c-.14-.27-.14-.54-.27-.81,0-.14-.13-.27-.13-.41-.55-1.09-1.9-1.09-3.81-1.22-.81,0-1.63,0-2.72-.14h-5.16c-5.84.14-14.54.41-23.23-1.09-.41-.14-.95-.27-1.36-.27,3.4,0,7.61-.14,12.37-.14,6.52-.14,12.64-.27,13.72-.14.68.14,1.77.41,2.85.68,2.04.54,3.53.81,4.62.81.68,0,1.22-.14,1.63-.41.41-.27.68-.68.68-1.09.54,2.04,1.09,4.21,1.36,6.12-.14-.27-.14-.54-.27-.81-.14-.41-.14-.82-.27-1.09ZM144.04,62.48c.14.41.14.82.27,1.09-.14-.27-.14-.41-.27-.68v-.41Z"/>
      </g>
    </g>
  </g>
</svg>